<?xml version="1.0" encoding="utf-8"?>
<!-- Generator: Adobe Illustrator 19.0.0, SVG Export Plug-In . SVG Version: 6.00 Build 0)  -->
<svg version="1.1" id="Capa_1" xmlns="http://www.w3.org/2000/svg" xmlns:xlink="http://www.w3.org/1999/xlink" x="0px" y="0px"
	 viewBox="-37 42.4 12.8 17.6" style="enable-background:new -37 42.4 12.8 17.6;" xml:space="preserve">
<style type="text/css">
	.st0{fill:#FFDE00;}
</style>
<g id="XMLID_3_">
	<g id="XMLID_4_">
		<path id="XMLID_1_" class="st0" d="M-30.8,59.3c0,0,0.3,0.5,0.7,0c0.5-0.6,4.7-6.1,4.7-6.1s0.6-0.7-0.2-0.7c-0.8,0-2,0-2,0
			s0-0.4,0-1.1c0-2,0-5.9,0-7.4c0,0,0-0.4-0.4-0.4c-0.4,0-4.5,0-5,0c-0.5,0-0.4,0.4-0.4,0.4c0,1.5,0,5.3,0,7.4c0,0.7,0,1.2,0,1.2
			s-1.6,0-2.2,0c-0.6,0-0.1,0.7-0.1,0.7L-30.8,59.3z"/>
	</g>
</g>
</svg>
