<?xml version="1.0" encoding="utf-8"?>
<!-- Generator: Adobe Illustrator 19.0.0, SVG Export Plug-In . SVG Version: 6.00 Build 0)  -->
<svg version="1.1" id="Warstwa_1" xmlns="http://www.w3.org/2000/svg" xmlns:xlink="http://www.w3.org/1999/xlink" x="0px" y="0px"
	 viewBox="250 -346 600 712" style="enable-background:new 250 -346 600 712;" xml:space="preserve">
<style type="text/css">
	.st0{fill:#E6E7E8;}
	.st1{fill:#00002A;}
	.st2{fill:#0078A2;}
	.st3{fill:#00B2F0;}
	.st4{fill:#008DBE;}
	.st5{fill:#00244A;}
	.st6{fill:#00315B;}
	.st7{fill:#001D43;}
	.st8{fill:#FAB89B;}
	.st9{fill:#004B7F;}
	.st10{fill:#FBC4A7;}
	.st11{fill:#A0D5EC;}
	.st12{fill:#00538B;}
	.st13{fill:#003A67;}
	.st14{fill:#8B0417;}
	.st15{fill:#DE3A25;}
	.st16{fill:#E4F5FD;}
	.st17{fill:#A0A1A3;}
	.st18{fill:#001237;}
	.st19{fill:#D09A83;}
	.st20{fill:#ADAFB2;}
	.st21{fill:#888A8C;}
	.st22{fill:#7D7E81;}
	.st23{fill:#4A4B4C;}
	.st24{fill:#BCBEC0;}
	.st25{fill:#A5A7AA;}
	.st26{fill:#0D2B58;}
	.st27{fill:#193C6F;}
	.st28{fill:#011E48;}
	.st29{fill:#1A2D57;}
	.st30{fill:#67686B;}
</style>
<g id="g3_5_" transform="matrix(0.9486962,0,0,0.9486962,2.4834364,1.8361818)">
	<path id="path5_4_" class="st0" d="M719,57.9c35.8-6.5,68.1,6.4,72.2,29c4.1,22.5-21.5,46.1-57.3,52.6c-11.2,2-22.1,2.2-31.9,0.7
		c-17,9.5-39.7,25.7-39.7,25.7s14.7-11.2,19.5-22.5c1.2-2.9,1.7-5.8,1.8-8.4c-11.9-5.3-20.1-13.8-22-24.4
		C657.6,88,683.3,64.5,719,57.9"/>
</g>
<g id="XMLID_9_">
	<g id="XMLID_83_">
		<polygon id="XMLID_63_" class="st1" points="774.5,-87.8 791.6,-33.5 781.1,-89.5 		"/>
		<polygon id="XMLID_62_" class="st1" points="751.7,-97.2 768.9,-42.9 758.4,-98.9 		"/>
		<polygon id="XMLID_61_" class="st1" points="732.3,-89.5 721.8,-33.5 738.9,-87.8 		"/>
		<polygon id="XMLID_60_" class="st1" points="725.3,-106.5 714.8,-50.5 731.9,-104.8 		"/>
		<polygon id="XMLID_59_" class="st2" points="801.4,-186.2 789.2,-186.2 749.5,-192.3 767.4,-191.4 		"/>
		<polygon id="XMLID_58_" class="st3" points="789.2,-186.2 801.4,-186.2 791.6,-95.1 779.4,-95.1 		"/>
		<polygon id="XMLID_57_" class="st4" points="789.2,-186.2 751.3,-192.3 750.5,-95.1 779.4,-95.1 		"/>
		<path id="XMLID_56_" class="st3" d="M732-86.6h51.1c4.7,0,8.5-3.8,8.5-8.5l0,0c0-4.7-3.8-8.5-8.5-8.5H732c-4.7,0-8.5,3.8-8.5,8.5
			l0,0C723.5-90.4,727.3-86.6,732-86.6z"/>
		<g id="XMLID_84_">
			<path id="XMLID_55_" class="st5" d="M752.7-130.2c-29.6,5.9-61.6,13.3-68.3,17.5c-6.2,3.8,3.6,14.1,3.6,14.1s57.4-2.2,67-2.3
				C760.3-100.9,758.4-131.3,752.7-130.2z"/>
			<path id="XMLID_54_" class="st5" d="M698.9-48.7c0.1-13-3.5-65.8-3.5-65.8s-13.2-1.6-14.8,7.5c-0.9,4.7,7.3,45.2,10.6,58.8
				L698.9-48.7z"/>
			<path id="XMLID_53_" class="st1" d="M672-42.3l19.1-5.9l7.9-0.4l0.5,8.5L686-39.3C670.1-38.6,672-42.3,672-42.3z"/>
			<path id="XMLID_52_" class="st6" d="M769.6-128.3c-28.5,9.7-56.4,23.3-62.5,28.3c-5.6,4.6,5.5,13.5,5.5,13.5s49.2-10.3,57.9-14.1
				C786.2-107.6,775.1-130.2,769.6-128.3z"/>
			<path id="XMLID_51_" class="st6" d="M724.8-38.5c-0.3-12.9-5.5-65.1-5.5-65.1s-13.2-0.3-14.6,8.8c-0.7,4.8,8.7,44.3,12.4,57.4
				L724.8-38.5z"/>
			<path id="XMLID_50_" class="st1" d="M698.1-29.6l19-7.7l7.9-1.2l0.8,8.4l-13.6,2C696.3-25.7,698.1-29.6,698.1-29.6z"/>
			<g id="XMLID_125_">
				<path id="XMLID_49_" class="st7" d="M706.8-157.7c0,0-0.9,5.6,4.2,11.2C711-146.6,714.8-154.1,706.8-157.7z"/>
				<g id="XMLID_126_">
					<path id="XMLID_48_" class="st8" d="M706.9-152.8c0,0-5.4,1.2-9.1,4c-2.1,1.5-3.1,4.7-1.5,7c1.2,1.7,3.6,2.4,5.5,1.6
						c0.7-0.3,1.4-0.8,1.4-1.6c0-0.3-0.1-0.6-0.1-0.8c-0.1-1.2,0.8-2.2,1.8-2.7c1.1-0.6,2.6-0.7,3.6-1.5c0.5-0.3,1.7-2,1.5-2.7
						C709.8-149.9,706.9-152.8,706.9-152.8z"/>
					<g id="XMLID_129_">
						<g id="XMLID_314_">
							<path id="XMLID_315_" class="st8" d="M750.5-162.7c0.7-2.2,1.8-1.4-0.9-3.4c-2.3-1.7-7-4.4-7-4.4
								c-12.6,6.9-21.9,9.4-30.8,14.2c-13.9,7.6-3.3,8.1-3.3,8.1C724.2-156,735.2-154.7,750.5-162.7z"/>
						</g>
					</g>
					<g id="XMLID_127_">
						<path id="XMLID_46_" class="st9" d="M706.8-157.7c4.3,1.7,5.4,9.1,4.2,11.2c14.2-6,30.8-10.5,44.7-16.5c0.9-2.1-0.5-1.6-3-3.9
							c-2.2-1.9-7.6-4.9-7.6-4.9C733.2-166.5,717.4-160.9,706.8-157.7z"/>
					</g>
				</g>
			</g>
			<polygon id="XMLID_45_" class="st10" points="736.2,-225.5 750.5,-228.8 755.3,-213.1 740.7,-210.5 			"/>
			<path id="XMLID_44_" class="st10" d="M732-146.6l37.5-3.4c-1-17.1-0.7-59.1-4.9-62c-10.9-7.6-22-6.5-30.2,0.1
				C731.2-209.3,731.1-164.4,732-146.6z"/>
			<path id="XMLID_43_" class="st8" d="M735.3-163.4"/>
			<path id="XMLID_42_" class="st11" d="M733.1-129.7c-2.2-22.7-9-65.3-4.1-75.5c1.7-3.6,5.3-9.1,10.7-10.5
				c-0.2,0.1-0.3,0.2-0.5,0.2c-0.9,2.3,0.6,5.6,5.3,5.2c2.1-0.2,4.9-1.2,7.8-3.8c1.3-1.2,1.5-2.9,1.7-3.3c4.4,0.6,14,2.5,17,5.5
				c3.4,3.3,5.1,62.1,6.2,82.6l-26.6,3C736.9-126.2,735.6-127.9,733.1-129.7z"/>
			<path id="XMLID_41_" class="st12" d="M735.3-163.4c0.9,11.5,2.5,25.8,3.8,36.5c-5,0.7-4.1,1.1-7.5,2c-0.6,0.2-1.1-0.8-1.2-1.4
				c-2.9-25.6-7.1-66.2-2.4-78.7c1.8-4.6,5-7.3,8.9-9.5C736.9-214.5,733.8-182.1,735.3-163.4z"/>
			<path id="XMLID_40_" class="st13" d="M735.9-155.6c-2.2-3.6-7.2-15.6-7.2-15.6l4.1-15.8l-1.8-22.9l4.7-3.8c0,0,0.8-0.5,1.2-0.7
				c0,0-3.1,32.4-1.7,51.1C735.4-160.9,735.7-158.3,735.9-155.6z"/>
			<path id="XMLID_39_" class="st12" d="M755.1-212.2c0.4-1.5,0.5-3.2-0.4-4.4l-0.1-0.6c4.7,0.8,14.8,0.8,16.4,6.1
				c1.5,4.8,9,74.7,10.3,97.6L752-111l-4.3-49l-0.3-28.5L755.1-212.2z"/>
			<path id="XMLID_38_" class="st14" d="M769.6-130.2"/>
			<path id="XMLID_37_" class="st15" d="M741.9-208.7L741.9-208.7c-1.3-0.1-2.5,0.4-3.2,1.5l-0.9,1.4c0,0,0.6,4,1.8,4.4
				c0.5,0.1,1,0.2,1.4,0.1c0.8-0.1,1.5-0.5,2-1.1l2.3-3.1l-0.9-1.5C743.8-208,742.9-208.6,741.9-208.7z"/>
			<path id="XMLID_36_" class="st15" d="M738.4-145l0.8-57.6l3.1-0.3l4.2,57.2l-2.1,10.7c-0.4,2.1-2.4,2.1-3,0L738.4-145z"/>
			<g id="XMLID_112_">
				<path id="XMLID_35_" class="st16" d="M738.6-217.6l2.1,5.4l-3,6.3c0,0-2.9-6-2.3-7.7C735.4-213.5,736.5-216.3,738.6-217.6z"/>
				<polygon id="XMLID_34_" class="st17" points="740.7,-212.2 741.5,-210.6 737.7,-205.8 				"/>
			</g>
			<path id="XMLID_33_" class="st13" d="M755.8-218.6l7.8,2.7l-13.1,25.2l1.8,21.2l-4,15.6c0,0-4-18.2-2.1-33.1
				C748-201.9,749.4-210.6,755.8-218.6z"/>
			<path id="XMLID_32_" class="st16" d="M753.6-221.1l3.9,4.4c0,0-6.8,8.6-12.1,12.5l-3.9-7.7C741.5-211.9,747-215.7,753.6-221.1z"
				/>
			<g id="XMLID_31_">
				<path id="XMLID_169_" class="st10" d="M733-257.2c4.4-0.7,9,0,11.6,2c6.3,4.9,4.6,12.8,5.5,20.1c0.1,1.3,0.4,4.7,1.1,9
					c0.1,0.8-1.1-0.8-1.8-0.6c-5.7,2.2-9.1,5.5-14.8,7.7c-1.5,0.6-4,2.1-5.2,1c-0.7-0.6-1.1-1.9-1.4-2.7c-1.4-4.8-3.7-10.5-4.7-14.9
					c-0.7-3-1.4-5.9-1.6-9c-0.2-2.5,0-5.1,1.2-7.2C724.8-254.7,728.8-256.5,733-257.2z"/>
			</g>
			<g id="XMLID_30_">
				<path id="XMLID_168_" class="st18" d="M751.3-231.5c-0.4,0.2-0.9,0.1-1.6-0.4c-0.9-0.6-2.1-1.7-2.5-2.8
					c-0.4-1.4,0.6-3.1,0.6-4.6c0-1-0.2-2.1-0.9-2.9c-0.7-0.7-2.1-0.9-2.7-0.1c-0.5,0.5-0.5,1.4-1.1,1.8c-0.5,0.4-1.3,0.2-1.8-0.1
					c-0.5-0.4-0.9-0.9-1.4-1.4c-1.1-1.3-2.7-2.2-4.3-2.3c-0.9-0.1-1.9,0.1-2.8,0.2c-2.7,0.3-5.5-0.3-7.9-1.5
					c-3.2-1.7-6.5-4.4-6.8-8.3c2,0.9,4.3-0.3,6.1-1.4c2.6-1.5,5.2-2.9,8.1-3.5s7.2-0.9,9.6,0.8c0.5,0.4,1,0.8,1.6,1.1
					c1.3,0.6,1.7,0.8,3.1,1.2c2,0.6,3.1,2.7,3.9,4.7c1.4,3.7,2.1,7.7,2.3,11.7C752.7-237.9,753.1-232.3,751.3-231.5z"/>
			</g>
			<path id="XMLID_29_" class="st10" d="M723.2-238c-0.3,4.2-0.5,5.7-1.1,8.4c-0.1,0.6,0.3,1.2,1,1.3c1.2,0,2.5-0.1,3.5-0.2"/>
			<path id="XMLID_28_" class="st19" d="M743.3-233.3c0,0,1.1,7.2,0.4,8.3c-0.7,1.1-7.1,5-7.1,5s5.5-2.1,7.9-4.8
				C746-226.5,743.3-233.3,743.3-233.3z"/>
			<g id="XMLID_85_">
				<g id="XMLID_86_">
					<path id="XMLID_27_" class="st7" d="M734.4-162.2c0,0-2.9,4.8-0.4,11.9C734-150.3,740.4-155.8,734.4-162.2z"/>
					<path id="XMLID_26_" class="st8" d="M732.7-157.7c0,0-5.4-0.9-9.9,0.2c-2.5,0.6-4.6,3.2-4,5.9c0.4,2,2.4,3.6,4.4,3.6
						c0.7,0,1.6-0.3,1.9-0.9c0.1-0.3,0.1-0.6,0.2-0.8c0.3-1.1,1.6-1.7,2.7-1.8c1.2-0.1,2.7,0.3,3.9,0c0.6-0.1,2.4-1.2,2.4-1.9
						C734.2-153.9,732.7-157.7,732.7-157.7z"/>
					<g id="XMLID_95_">
						<g id="XMLID_317_">
							<path id="XMLID_318_" class="st8" d="M776.7-150.2c1.5-1.8,2.2-0.6,0.5-3.5c-1.5-2.5-4.8-6.8-4.8-6.8
								c-14.2,1.6-23.9,0.3-33.9,1.4c-15.8,1.7-6.1,6.2-6.1,6.2C749.9-154,759.5-148.6,776.7-150.2z"/>
						</g>
					</g>
					<g id="XMLID_93_">
						<path id="XMLID_22_" class="st8" d="M774.7-153.1c-0.8,0.7-0.9,1.1-3.6,0.9c-2.1-0.2-2.5-2-3.1-3.6
							c-8.4-24.9-6.1-50.4-4.2-49.9c6.9,1.5,9.8,11.1,9.8,11.1s3.3,11.8,4.9,25.7c0.3,2.6,1.4,17.2-0.3,18.7
							C778.2-150.4,774.7-153.1,774.7-153.1z"/>
					</g>
					<g id="XMLID_91_">
						<path id="XMLID_20_" class="st9" d="M734.4-162.2c3.4,3.2,1.6,10.5-0.4,11.9c15.4-0.1,32.4,2.1,47.6,1.7
							c1.6-1.7,0.2-1.7-1.3-4.7c-1.3-2.6-5.6-9.9-5.6-9.9C761.7-162.8,745.4-161.2,734.4-162.2z"/>
					</g>
					<g id="XMLID_87_">
						<path id="XMLID_19_" class="st9" d="M774.7-153.1c-0.8,0.7-0.9,1.1-3.6,0.9c-2.1-0.2-2.7,0.6-3.3-1.1
							c-11.3-23.6-7.7-64,1.9-60.9c6.7,2.2,9.6,25.9,11.2,39.8c0.3,2.6,2.7,24.8,1,26.3C781.8-148.2,774.7-153.1,774.7-153.1z"/>
					</g>
				</g>
			</g>
		</g>
	</g>
	<g id="XMLID_21_">
		<g id="XMLID_75_">
			<rect id="XMLID_16_" x="807.9" y="-130.8" class="st20" width="5" height="107.6"/>
			<polygon id="XMLID_15_" class="st21" points="807.9,-23.2 805.5,-27.8 805.5,-130.8 807.9,-130.8 			"/>
		</g>
		<g id="XMLID_66_">
			<rect id="XMLID_13_" x="660.4" y="-130.8" class="st20" width="5" height="107.6"/>
			<polygon id="XMLID_11_" class="st21" points="660.4,-23.2 658,-27.8 658,-130.8 660.4,-130.8 			"/>
		</g>
		<rect id="XMLID_7_" x="628" y="-136.9" class="st20" width="215.2" height="8.2"/>
		<polygon id="XMLID_6_" class="st22" points="617.4,-141.6 832,-141.5 843.2,-136.9 628,-136.9 		"/>
		<polygon id="XMLID_5_" class="st23" points="628,-136.9 628,-128.8 617.4,-134.9 617.4,-141.6 		"/>
	</g>
	<g id="XMLID_10_">
		<polygon id="XMLID_4_" class="st10" points="692.5,-139.6 702.2,-136.2 735.3,-136.2 735.3,-141.1 693.6,-141.1 		"/>
		<polygon id="XMLID_3_" class="st24" points="685.4,-170.4 702.2,-136.2 702.1,-136.2 676,-139.2 658.2,-175.7 		"/>
		<polygon id="XMLID_2_" class="st25" points="688.3,-170.4 661.5,-176.3 658.2,-175.7 685.5,-169.8 		"/>
		<polygon id="XMLID_1_" class="st10" points="702.2,-136.2 685.5,-169.8 688.3,-170.4 705.1,-136.2 		"/>
	</g>
</g>
<g id="XMLID_12_">
	<g id="XMLID_170_">
		<path id="XMLID_100_" class="st26" d="M427.2,48.1c-6.5-9-17.3-13.8-28.2-16.1c-10.8-2.3-22-2.4-32.9-4c-3-0.4-6.1-1-8.6-2.6
			c-3.3-2.1-5.4-5.7-6.7-9.4c-2.9-8.1-2.1-16.9-2.8-25.3c-0.5-6.4-1.9-13-5.7-18.2c-12.5-17.2-48-17.6-63.3-4.4
			c-4.7,4.1-7.8,9.7-10.1,15.5c-9.6,24-5.3,51.6,6.6,73.9c13.2,24.7,37.8,40.9,64.1,48.7c25.3,7.5,58.8,10.8,79.8-8.6
			c2-1.9,3.8-3.9,5.5-6.1C434.4,79.2,436.4,60.7,427.2,48.1z"/>
	</g>
	<g id="XMLID_167_">
		<path id="XMLID_115_" class="st27" d="M345.5-21.6c-0.8-2.1-1.8-4-3.1-5.8c-4.4-6.1-11.7-10-20-12.1c-5.7-1-11.7-1.5-17.6-1.5
			c-0.7,0-1.4,0.1-2.1,0.2c-5.4,2.9-11.5,4.6-16.4,8.3c-3.3,2.4-6.8,8.2-2,11c3.7,2.1,9,1.7,13.1,1.4c4.2-0.3,8.3-1.1,12.5-1.7
			c8-1.2,16.7-2.1,24.3,1.2c2.6,1.1,4.6,3.1,6.9,4.8c0.7,0.5,2.4,1.2,3,1.9c0-0.1,0.1-0.1,0.1-0.2c0.1-1.2,0.8-2.7,1-3.8
			C345.3-19.1,345.4-20.4,345.5-21.6z"/>
	</g>
	<g id="XMLID_164_">
		<path id="XMLID_116_" class="st28" d="M427.2,48.1c-6.5-9-17.3-13.8-28.2-16.1c-10.8-2.3-22-2.4-32.9-4c-3-0.4-6-1-8.6-2.6
			c-9.3,3.1-20.2,3.4-26.9,11.2c-4.1,4.7-5.7,9.5-2.1,15c0.4,0.6,0.8,1.2,1.3,1.7c4.7,6,11.8,9.6,19.3,10.5c1.1,0.1,2.1,0.2,3.2,0.4
			c9.5,1.1,21.2,2.4,27.6,10.6c7.4,9.4,3,23.1-1.8,32.6c-0.8,1.6-1.7,3.2-2.6,4.8c16.2,0.2,32.1-3.5,44-14.5c2-1.9,3.8-3.9,5.5-6.1
			C434.4,79.2,436.4,60.7,427.2,48.1z"/>
	</g>
	<g id="XMLID_14_">
		<path id="XMLID_163_" class="st5" d="M367.6,30.1c27.4,2,55.9,2.6,62.5,5.6c6,2.8-1.7,13.1-1.7,13.1s-52.2,4.4-60.9,5.4
			C362.6,54.8,362.3,29.7,367.6,30.1z"/>
		<path id="XMLID_162_" class="st5" d="M419.5,98.2c-0.4-12.6,1.5-63.6,1.5-63.6s12-1.7,13.7,7c0.9,4.5-5.5,43.8-8.1,56.8
			L419.5,98.2z"/>
		<path id="XMLID_161_" class="st1" d="M444.2,104l-17.6-5.5l-7.2-0.3l-0.3,8.2l12.4,0.5C446.1,107.6,444.2,104,444.2,104z"/>
		<path id="XMLID_160_" class="st6" d="M353.1,29.3c26,8.8,53.5,16.5,59.1,21.1c5.1,4.2-5,12.3-5,12.3s-47.5-5.8-55.5-9.3
			C337.4,47.1,348.1,27.6,353.1,29.3z"/>
		<path id="XMLID_159_" class="st6" d="M388.5,104.8c2.3-11.6,15.1-57.7,15.1-57.7s12,1.8,11.8,10.2c-0.1,4.4-14.7,38.5-20.1,49.7
			L388.5,104.8z"/>
		<path id="XMLID_158_" class="st1" d="M411.1,116.9l-15.9-9.9l-6.9-2.3l-2,7.4l11.9,3.9C412.2,120.7,411.1,116.9,411.1,116.9z"/>
		<g id="XMLID_147_">
			<path id="XMLID_157_" class="st7" d="M413.5,13.2c0,0,0.8,5.1-3.8,10.2C409.7,23.4,406.2,16.6,413.5,13.2z"/>
			<g id="XMLID_148_">
				<path id="XMLID_156_" class="st8" d="M413.4,17.7c0,0,4.9,1.1,8.3,3.6c1.9,1.4,2.8,4.3,1.4,6.4c-1.1,1.5-3.2,2.2-5,1.5
					c-0.6-0.3-1.3-0.8-1.3-1.4c0-0.3,0.1-0.5,0.1-0.8c0.1-1-0.7-2-1.7-2.5s-2.4-0.7-3.3-1.3c-0.4-0.3-1.6-1.8-1.4-2.4
					C410.8,20.4,413.4,17.7,413.4,17.7z"/>
				<g id="XMLID_151_">
					<g id="XMLID_299_">
						<path id="XMLID_305_" class="st8" d="M373.6,8.7c-0.6-2-1.7-1.3,0.8-3.1c2.1-1.6,6.4-4.1,6.4-4.1c11.5,6.3,20,8.6,28.1,13
							c12.7,6.9,3,7.4,3,7.4C397.6,14.9,387.6,16,373.6,8.7z"/>
					</g>
				</g>
				<g id="XMLID_149_">
					<path id="XMLID_150_" class="st9" d="M413.5,13.2c-3.9,1.5-5,8.3-3.8,10.2c-12.9-5.4-28.1-9.5-40.8-15.1
						c-0.8-2,0.4-1.5,2.8-3.5c2-1.7,6.9-4.5,6.9-4.5C389.4,5.3,403.9,10.4,413.5,13.2z"/>
				</g>
			</g>
		</g>
		<polygon id="XMLID_146_" class="st10" points="383.4,-55.6 370.3,-58.6 365.9,-44.3 379.2,-41.9 		"/>
		<path id="XMLID_145_" class="st10" d="M387.2,16.4L353,13.3c0.9-15.6,0.7-53.9,4.5-56.6c9.9-7,20.1-5.9,27.6,0.1
			C387.9-40.8,388,0.1,387.2,16.4z"/>
		<path id="XMLID_144_" class="st8" d="M384.2,1"/>
		<path id="XMLID_143_" class="st11" d="M386.1,31.8c2-20.7,8.2-59.6,3.7-68.9c-1.6-3.3-4.8-8.3-9.8-9.6c0.1,0.1,0.3,0.1,0.4,0.2
			c0.8,2.1-0.6,5.1-4.8,4.8c-1.9-0.2-4.5-1.1-7.1-3.5c-1.2-1.1-1.4-2.6-1.5-3c-4,0.5-12.8,2.3-15.5,5c-3.1,3-4.6,56.7-5.7,75.4
			l24.3,2.7C382.7,35,383.9,33.4,386.1,31.8z"/>
		<path id="XMLID_142_" class="st12" d="M384.2,1c-0.8,10.5-2.3,23.5-3.5,33.3c4.6-1,5.8-2.9,8.3-5.1c2.7-23.3,6.1-54.6,1.8-66.2
			c-1.6-4.2-4.6-6.6-8.1-8.6C382.7-45.6,385.5-16,384.2,1z"/>
		<path id="XMLID_141_" class="st13" d="M383.6,8.1c2-3.2,6.6-14.3,6.6-14.3l-3.8-14.4l1.7-20.9l-4.3-3.5c0,0-0.7-0.5-1.1-0.7
			c0,0,2.9,29.6,1.5,46.6C384,3.3,383.8,5.7,383.6,8.1z"/>
		<path id="XMLID_140_" class="st12" d="M366.1-43.4c-0.4-1.4-0.5-2.9,0.3-4V-48c-4.3,0.7-13.5,0.7-15,5.6
			c-1.4,4.4-8.2,68.2-9.4,89.1l26.9,2.2l3.9-44.7l0.2-26L366.1-43.4z"/>
		<path id="XMLID_139_" class="st14" d="M352.8,31.4"/>
		<path id="XMLID_138_" class="st15" d="M378.2-40.3L378.2-40.3c1.2-0.1,2.3,0.4,2.9,1.4l0.9,1.3c0,0-0.5,3.7-1.7,4
			c-0.4,0.1-0.9,0.1-1.3,0.1c-0.7-0.1-1.4-0.5-1.8-1l-2.1-2.9l0.8-1.4C376.4-39.6,377.2-40.2,378.2-40.3z"/>
		<path id="XMLID_137_" class="st15" d="M381.3,17.9l-0.7-52.6l-2.8-0.2L374,17.3l1.9,9.8c0.4,1.9,2.2,1.9,2.7,0L381.3,17.9z"/>
		<g id="XMLID_134_">
			<path id="XMLID_136_" class="st16" d="M381.1-48.4l-1.9,5l2.8,5.8c0,0,2.7-5.4,2.1-7C384-44.7,383.1-47.2,381.1-48.4z"/>
			<polygon id="XMLID_135_" class="st17" points="379.2,-43.5 378.5,-42 382,-37.7 			"/>
		</g>
		<path id="XMLID_133_" class="st13" d="M365.4-49.3l-7.1,2.5l12,23l-1.6,19.3l3.7,14.3c0,0,3.6-16.6,1.9-30.2
			C372.6-34.1,371.3-42,365.4-49.3z"/>
		<path id="XMLID_132_" class="st16" d="M367.4-51.6l-3.5,4c0,0,6.2,7.8,11.1,11.4l3.6-7.1C378.5-43.2,373.5-46.6,367.4-51.6z"/>
		<g id="XMLID_128_">
			<path id="XMLID_152_" class="st10" d="M386.2-84.5c-4-0.6-8.2,0-10.6,1.8c-5.8,4.5-4.2,11.7-5,18.3c-0.1,1.2-0.3,4.3-1,8.2
				c-0.1,0.7,1-0.8,1.6-0.5c5.2,2,8.3,5,13.5,7c1.4,0.5,3.6,1.9,4.7,0.9c0.6-0.5,1-1.7,1.2-2.5c1.3-4.4,3.3-9.6,4.3-13.6
				c0.6-2.7,1.3-5.4,1.5-8.2c0.2-2.2,0-4.6-1.1-6.5C393.8-82.3,390.1-83.9,386.2-84.5z"/>
		</g>
		<g id="XMLID_122_">
			<path id="XMLID_166_" class="st18" d="M369.5-61.1c0.4,0.2,0.8,0.1,1.4-0.3c0.8-0.5,1.9-1.6,2.2-2.5c0.4-1.3-0.5-2.8-0.5-4.2
				c0-0.9,0.2-1.9,0.9-2.6c0.7-0.7,1.9-0.8,2.5-0.1c0.4,0.5,0.5,1.3,1,1.7c0.5,0.4,1.2,0.2,1.7-0.1c0.5-0.3,0.8-0.8,1.2-1.3
				c1-1.1,2.4-2,4-2.1c0.9-0.1,1.7,0.1,2.6,0.2c2.5,0.3,5-0.2,7.2-1.4c2.9-1.5,5.9-4.1,6.2-7.6c-1.8,0.8-3.9-0.3-5.6-1.3
				c-2.3-1.4-4.8-2.7-7.4-3.2c-2.7-0.5-6.5-0.8-8.7,0.8c-0.5,0.3-0.9,0.7-1.4,1c-1.2,0.5-1.6,0.7-2.8,1.1c-1.8,0.5-2.9,2.5-3.5,4.3
				c-1.3,3.4-1.9,7-2.1,10.7C368.3-66.9,368-61.8,369.5-61.1z"/>
		</g>
		<path id="XMLID_121_" class="st10" d="M395.2-67c0.2,3.8,0.5,5.2,1,7.7c0.1,0.6-0.3,1.1-0.9,1.2c-1.1,0-2.3-0.1-3.2-0.2"/>
		<path id="XMLID_120_" class="st19" d="M376.9-62.8c0,0-1,6.6-0.4,7.6s6.4,4.6,6.4,4.6s-5-1.9-7.2-4.4
			C374.4-56.5,376.9-62.8,376.9-62.8z"/>
		<g id="XMLID_98_">
			<g id="XMLID_101_">
				<path id="XMLID_119_" class="st7" d="M386.1,22.8c0,0,0.5,5.1-4.3,10C381.8,32.8,378.6,25.8,386.1,22.8z"/>
				<path id="XMLID_118_" class="st8" d="M385.7,27.3c0,0,4.8,1.3,8.1,4.1c1.8,1.5,2.6,4.4,1,6.4c-1.1,1.5-3.3,2-5,1.2
					c-0.6-0.3-1.2-0.8-1.2-1.5c0-0.3,0.1-0.5,0.2-0.8c0.2-1-0.6-2-1.5-2.6c-1-0.6-2.3-0.8-3.2-1.5c-0.4-0.3-1.5-1.9-1.3-2.5
					C383,29.8,385.7,27.3,385.7,27.3z"/>
				<g id="XMLID_113_">
					<g id="XMLID_310_">
						<path id="XMLID_313_" class="st8" d="M346.5,16.2c-0.5-2-1.6-1.3,1-3.1c2.2-1.5,6.6-3.7,6.6-3.7c11.1,6.9,19.5,9.6,27.4,14.4
							c12.3,7.5,2.6,7.5,2.6,7.5C370.1,23.6,360.1,24.3,346.5,16.2z"/>
					</g>
				</g>
				<g id="XMLID_110_">
					<path id="XMLID_111_" class="st8" d="M348.2,10.4c0.7,0.7,0.8,1,3.3,0.8c2-0.2,2.3-1.8,2.8-3.3c7.6-22.7,5.6-45.9,3.8-45.6
						c-6.3,1.4-9,10.1-9,10.1s-3,10.7-4.5,23.4c-0.3,2.3-1.3,15.7,0.3,17.1C345.1,12.9,348.2,10.4,348.2,10.4z"/>
				</g>
				<g id="XMLID_108_">
					<path id="XMLID_109_" class="st9" d="M386.1,22.8c-4,1.3-5.4,8-4.3,10c-12.6-6.1-27.5-11-40-17.2c-0.7-2,0.5-1.4,3-3.4
						c2.1-1.6,8.5-6,8.5-6C363.8,11.7,376.6,19.4,386.1,22.8z"/>
				</g>
				<g id="XMLID_104_">
					<path id="XMLID_105_" class="st9" d="M348.2,10.4c0.7,0.7,0.8,1,3.3,0.8c2-0.2,2.5,0.5,3.1-1c10.3-21.5,7-58.4-1.7-55.6
						c-6.1,2-8.8,23.6-10.3,36.3c-0.3,2.3-2.5,22.6-0.9,24C341.7,14.9,348.2,10.4,348.2,10.4z"/>
				</g>
			</g>
		</g>
		<polygon id="XMLID_25_" class="st10" points="414.2,40.7 405.4,43.7 375.1,43.7 375.1,39.3 413.2,39.3 		"/>
		<polygon id="XMLID_24_" class="st24" points="420.7,12.5 405.4,43.7 405.4,43.7 431.1,37.2 445.6,7.7 		"/>
		<polygon id="XMLID_18_" class="st25" points="418.1,12.5 442.5,7.2 445.6,7.7 420.6,13.1 		"/>
		<polygon id="XMLID_17_" class="st10" points="405.4,43.7 420.6,13.1 418.1,12.5 402.7,43.7 		"/>
	</g>
</g>
<g id="XMLID_96_">
	<ellipse id="XMLID_271_" class="st29" cx="667.9" cy="313.6" rx="124.3" ry="25.7"/>
	<g id="XMLID_353_">
		<g id="XMLID_354_">
			<g id="XMLID_370_">
				<polygon id="XMLID_270_" class="st1" points="602.2,267.7 589,309.5 597,266.4 				"/>
				<polygon id="XMLID_269_" class="st1" points="619.7,260.5 606.5,302.3 614.5,259.2 				"/>
				<polygon id="XMLID_268_" class="st1" points="634.7,266.4 642.7,309.5 629.5,267.7 				"/>
				<polygon id="XMLID_267_" class="st1" points="640.1,253.3 648.1,296.4 634.9,254.6 				"/>
				<polygon id="XMLID_266_" class="st2" points="581.4,191.9 590.8,191.9 621.4,187.3 607.6,187.9 				"/>
				<polygon id="XMLID_265_" class="st3" points="590.8,191.9 581.4,191.9 589,262.1 598.4,262.1 				"/>
				<polygon id="XMLID_264_" class="st4" points="590.8,191.9 620,187.3 620.6,262.1 598.4,262.1 				"/>
				<path id="XMLID_263_" class="st3" d="M634.9,268.7h-39.4c-3.6,0-6.6-2.9-6.6-6.6l0,0c0-3.6,2.9-6.6,6.6-6.6h39.4
					c3.6,0,6.6,2.9,6.6,6.6l0,0C641.4,265.7,638.5,268.7,634.9,268.7z"/>
				<g id="XMLID_371_">
					<path id="XMLID_262_" class="st5" d="M618.9,235.1c22.8,4.5,47.4,10.3,52.6,13.5c4.7,3-2.8,10.8-2.8,10.8s-44.2-1.7-51.6-1.8
						C613.1,257.6,614.6,234.2,618.9,235.1z"/>
					<path id="XMLID_261_" class="st5" d="M660.4,297.8c0-10,2.7-50.7,2.7-50.7s10.1-1.2,11.4,5.8c0.7,3.6-5.6,34.8-8.1,45.2
						L660.4,297.8z"/>
					<path id="XMLID_260_" class="st1" d="M681.1,302.7l-14.7-4.6l-6.1-0.3l-0.4,6.5l10.4,0.6C682.6,305.6,681.1,302.7,681.1,302.7z
						"/>
					<path id="XMLID_259_" class="st6" d="M605.9,236.5c22,7.5,43.4,17.9,48.1,21.8c4.3,3.6-4.2,10.4-4.2,10.4s-37.9-7.9-44.6-10.9
						C593.1,252.5,601.7,235.1,605.9,236.5z"/>
					<path id="XMLID_258_" class="st6" d="M640.4,305.7c0.3-10,4.2-50.1,4.2-50.1s10.2-0.2,11.3,6.8c0.6,3.7-6.7,34.1-9.5,44.2
						L640.4,305.7z"/>
					<path id="XMLID_257_" class="st1" d="M661,312.5l-14.6-5.9l-6.1-0.9l-0.6,6.5l10.4,1.5C662.4,315.5,661,312.5,661,312.5z"/>
					<g id="XMLID_412_">
						<path id="XMLID_256_" class="st7" d="M654.3,213.9c0,0,0.7,4.3-3.2,8.6C651.1,222.4,648.1,216.7,654.3,213.9z"/>
						<g id="XMLID_413_">
							<path id="XMLID_255_" class="st8" d="M654.2,217.6c0,0,4.1,0.9,7,3.1c1.6,1.2,2.4,3.6,1.2,5.4c-0.9,1.3-2.7,1.8-4.2,1.3
								c-0.5-0.2-1.1-0.6-1.1-1.2c0-0.2,0.1-0.4,0.1-0.7c0.1-0.9-0.6-1.7-1.4-2.1c-0.8-0.4-2-0.6-2.7-1.1c-0.4-0.3-1.3-1.5-1.2-2
								C652,219.9,654.2,217.6,654.2,217.6z"/>
							<g id="XMLID_416_">
								<g id="XMLID_312_">
									<path id="XMLID_319_" class="st8" d="M620.6,210c-0.5-1.7-1.4-1.1,0.7-2.6c1.8-1.3,5.4-3.4,5.4-3.4
										c9.7,5.3,16.9,7.2,23.7,10.9c10.7,5.8,2.5,6.2,2.5,6.2C640.9,215.2,632.4,216.2,620.6,210z"/>
								</g>
							</g>
							<g id="XMLID_414_">
								<path id="XMLID_253_" class="st9" d="M654.3,213.9c-3.3,1.3-4.2,7-3.2,8.6c-10.9-4.6-23.7-8-34.4-12.7
									c-0.7-1.7,0.4-1.2,2.3-3c1.7-1.5,5.8-3.8,5.8-3.8C633.9,207.1,646.1,211.4,654.3,213.9z"/>
							</g>
						</g>
					</g>
					<polygon id="XMLID_252_" class="st10" points="631.7,161.7 620.6,159.2 616.9,171.2 628.1,173.3 					"/>
					<path id="XMLID_251_" class="st10" d="M634.8,222.4l-28.9-2.6c0.8-13.2,0.6-45.5,3.8-47.7c8.4-5.9,16.9-5,23.3,0.1
						C635.5,174.2,635.6,208.7,634.8,222.4z"/>
					<path id="XMLID_250_" class="st8" d="M632.4,209.5"/>
					<path id="XMLID_249_" class="st11" d="M634,235.4c1.7-17.5,6.9-50.3,3.2-58.1c-1.3-2.7-4-7-8.2-8.1c0.1,0.1,0.2,0.1,0.4,0.2
						c0.7,1.8-0.5,4.3-4.1,4c-1.6-0.1-3.8-0.9-6-2.9c-1-0.9-1.2-2.2-1.3-2.5c-3.4,0.4-10.8,1.9-13.1,4.2c-2.6,2.6-3.9,47.8-4.8,63.6
						l20.5,2.3C631.1,238.1,632.1,236.8,634,235.4z"/>
					<path id="XMLID_248_" class="st12" d="M632.4,209.5c-0.7,8.9-1.9,19.8-2.9,28.1c3.9,0.5,3.1,0.8,5.7,1.5
						c0.5,0.1,0.8-0.6,0.9-1.1c2.3-19.7,5.5-51,1.8-60.6c-1.3-3.6-3.9-5.6-6.8-7.3C631.1,170.2,633.5,195.1,632.4,209.5z"/>
					<path id="XMLID_247_" class="st13" d="M631.8,215.5c1.7-2.7,5.6-12,5.6-12l-3.2-12.1l1.4-17.6l-3.6-2.9c0,0-0.6-0.4-1-0.6
						c0,0,2.4,24.9,1.3,39.3C632.2,211.4,632,213.4,631.8,215.5z"/>
					<path id="XMLID_246_" class="st12" d="M617.1,171.9c-0.3-1.2-0.4-2.4,0.3-3.4V168c-3.6,0.6-11.4,0.6-12.7,4.7
						c-1.1,3.7-6.9,57.5-7.9,75.2l22.7,1.9l3.3-37.7l0.2-22L617.1,171.9z"/>
					<path id="XMLID_245_" class="st14" d="M605.9,235.1"/>
					<path id="XMLID_244_" class="st15" d="M627.3,174.6L627.3,174.6c1-0.1,1.9,0.3,2.5,1.1l0.7,1.1c0,0-0.4,3.1-1.4,3.4
						c-0.4,0.1-0.8,0.1-1.1,0.1c-0.6-0.1-1.2-0.4-1.5-0.9l-1.8-2.4l0.7-1.2C625.7,175.2,626.5,174.7,627.3,174.6z"/>
					<path id="XMLID_243_" class="st15" d="M629.9,223.7l-0.6-44.3l-2.4-0.2l-3.2,44l1.6,8.2c0.3,1.6,1.8,1.6,2.3,0L629.9,223.7z"/>
					<g id="XMLID_399_">
						<path id="XMLID_242_" class="st16" d="M629.8,167.8l-1.6,4.2l2.3,4.9c0,0,2.3-4.6,1.8-5.9
							C632.2,170.9,631.4,168.8,629.8,167.8z"/>
						<polygon id="XMLID_241_" class="st17" points="628.1,171.9 627.6,173.2 630.5,176.8 						"/>
					</g>
					<path id="XMLID_240_" class="st13" d="M616.5,167l-6,2.1l10.1,19.4l-1.3,16.3l3.1,12c0,0,3-14,1.6-25.5S621.5,173.1,616.5,167z
						"/>
					<path id="XMLID_239_" class="st16" d="M618.2,165.1l-3,3.4c0,0,5.2,6.6,9.3,9.6l3-5.9C627.5,172.1,623.3,169.3,618.2,165.1z"/>
					<g id="XMLID_238_">
						<path id="XMLID_281_" class="st10" d="M634.1,137.3c-3.4-0.5-6.9,0-9,1.5c-4.9,3.8-3.6,9.9-4.2,15.5c-0.1,1-0.3,3.6-0.9,6.9
							c-0.1,0.6,0.8-0.6,1.4-0.4c4.4,1.7,7,4.2,11.4,5.9c1.2,0.5,3.1,1.6,4,0.7c0.5-0.5,0.8-1.5,1-2.1c1.1-3.7,2.8-8.1,3.6-11.5
							c0.5-2.3,1.1-4.6,1.3-6.9c0.1-1.9,0-3.9-1-5.5C640.4,139.2,637.3,137.8,634.1,137.3z"/>
					</g>
					<g id="XMLID_237_">
						<path id="XMLID_277_" class="st18" d="M620,157c0.3,0.1,0.7,0.1,1.2-0.3c0.7-0.5,1.6-1.3,1.9-2.1c0.3-1.1-0.4-2.4-0.4-3.5
							c0-0.8,0.2-1.6,0.7-2.2c0.6-0.6,1.6-0.7,2.1-0.1c0.4,0.4,0.4,1.1,0.9,1.4c0.4,0.3,1,0.2,1.4-0.1c0.4-0.3,0.7-0.7,1-1.1
							c0.9-1,2.1-1.7,3.3-1.7c0.7,0,1.4,0.1,2.2,0.2c2.1,0.2,4.2-0.2,6.1-1.2c2.5-1.3,5-3.4,5.2-6.4c-1.5,0.7-3.3-0.2-4.7-1.1
							c-2-1.2-4-2.3-6.3-2.7c-2.2-0.5-5.5-0.7-7.4,0.6c-0.4,0.3-0.8,0.6-1.2,0.8c-1,0.4-1.3,0.6-2.4,0.9c-1.6,0.4-2.4,2.1-3,3.6
							c-1.1,2.9-1.6,5.9-1.7,9C619,152.1,618.6,156.4,620,157z"/>
					</g>
					<path id="XMLID_236_" class="st10" d="M641.6,152c0.2,3.2,0.4,4.4,0.8,6.5c0.1,0.5-0.2,1-0.7,1c-0.9,0-2-0.1-2.7-0.1"/>
					<path id="XMLID_235_" class="st19" d="M626.2,155.6c0,0-0.8,5.6-0.3,6.4s5.4,3.9,5.4,3.9s-4.2-1.6-6.1-3.7
						C624.1,160.9,626.2,155.6,626.2,155.6z"/>
					<g id="XMLID_372_">
						<g id="XMLID_373_">
							<path id="XMLID_234_" class="st7" d="M633,210.4c0,0,2.3,3.7,0.3,9.2C633.3,219.5,628.4,215.3,633,210.4z"/>
							<path id="XMLID_233_" class="st8" d="M634.3,213.9c0,0,4.2-0.7,7.6,0.2c1.9,0.5,3.6,2.4,3.1,4.5c-0.3,1.5-1.8,2.8-3.4,2.8
								c-0.6,0-1.2-0.2-1.4-0.7c-0.1-0.2-0.1-0.4-0.2-0.6c-0.2-0.9-1.2-1.3-2.1-1.4c-0.9-0.1-2.1,0.2-3,0c-0.4-0.1-1.8-0.9-1.9-1.4
								C633.2,216.8,634.3,213.9,634.3,213.9z"/>
							<g id="XMLID_382_">
								<g id="XMLID_304_">
									<path id="XMLID_306_" class="st8" d="M600.4,219.6c-1.1-1.4-1.7-0.4-0.4-2.7c1.1-1.9,3.7-5.2,3.7-5.2
										c11,1.2,18.4,0.2,26.1,1.1c12.1,1.3,4.7,4.8,4.7,4.8C621.1,216.7,613.7,220.9,600.4,219.6z"/>
								</g>
							</g>
							<g id="XMLID_380_">
								<path id="XMLID_231_" class="st8" d="M602,217.4c0.6,0.6,0.7,0.9,2.8,0.7c1.7-0.1,1.9-1.5,2.4-2.8
									c6.5-19.2,4.7-38.8,3.2-38.4c-5.3,1.2-7.6,8.5-7.6,8.5s-2.5,9.1-3.8,19.8c-0.2,2-1.1,13.3,0.2,14.4
									C599.3,219.5,602,217.4,602,217.4z"/>
							</g>
							<g id="XMLID_378_">
								<path id="XMLID_230_" class="st9" d="M633,210.4c-2.6,2.4-1.2,8,0.3,9.2c-11.8-0.1-25,1.6-36.7,1.3c-1.2-1.3-0.1-1.3,1-3.6
									c1-2,4.3-7.6,4.3-7.6C612,210,624.6,211.2,633,210.4z"/>
							</g>
							<g id="XMLID_374_">
								<path id="XMLID_229_" class="st9" d="M602,217.4c0.6,0.6,0.7,0.9,2.8,0.7c1.7-0.1,2.1,0.4,2.6-0.8
									c8.7-18.1,5.9-49.3-1.5-46.9c-5.2,1.7-7.4,19.9-8.7,30.7c-0.2,2-2.1,19.1-0.7,20.2C596.5,221.2,602,217.4,602,217.4z"/>
							</g>
						</g>
					</g>
				</g>
			</g>
			<g id="XMLID_360_">
				<g id="XMLID_367_">
					<rect id="XMLID_228_" x="572.6" y="234.6" class="st20" width="3.8" height="82.8"/>
					<polygon id="XMLID_227_" class="st21" points="576.5,317.4 578.3,313.9 578.3,234.6 576.5,234.6 					"/>
				</g>
				<g id="XMLID_364_">
					<rect id="XMLID_226_" x="686.2" y="234.6" class="st20" width="3.8" height="82.8"/>
					<polygon id="XMLID_225_" class="st21" points="690,317.4 691.8,313.9 691.8,234.6 690,234.6 					"/>
				</g>
				<rect id="XMLID_224_" x="549.2" y="229.9" class="st20" width="165.7" height="6.3"/>
				<polygon id="XMLID_223_" class="st22" points="723.1,226.2 557.9,226.3 549.2,229.9 715,229.9 				"/>
				<polygon id="XMLID_222_" class="st23" points="715,229.9 715,236.2 723.1,231.4 723.1,226.2 				"/>
			</g>
			<g id="XMLID_355_">
				<polygon id="XMLID_221_" class="st30" points="665.2,227.8 657.8,230.4 632.3,230.4 632.3,226.7 664.4,226.7 				"/>
				<polygon id="XMLID_220_" class="st24" points="670.7,204.1 657.8,230.4 657.9,230.4 678,228.1 691.7,200 				"/>
				<polygon id="XMLID_219_" class="st25" points="668.5,204.1 689.1,199.5 691.7,200 670.7,204.5 				"/>
				<polygon id="XMLID_218_" class="st30" points="657.8,230.4 670.7,204.5 668.5,204.1 655.6,230.4 				"/>
			</g>
		</g>
	</g>
	<g id="XMLID_102_">
		<g id="XMLID_103_">
			<g id="XMLID_180_">
				<g id="XMLID_335_">
					<path id="XMLID_217_" class="st7" d="M712.8,169.8c0,0-5.3,4.3-4.1,9.7C708.7,179.4,712.8,176.4,712.8,169.8z"/>
					<g id="XMLID_336_">
						<path id="XMLID_216_" class="st8" d="M709.8,173.9c0,0-0.1-4-7.4-4.9c0,0-0.5,0.9,2,2.3c1.8,1,3.3,1.9,4.3,2.3
							C709.2,173.7,709.6,173.9,709.8,173.9z"/>
						<path id="XMLID_215_" class="st8" d="M708.3,177c0,0-4-0.1-7.1-1.7c-3.1-1.5-3.4-3.3-3.4-4.3c0-0.7,0.1-2.8,1.2-2.1
							s6.7,2.1,8.1,2.6c1.4,0.5,2.9,2.3,2.9,2.6C710,174.6,708.3,177,708.3,177z"/>
						<g id="XMLID_345_">
							<g id="XMLID_320_">
								<path id="XMLID_321_" class="st8" d="M739.4,184.5c1.3-1.1,1.7-0.1,0.8-2.5c-0.7-2-2.4-5.6-2.4-5.6
									c-10.5-0.9-20.9-1-27.9-3.6c-7.8-2.9-4,3.1-4,3.1C714,180.5,726.7,183.2,739.4,184.5z"/>
							</g>
						</g>
						<g id="XMLID_343_">
							<path id="XMLID_213_" class="st8" d="M739.2,180.1c-0.7,0.4-0.8,0.6-2.7-0.1c-1.5-0.6-1.3-1.9-1.4-3.2
								c-0.8-19.3,6.1-36.7,7.4-36c4.5,2.5,4.6,9.8,4.6,9.8s-0.1,9-1.9,19.1c-0.3,1.9-2.6,12.4-4.1,13.1L739.2,180.1z"/>
						</g>
						<g id="XMLID_341_">
							<path id="XMLID_212_" class="st9" d="M712.8,169.8c-0.5,1.7-2.5,8.8-4.1,9.7c8.1,3.6,23.3,5.3,34.4,6.5
								c1.3-1.1,0.4-2-0.4-4.4c-0.7-2-3-5.9-3-5.9C730.1,174.8,719.7,171.7,712.8,169.8z"/>
						</g>
						<g id="XMLID_337_">
							<path id="XMLID_211_" class="st9" d="M739.2,180.1c-0.7,0.4-0.8,0.6-2.7-0.1c-1.5-0.6-2-0.2-2.1-1.5
								c-1.5-15.5,6.8-45.4,12.9-41.3c4.3,2.9,0.8,14.4,0.8,14.4s0.3,8-1.4,18.1c-0.3,1.9-1.7,14.9-3.2,15.6
								C743.4,185.3,739.2,180.1,739.2,180.1z"/>
						</g>
					</g>
				</g>
				<rect id="XMLID_210_" x="752.6" y="122.6" class="st10" width="11.8" height="12.6"/>
				<path id="XMLID_209_" class="st5" d="M743.2,204.4c-4.5,24.4-4.7,49.9-3.6,56.3c1.1,5.9,7.7,0.8,7.7,0.8s10.2-42.8,13-50.1
					C762,207.3,744.1,199.7,743.2,204.4z"/>
				<path id="XMLID_208_" class="st6" d="M753.7,205.1c5.3,30.3,8.2,49.6,9.4,56c1.1,5.9,10.4,3,10.4,3s-1.5-51.1,1.4-58.4
					C776.5,201.6,752.9,200.4,753.7,205.1z"/>
				<path id="XMLID_207_" class="st10" d="M742.2,188.3l31-0.2c0.4-14.1,3.4-48.6,0.2-51.3c-8.4-7-17.6-6.8-24.8-2
					C745.8,136.7,742.6,173.6,742.2,188.3z"/>
				<path id="XMLID_206_" class="st8" d="M746,174.7"/>
				<path id="XMLID_205_" class="st11" d="M743.7,140c1.7-2.8,4.9-7.1,9.5-7.9c-0.1,0-0.3,0.1-0.4,0.2c-0.9,1.8,0.1,4.6,4,4.6
					c1.8,0,4.1-0.6,6.7-2.6c1.2-0.9,1.4-2.3,1.6-2.6c3.6,0.8,11.4,3,13.6,5.6c2.6,3-0.1,51.4-0.5,68.3H742
					C742.1,188.1,738.7,148.5,743.7,140z"/>
				<path id="XMLID_204_" class="st12" d="M742.9,140c1.8-3.7,4.6-5.6,7.9-7.2c0,0-4.8,26.4-4.8,41.8c-0.1,17.8,1.2,43.4,1.2,43.4
					H740C740.1,200.6,736.4,153.6,742.9,140z"/>
				<path id="XMLID_203_" class="st13" d="M746,181.1c-1.5-3.1-4.9-13.3-4.9-13.3l4.5-12.7v-19l4.1-2.8c0,0,0.7-0.4,1.1-0.5
					c0,0-4.8,26.4-4.8,41.8C746,176.7,746,178.9,746,181.1z"/>
				<path id="XMLID_202_" class="st12" d="M765.6,136c0.4-1.2,0.6-2.6,0-3.6v-0.5c3.8,1,12.1,1.7,13.1,6.2c0.9,4.1,2.3,62,1.8,80.9
					h-24.4l-0.2-40.5l1.7-23.4L765.6,136z"/>
				<path id="XMLID_201_" class="st14" d="M775.9,201.8"/>
				<path id="XMLID_200_" class="st6" d="M773.6,306.3c0.5-9.7-0.1-42.2-0.1-42.2s-10.1-8.8-10.6-4c-0.3,3.6,2.7,35.6,4.1,45.8
					L773.6,306.3z"/>
				<path id="XMLID_199_" class="st5" d="M751.8,305c0.7-9.7-3.1-50.1-3.1-50.1s-8.4,1-9,5.9c-0.4,3.6,3.7,34,5.7,44.2L751.8,305
					L751.8,305z"/>
				<path id="XMLID_198_" class="st1" d="M729.3,308.6l16.1-3.6h6.5v6.4h-11.2C727.5,311.3,729.3,308.6,729.3,308.6z"/>
				<path id="XMLID_197_" class="st1" d="M756.7,311.6l7.1-3c1.3-0.5,2.7-1.2,3-2.6c0-0.1,0-0.1,0-0.2h6.8v5.3
					c-5.7,2.4-12.1,3.1-18.2,2.1C755.2,312.5,756,311.9,756.7,311.6z"/>
				<path id="XMLID_196_" class="st15" d="M754.5,137.9L754.5,137.9c-1-0.2-2.1,0.2-2.7,1l-0.9,1.1c0,0,0.2,3.3,1.2,3.8
					c0.4,0.2,0.8,0.2,1.2,0.2c0.7,0,1.3-0.3,1.7-0.8l2.1-2.4l-0.6-1.3C756.1,138.6,755.3,138.1,754.5,137.9z"/>
				<path id="XMLID_195_" class="st15" d="M747.3,190.1l4.6-47.3h2.6l-0.5,47.3l-2.4,8.7c-0.5,1.7-2.1,1.6-2.5-0.2L747.3,190.1z"/>
				<g id="XMLID_316_">
					<path id="XMLID_194_" class="st16" d="M752.4,130.4l1.4,4.6l-2.9,5c0,0-2-5.1-1.4-6.4C749.5,133.6,750.6,131.3,752.4,130.4z"/>
					<polygon id="XMLID_193_" class="st17" points="753.8,135 754.3,136.3 750.9,140 					"/>
				</g>
				<path id="XMLID_192_" class="st13" d="M766.6,130.8l6.2,2.7l-12.5,19.8v17.5l-4.4,12.6c0,0-2-15.2,0.5-27.3
					C759,143.9,760.8,136.9,766.6,130.8z"/>
				<path id="XMLID_191_" class="st16" d="M765,128.6l2.9,3.8c0,0-6.2,6.6-10.8,9.5l-2.7-6.6C754.4,135.3,759.2,132.6,765,128.6z"/>
				<g id="XMLID_188_">
					<path id="XMLID_280_" class="st10" d="M761.9,95c3.5,1.1,6.7,3.3,7.8,5.8c2.8,6-0.6,11.4-2.7,17.1c-0.4,1-2.1,2.6-2.7,5.7
						c-0.1,0.6-1,0.1-1.6,0c-5-0.5-8.7,0.7-13.8,0.2c-1.3-0.1-3.7,0.1-4.2-1.2c-0.3-0.7-0.1-1.8,0-2.5c0.7-4,1.2-9.1,2-12.7
						c0.6-2.4,1.2-4.9,2.1-7.2c0.8-1.9,1.8-3.7,3.6-4.8C754.9,93.8,758.5,93.9,761.9,95z"/>
				</g>
				<g id="XMLID_187_">
					<path id="XMLID_275_" class="st18" d="M765.9,120.7c-0.4,0-0.7-0.3-1-0.9c-0.4-0.8-0.9-2.1-0.8-3c0.2-1.2,1.6-2.1,2.1-3.2
						c0.4-0.8,0.6-1.6,0.4-2.5c-0.3-0.8-1.2-1.4-2-1.1c-0.6,0.2-0.9,0.8-1.5,0.9c-0.5,0.1-1.1-0.3-1.3-0.8c-0.3-0.5-0.3-1-0.5-1.5
						c-0.4-1.3-1.2-2.6-2.4-3.3c-0.7-0.4-1.4-0.6-2.2-0.9c-2.1-0.8-3.9-2.2-5.2-4c-1.7-2.4-3.1-5.7-2-8.6c1.1,1.4,3.3,1.3,5.1,1.2
						c2.4-0.2,4.9-0.2,7.3,0.4s5.6,2,6.7,4.2c0.2,0.5,0.4,1,0.8,1.4c0.7,0.9,1,1.2,1.8,2c1.3,1.2,1.3,3.1,1.1,4.9
						c-0.4,3.3-1.3,6.5-2.7,9.4C769.2,116.5,767.5,120.8,765.9,120.7z"/>
				</g>
				<path id="XMLID_185_" class="st10" d="M747.6,105.5c-1.7,3-2.5,4-3.9,5.8c-0.3,0.4-0.2,1,0.2,1.3c0.8,0.5,1.9,0.9,2.6,1.1"/>
				<path id="XMLID_184_" class="st19" d="M760.6,116.4c0,0-1.9,5.7-2.8,6.3c-0.9,0.6-7.1,1.1-7.1,1.1s4.8,0.5,7.6-0.6
					C760.1,122.5,760.6,116.4,760.6,116.4z"/>
				<g id="XMLID_182_">
					<path id="XMLID_181_" class="st7" d="M746.3,180.4c0,0-4.8,5.9-2.3,11.6C743.9,191.9,747.8,187.7,746.3,180.4z"/>
					<g id="XMLID_183_">
						<path id="XMLID_178_" class="st8" d="M744,185.6c0,0-1-4.4-9.2-3.8c0,0-0.3,1.1,2.7,2.1c2.2,0.7,4.1,1.3,5.3,1.6
							C743.3,185.6,743.7,185.6,744,185.6z"/>
						<path id="XMLID_175_" class="st8" d="M743,189.4c0,0-4.5,0.8-8.2-0.2s-4.5-2.8-4.7-3.9c-0.1-0.7-0.5-3.1,0.9-2.6
							c1.4,0.5,7.9,0.7,9.5,1c1.6,0.3,3.7,1.9,3.7,2.2C744.3,186.3,743,189.4,743,189.4z"/>
						<g id="XMLID_298_">
							<g id="XMLID_289_">
								<path id="XMLID_290_" class="st8" d="M778.9,190.6c1.2-1.5,1.8-0.5,0.4-2.9c-1.2-2-4-5.6-4-5.6c-11.7,1.4-23.2,3.6-31.5,2.4
									c-9.2-1.4-3.7,4.3-3.7,4.3C750,191.9,764.7,192,778.9,190.6z"/>
							</g>
						</g>
						<g id="XMLID_296_">
							<path id="XMLID_88_" class="st8" d="M777.7,185.8c-0.7,0.6-0.8,0.9-3,0.5c-1.8-0.3-1.9-1.8-2.3-3.2
								c-5.2-21-1.6-41.8-0.1-41.3c5.5,1.7,7.3,9.8,7.3,9.8s1.9,9.9,2.3,21.4c0.1,2.1,0,14.2-1.5,15.4
								C780.3,188.3,777.7,185.8,777.7,185.8z"/>
						</g>
						<g id="XMLID_294_">
							<path id="XMLID_82_" class="st9" d="M746.3,180.4c-0.1,1.9-0.8,10.2-2.3,11.6c9.7,2.1,26.9,0.5,39.3-0.7
								c1.2-1.5,0-2.3-1.5-4.7c-1.2-2-4.7-5.8-4.7-5.8C766.4,182,754.3,181,746.3,180.4z"/>
						</g>
						<g id="XMLID_186_">
							<path id="XMLID_81_" class="st9" d="M777.7,185.8c-0.7,0.6-0.8,0.9-3,0.5c-1.8-0.3-2.3,0.3-2.7-1.1
								c-7.7-20.1-2-53.1,5.7-49.9c5.4,2.2,6.2,21.9,6.5,33.5c0.1,2.1,0.8,20.8-0.7,21.9C783.5,190.6,777.7,185.8,777.7,185.8z"/>
						</g>
					</g>
				</g>
			</g>
			<g id="XMLID_107_">
				<polygon id="XMLID_73_" class="st30" points="716.6,179.2 725.2,182.2 755.2,182.2 755.2,177.9 717.5,177.9 				"/>
				<polygon id="XMLID_70_" class="st24" points="710.1,151.3 725.2,182.2 725.2,182.2 699.8,175.8 685.5,146.6 				"/>
				<polygon id="XMLID_64_" class="st25" points="712.7,151.3 688.6,146 685.5,146.6 710.2,151.9 				"/>
				<polygon id="XMLID_8_" class="st30" points="725.2,182.2 710.2,151.9 712.7,151.3 727.9,182.2 				"/>
			</g>
		</g>
	</g>
</g>
<g id="g3_1_" transform="matrix(0.9486962,0,0,0.9486962,2.4834364,1.8361818)">
	<path id="path5_1_" class="st0" d="M664-343.8c45.5,0,82.4,21,82.4,46.9c0,12.2-8.2,23.3-21.6,31.6c0.7,3,2,6.1,4.2,9
		c8.5,11.6,29.1,21.1,29.1,21.1s-31.6-13.4-54.7-20.5c-11.7,3.6-25.1,5.7-39.4,5.7c-45.5,0-82.4-21-82.4-46.9S618.5-343.8,664-343.8
		"/>
</g>
<g id="g3_2_" transform="matrix(0.9486962,0,0,0.9486962,2.4834364,1.8361818)">
	<path id="path5_2_" class="st0" d="M508-168.8c42.8,0,77.5,21,77.5,46.9S550.8-75,508-75c-13.4,0-26-2.1-37.1-5.7
		c-21.7,7.1-51.4,20.5-51.4,20.5s19.3-9.5,27.3-21.1c2-3,3.2-6,3.9-9c-12.6-8.3-20.3-19.4-20.3-31.6
		C430.5-147.8,465.2-168.8,508-168.8"/>
</g>
<g id="g3_3_" transform="matrix(0.9486962,0,0,0.9486962,2.4834364,1.8361818)">
</g>
</svg>
