<?xml version="1.0" encoding="utf-8"?>
<!-- Generator: Adobe Illustrator 19.0.0, SVG Export Plug-In . SVG Version: 6.00 Build 0)  -->
<svg version="1.1" id="Layer_1" xmlns="http://www.w3.org/2000/svg" xmlns:xlink="http://www.w3.org/1999/xlink" x="0px" y="0px"
	 viewBox="269 -65 837 431" style="enable-background:new 269 -65 837 431;" xml:space="preserve">
<style type="text/css">
	.st0{fill:url(#SVGID_1_);}
	.st1{display:none;fill:#FFFFFF;}
	.st2{fill:url(#SVGID_2_);}
	.st3{fill:url(#SVGID_3_);}
	.st4{fill:url(#SVGID_4_);}
	.st5{fill:#FFFFFF;}
	.st6{fill:url(#SVGID_5_);}
	.st7{fill:url(#SVGID_6_);}
	.st8{fill:url(#SVGID_8_);}
	.st9{display:none;clip-path:url(#SVGID_10_);fill:url(#SVGID_11_);}
	.st10{display:none;clip-path:url(#SVGID_13_);fill:url(#SVGID_14_);}
	.st11{fill:url(#SVGID_15_);}
	.st12{fill:#020202;}
</style>
<g>
	
		<linearGradient id="SVGID_1_" gradientUnits="userSpaceOnUse" x1="849.6" y1="-44" x2="849.6" y2="349" gradientTransform="matrix(1 0 0 -1 0 302)">
		<stop  offset="0" style="stop-color:#000000"/>
		<stop  offset="0.1282" style="stop-color:#060606"/>
		<stop  offset="0.303" style="stop-color:#171718"/>
		<stop  offset="0.5048" style="stop-color:#333334"/>
		<stop  offset="0.7266" style="stop-color:#595B5C"/>
		<stop  offset="0.9624" style="stop-color:#8A8C8F"/>
		<stop  offset="1" style="stop-color:#939598"/>
	</linearGradient>
	<path class="st0" d="M964-47H722.2l138.9,393H964c7.2,0,13-5.8,13-13V-34C977-41.1,971.2-47,964-47z"/>
</g>
<rect x="269" y="-135" class="st1" width="837" height="560"/>
<g>
	
		<radialGradient id="SVGID_2_" cx="798.0388" cy="-637274.6875" r="275.8158" gradientTransform="matrix(1 0 0 -1.500000e-002 0 -9207.2461)" gradientUnits="userSpaceOnUse">
		<stop  offset="0" style="stop-color:#919396"/>
		<stop  offset="0.2892" style="stop-color:#939598"/>
		<stop  offset="0.4578" style="stop-color:#9A9C9E"/>
		<stop  offset="0.5955" style="stop-color:#A5A7A9"/>
		<stop  offset="0.7164" style="stop-color:#B5B7B9"/>
		<stop  offset="0.8264" style="stop-color:#CACCCE"/>
		<stop  offset="0.9269" style="stop-color:#E4E5E6"/>
		<stop  offset="1" style="stop-color:#FFFFFF"/>
	</radialGradient>
	<path class="st2" d="M798,340.7c-215.4,0-390,5-390,11.2s174.6,11.2,390,11.2c116.2,0,220.5-1.5,292-3.8v-14.9
		C1018.6,342.1,914.2,340.7,798,340.7z"/>
	
		<radialGradient id="SVGID_3_" cx="577.9612" cy="-637274.6875" r="275.8167" gradientTransform="matrix(1 0 0 -1.500000e-002 0 -9207.2461)" gradientUnits="userSpaceOnUse">
		<stop  offset="0" style="stop-color:#919396"/>
		<stop  offset="0.2892" style="stop-color:#939598"/>
		<stop  offset="0.4578" style="stop-color:#9A9C9E"/>
		<stop  offset="0.5955" style="stop-color:#A5A7A9"/>
		<stop  offset="0.7164" style="stop-color:#B5B7B9"/>
		<stop  offset="0.8264" style="stop-color:#CACCCE"/>
		<stop  offset="0.9269" style="stop-color:#E4E5E6"/>
		<stop  offset="1" style="stop-color:#FFFFFF"/>
	</radialGradient>
	<path class="st3" d="M578,340.7c-116.7,0-221.5,1.5-293,3.8v14.8c71.5,2.3,176.2,3.8,293,3.8c215.4,0,390-5,390-11.2
		S793.3,340.7,578,340.7z"/>
</g>
<g>
	
		<radialGradient id="SVGID_4_" cx="683" cy="152.5" r="250.0482" gradientTransform="matrix(1 0 0 -1 0 302)" gradientUnits="userSpaceOnUse">
		<stop  offset="0" style="stop-color:#FFFFFF"/>
		<stop  offset="0.9901" style="stop-color:#353535"/>
		<stop  offset="1" style="stop-color:#5E5F62"/>
	</radialGradient>
	<path class="st4" d="M977,333c0,7.2-5.8,13-13,13H402c-7.1,0-13-5.8-13-13V-34c0-7.1,5.9-13,13-13h562c7.2,0,13,5.9,13,13V333z"/>
	<g>
	</g>
</g>
<rect x="407" y="-29" class="st5" width="552" height="348"/>
<linearGradient id="SVGID_5_" gradientUnits="userSpaceOnUse" x1="313" y1="-37.5" x2="1053" y2="-37.5" gradientTransform="matrix(1 0 0 -1 0 302)">
	<stop  offset="0" style="stop-color:#4D4D4D"/>
	<stop  offset="1.256070e-003" style="stop-color:#797979"/>
	<stop  offset="2.604311e-003" style="stop-color:#A2A2A2"/>
	<stop  offset="3.991073e-003" style="stop-color:#C4C4C4"/>
	<stop  offset="5.402323e-003" style="stop-color:#DEDEDE"/>
	<stop  offset="6.848838e-003" style="stop-color:#F0F0F0"/>
	<stop  offset="8.351240e-003" style="stop-color:#FBFBFB"/>
	<stop  offset="1.000000e-002" style="stop-color:#FFFFFF"/>
	<stop  offset="2.316655e-002" style="stop-color:#EDEDED"/>
	<stop  offset="4.230963e-002" style="stop-color:#DBDBDB"/>
	<stop  offset="6.216686e-002" style="stop-color:#D0D0D0"/>
	<stop  offset="8.368740e-002" style="stop-color:#CCCCCC"/>
	<stop  offset="8.604918e-002" style="stop-color:#CDCDCD"/>
	<stop  offset="0.1311" style="stop-color:#DEDEDE"/>
	<stop  offset="0.1869" style="stop-color:#EAEAEA"/>
	<stop  offset="0.2654" style="stop-color:#F0F0F0"/>
	<stop  offset="0.4835" style="stop-color:#F2F2F2"/>
	<stop  offset="0.8495" style="stop-color:#EBEBEB"/>
	<stop  offset="0.9524" style="stop-color:#EDEDED"/>
	<stop  offset="0.99" style="stop-color:#F2F2F2"/>
	<stop  offset="0.9929" style="stop-color:#BEBEBE"/>
	<stop  offset="0.9978" style="stop-color:#6D6D6D"/>
	<stop  offset="1" style="stop-color:#4D4D4D"/>
</linearGradient>
<rect x="313" y="337" class="st6" width="740" height="5"/>
<linearGradient id="SVGID_6_" gradientUnits="userSpaceOnUse" x1="633" y1="-37.5" x2="733" y2="-37.5" gradientTransform="matrix(1 0 0 -1 0 302)">
	<stop  offset="0" style="stop-color:#939598"/>
	<stop  offset="7.779513e-003" style="stop-color:#9B9D9F"/>
	<stop  offset="3.765871e-002" style="stop-color:#B4B6B8"/>
	<stop  offset="7.150813e-002" style="stop-color:#CACCCE"/>
	<stop  offset="0.1097" style="stop-color:#DCDEDF"/>
	<stop  offset="0.1544" style="stop-color:#EBEBEC"/>
	<stop  offset="0.2097" style="stop-color:#F5F5F5"/>
	<stop  offset="0.2872" style="stop-color:#FCFCFC"/>
	<stop  offset="0.5023" style="stop-color:#FFFFFF"/>
	<stop  offset="0.7155" style="stop-color:#FCFCFC"/>
	<stop  offset="0.7923" style="stop-color:#F5F5F5"/>
	<stop  offset="0.847" style="stop-color:#EBEBEC"/>
	<stop  offset="0.8913" style="stop-color:#DCDEDF"/>
	<stop  offset="0.9292" style="stop-color:#CACCCE"/>
	<stop  offset="0.9627" style="stop-color:#B4B6B8"/>
	<stop  offset="0.9923" style="stop-color:#9B9D9F"/>
	<stop  offset="1" style="stop-color:#939598"/>
</linearGradient>
<rect x="633" y="337" class="st7" width="100" height="5"/>
<linearGradient id="SVGID_8_" gradientUnits="userSpaceOnUse" x1="683" y1="-40" x2="683" y2="-35" gradientTransform="matrix(1 0 0 -1 0 302)">
	<stop  offset="0" style="stop-color:#939598"/>
	<stop  offset="3.547633e-002" style="stop-color:#999B9E"/>
	<stop  offset="0.2518" style="stop-color:#BBBDC0"/>
	<stop  offset="0.4618" style="stop-color:#D7D9DA"/>
	<stop  offset="0.6611" style="stop-color:#EBECED"/>
	<stop  offset="0.8453" style="stop-color:#F8F8F9"/>
	<stop  offset="1" style="stop-color:#FFFFFF"/>
</linearGradient>
<rect x="633" y="337" class="st8" width="100" height="5"/>
<path class="st1" d="M964-47H722.2l138.9,393H964c7.2,0,13-5.8,13-13V-34C977-41.1,971.2-47,964-47z"/>
<g>
	<g>
		<defs>
			<path id="SVGID_9_" d="M978-33.5c0-8-6.5-14.5-14.5-14.5h-562c-8,0-14.5,6.5-14.5,14.5v367c0,8,6.5,14.5,14.5,14.5h562
				c8,0,14.5-6.5,14.5-14.5V-33.5z"/>
		</defs>
		<clipPath id="SVGID_10_">
			<use xlink:href="#SVGID_9_"  style="overflow:visible;"/>
		</clipPath>
		
			<radialGradient id="SVGID_11_" cx="797.6" cy="524.4" r="437.5" gradientTransform="matrix(1 0 0 -1 0 302)" gradientUnits="userSpaceOnUse">
			<stop  offset="0" style="stop-color:#FFFFFF"/>
			<stop  offset="0.1557" style="stop-color:#9C9593"/>
			<stop  offset="0.3239" style="stop-color:#5A5250"/>
			<stop  offset="0.4866" style="stop-color:#302A28"/>
			<stop  offset="0.6395" style="stop-color:#0F0704"/>
			<stop  offset="0.7804" style="stop-color:#000000"/>
			<stop  offset="0.905" style="stop-color:#000000"/>
			<stop  offset="1" style="stop-color:#000000"/>
		</radialGradient>
		<circle class="st9" cx="797.6" cy="-222.4" r="437.5"/>
	</g>
</g>
<g>
	<g>
		<defs>
			<path id="SVGID_12_" d="M977.6,337c0.3-1.1,0.4-2.3,0.4-3.5v-367c0-8-6.5-14.5-14.5-14.5h-562c-8,0-14.5,6.5-14.5,14.5v367
				c0,1.2,0.2,2.4,0.4,3.5H313v5c0,0,25,10,80,10c24.2,0,108.3,0,195,0c110.4,0,225,0,225,0c71.6,0,137.9,0,160,0c55,0,80-10,80-10
				v-5H977.6z"/>
		</defs>
		<clipPath id="SVGID_13_">
			<use xlink:href="#SVGID_12_"  style="overflow:visible;"/>
		</clipPath>
		
			<radialGradient id="SVGID_14_" cx="196.6" cy="41.4" r="437.5" gradientTransform="matrix(1 0 0 -1 0 302)" gradientUnits="userSpaceOnUse">
			<stop  offset="0" style="stop-color:#FFFFFF"/>
			<stop  offset="0.1557" style="stop-color:#9C9593"/>
			<stop  offset="0.3239" style="stop-color:#5A5250"/>
			<stop  offset="0.4866" style="stop-color:#302A28"/>
			<stop  offset="0.6395" style="stop-color:#0F0704"/>
			<stop  offset="0.7804" style="stop-color:#000000"/>
			<stop  offset="0.905" style="stop-color:#000000"/>
			<stop  offset="1" style="stop-color:#000000"/>
		</radialGradient>
		<circle class="st10" cx="196.6" cy="260.6" r="437.5"/>
	</g>
</g>
<linearGradient id="SVGID_15_" gradientUnits="userSpaceOnUse" x1="683" y1="-50" x2="683" y2="-40" gradientTransform="matrix(1 0 0 -1 0 302)">
	<stop  offset="0" style="stop-color:#303030"/>
	<stop  offset="0.1219" style="stop-color:#373737"/>
	<stop  offset="0.2864" style="stop-color:#484848"/>
	<stop  offset="0.4744" style="stop-color:#646464"/>
	<stop  offset="0.6621" style="stop-color:#878787"/>
	<stop  offset="1" style="stop-color:#ABABAB"/>
</linearGradient>
<path class="st11" d="M853,342H488H313c0,0,25,10,80,10c24.2,0,108.3,0,195,0c110.4,0,225,0,225,0c71.6,0,137.9,0,160,0
	c55,0,80-10,80-10H853z"/>
<rect x="407" y="-29" class="st12" width="552" height="348"/>
</svg>
