<?xml version="1.0" encoding="utf-8"?>
<!-- Generator: Adobe Illustrator 19.0.0, SVG Export Plug-In . SVG Version: 6.00 Build 0)  -->
<svg version="1.1" id="Warstwa_1" xmlns="http://www.w3.org/2000/svg" xmlns:xlink="http://www.w3.org/1999/xlink" x="0px" y="0px"
	 viewBox="23 84.5 200 100" style="enable-background:new 23 84.5 200 100;" xml:space="preserve">
<style type="text/css">
	.st0{fill:#FFFFFF;}
	.st1{fill:#FDDB00;}
</style>
<g id="XMLID_8_">
	<path id="XMLID_9_" class="st0" d="M47.6,104v17.6h15.9v8.5H47.6v33c0,7.6,2.1,11.9,8.3,11.9c2.9,0,5.1-0.4,6.4-0.8l0.5,8.3
		c-2.1,0.9-5.6,1.5-9.8,1.5c-5.2,0-9.3-1.6-12-4.7c-3.2-3.3-4.3-8.7-4.3-15.9V130h-9.4v-8.5h9.5v-14.6L47.6,104z"/>
	<path id="XMLID_11_" class="st0" d="M76.1,140.6c0-7.2-0.1-13.4-0.5-19.1h9.7l0.4,12h0.5c2.8-8.2,9.5-13.4,16.9-13.4
		c1.3,0,2.1,0.1,3.2,0.4V131c-1.1-0.3-2.3-0.4-3.8-0.4c-7.8,0-13.4,5.9-14.9,14.3c-0.3,1.5-0.5,3.3-0.5,5.2v32.6h-11
		C76.1,182.7,76.1,140.6,76.1,140.6z"/>
	<path id="XMLID_13_" class="st0" d="M150.6,182.7l-0.9-7.7h-0.4c-3.4,4.8-10,9.1-18.7,9.1c-12.4,0-18.7-8.7-18.7-17.6
		c0-14.8,13.1-22.9,36.7-22.7v-1.3c0-5.1-1.4-14.1-13.9-14.1c-5.7,0-11.6,1.8-15.9,4.5l-2.5-7.3c5.1-3.3,12.4-5.4,20.1-5.4
		c18.7,0,23.2,12.8,23.2,25v22.9c0,5.3,0.3,10.5,1,14.6H150.6z M148.9,151.5c-12.1-0.3-25.9,1.9-25.9,13.8c0,7.2,4.8,10.6,10.5,10.6
		c8,0,13-5.1,14.8-10.2c0.4-1.1,0.6-2.4,0.6-3.5V151.5z"/>
	<path id="XMLID_16_" class="st0" d="M177.6,182.7v-61.1h11.1v61.1H177.6z"/>
	<path id="XMLID_19_" class="st0" d="M207.1,93h11.1v89.7h-11.1V93z"/>
</g>
<path id="XMLID_2_" class="st1" d="M191.4,92.1c0.5-3-0.5-5.7-2.4-6c-1.9-0.3-3.8,1.8-4.3,4.9c-0.5,3,0.5,5.7,2.4,6
	C189,97.3,190.9,95.1,191.4,92.1z M197.5,94c-1.6-0.5-3.5,0.9-4.2,3.2c-0.7,2.3-0.1,4.6,1.5,5.1s3.5-0.9,4.2-3.2
	C199.8,96.8,199,94.5,197.5,94z M179.7,97c1.8-0.3,2.9-3,2.4-6s-2.4-5.2-4.3-4.9c-1.9,0.3-2.9,3-2.4,6C176,95.1,177.9,97.3,179.7,97
	z M183.4,113.7c6.7,0,12.1,5,12.1-1.5s-7.3-13.3-13.9-13.3c-6.7-0.1-10.2,6.8-10.2,13.3C171.4,118.7,176.8,113.7,183.4,113.7z
	 M172.1,102.5c1.6-0.5,2.3-2.8,1.5-5.1c-0.7-2.3-2.6-3.8-4.2-3.2c-1.6,0.5-2.3,2.8-1.5,5.1C168.6,101.5,170.5,103,172.1,102.5z"/>
</svg>
