<?xml version="1.0" encoding="utf-8"?>
<!-- Generator: Adobe Illustrator 19.0.0, SVG Export Plug-In . SVG Version: 6.00 Build 0)  -->
<svg version="1.1" id="Warstwa_1" xmlns="http://www.w3.org/2000/svg" xmlns:xlink="http://www.w3.org/1999/xlink" x="0px" y="0px"
	 viewBox="0 0 200 100" style="enable-background:new 0 0 200 100;" xml:space="preserve">
<style type="text/css">
	.st0{fill:#FDDB00;}
</style>
<g id="XMLID_8_">
	<path id="XMLID_9_" d="M24.6,19.5v17.6h15.9v8.5H24.6v33c0,7.6,2.1,11.9,8.3,11.9c2.9,0,5.1-0.4,6.4-0.8l0.5,8.3
		c-2.1,0.9-5.6,1.5-9.8,1.5c-5.2,0-9.3-1.6-12-4.7c-3.2-3.3-4.3-8.7-4.3-15.9V45.5H4.3v-8.5h9.5V22.4L24.6,19.5z"/>
	<path id="XMLID_11_" d="M53.1,56.1c0-7.2-0.1-13.4-0.5-19.1h9.7l0.4,12h0.5c2.8-8.2,9.5-13.4,16.9-13.4c1.3,0,2.1,0.1,3.2,0.4v10.5
		c-1.1-0.3-2.3-0.4-3.8-0.4c-7.8,0-13.4,5.9-14.9,14.3c-0.3,1.5-0.5,3.3-0.5,5.2v32.6h-11V56.1z"/>
	<path id="XMLID_13_" d="M127.6,98.2l-0.9-7.7h-0.4c-3.4,4.8-10,9.1-18.7,9.1c-12.4,0-18.7-8.7-18.7-17.6
		c0-14.8,13.1-22.9,36.7-22.7V58c0-5.1-1.4-14.1-13.9-14.1c-5.7,0-11.6,1.8-15.9,4.5l-2.5-7.3c5.1-3.3,12.4-5.4,20.1-5.4
		c18.7,0,23.2,12.8,23.2,25v22.9c0,5.3,0.3,10.5,1,14.6H127.6z M125.9,67c-12.1-0.3-25.9,1.9-25.9,13.8c0,7.2,4.8,10.6,10.5,10.6
		c8,0,13-5.1,14.8-10.2c0.4-1.1,0.6-2.4,0.6-3.5V67z"/>
	<path id="XMLID_16_" d="M154.6,98.2V37.1h11.1v61.1H154.6z"/>
	<path id="XMLID_19_" d="M184.1,8.5h11.1v89.7h-11.1V8.5z"/>
</g>
<path id="XMLID_2_" class="st0" d="M168.4,7.6c0.5-3-0.5-5.7-2.4-6s-3.8,1.8-4.3,4.9c-0.5,3,0.5,5.7,2.4,6
	C166,12.8,167.9,10.6,168.4,7.6z M174.5,9.5c-1.6-0.5-3.5,0.9-4.2,3.2c-0.7,2.3-0.1,4.6,1.5,5.1c1.6,0.5,3.5-0.9,4.2-3.2
	C176.8,12.3,176,10,174.5,9.5z M156.7,12.5c1.8-0.3,2.9-3,2.4-6c-0.5-3-2.4-5.2-4.3-4.9s-2.9,3-2.4,6
	C153,10.6,154.9,12.8,156.7,12.5z M160.4,29.2c6.7,0,12.1,5,12.1-1.5c0-6.5-7.3-13.3-13.9-13.3c-6.7-0.1-10.2,6.8-10.2,13.3
	C148.4,34.2,153.8,29.2,160.4,29.2z M149.1,18c1.6-0.5,2.3-2.8,1.5-5.1c-0.7-2.3-2.6-3.8-4.2-3.2c-1.6,0.5-2.3,2.8-1.5,5.1
	C145.6,17,147.5,18.5,149.1,18z"/>
</svg>
