<?xml version="1.0" encoding="utf-8"?>
<!-- Generator: Adobe Illustrator 19.0.0, SVG Export Plug-In . SVG Version: 6.00 Build 0)  -->
<svg version="1.1" id="Warstwa_1" xmlns="http://www.w3.org/2000/svg" xmlns:xlink="http://www.w3.org/1999/xlink" x="0px" y="0px"
	 viewBox="0 0 350 250" style="enable-background:new 0 0 350 250;" xml:space="preserve">
<style type="text/css">
	.st0{fill:#FFFFFF;}
	.st1{fill:#333333;}
</style>
<path id="Triangle" class="st0" d="M142.7,166.4l84.2-43.6l-84.2-43.9V166.4z"/>
<g id="Lozenge">
	<g id="XMLID_3_">
		<path id="XMLID_4_" class="st1" d="M327.4,63.1c0,0-3-21.4-12.4-30.9c-11.8-12.4-25.1-12.5-31.2-13.2c-43.6-3.1-109-3.1-109-3.1
			h-0.2c0,0-65.4,0-109,3.1c-6.1,0.7-19.4,0.8-31.2,13.2C25,41.6,22,63.1,22,63.1s-3.1,25.2-3.1,50.4v23.6c0,25.2,3.1,50.4,3.1,50.4
			s3,21.4,12.4,30.9c11.8,12.4,27.4,12,34.3,13.3c24.9,2.4,105.8,3.1,105.8,3.1s65.4-0.1,109-3.3c6.1-0.7,19.4-0.8,31.2-13.2
			c9.4-9.4,12.4-30.9,12.4-30.9s3.1-25.2,3.1-50.4v-23.6C330.5,88.3,327.4,63.1,327.4,63.1z M142.7,165.7V78.3l84.2,43.9
			L142.7,165.7z"/>
	</g>
</g>
</svg>
