<svg xmlns="http://www.w3.org/2000/svg" xmlns:xlink="http://www.w3.org/1999/xlink" viewBox="0 0 550 600" preserveAspectRatio="xMidYMid meet" xmlns:v="https://vecta.io/nano"><style><![CDATA[.B{opacity:0}.C{fill:#fac4a7}.D{fill:#00002a}.E{fill:#001d43}.F{fill:#f9b89b}.G{fill:#004a7e}.H{fill:#00528a}.I{fill:#003967}.J{fill:#e3f5fc}.K{fill:#acaeb1}.L{fill:#002349}.M{fill:#00305b}.N{fill:#00b1ef}.O{fill:#9fd4eb}.P{fill:#de3924}.Q{fill:#9fa0a2}.R{fill:#001237}.S{fill:#d09a83}.T{fill:#87898b}.U{fill:#bbbdc0}.V{fill:#a4a7aa}.W{fill:#67686b}]]></style><defs><clipPath id="A"><path d="M0 0h550v600H0z"/></clipPath><path id="B" d="M306.964 70v-4.249c.218-.249.466-.446.726-.591a1.69 1.69 0 0 1 .84-.218c.404 0 .715.124.912.363s.301.58.301 1.016V70h1.016v-3.679c0-.321-.041-.622-.124-.891a1.95 1.95 0 0 0-.373-.694 1.63 1.63 0 0 0-.601-.446c-.238-.104-.518-.155-.84-.155-.383 0-.736.083-1.036.238s-.57.363-.819.632v-3.4h-1.016V70h1.016z"/><path id="C" d="M316.526 66.31c0-.332-.041-.622-.124-.891-.093-.269-.218-.497-.394-.694-.166-.187-.373-.332-.632-.446-.249-.104-.529-.155-.86-.155-.446 0-.85.073-1.223.228a3.27 3.27 0 0 0-1.026.694l.176.321c.031.052.073.093.124.135a.35.35 0 0 0 .176.052.47.47 0 0 0 .269-.093 3.52 3.52 0 0 1 .321-.207c.124-.083.269-.155.435-.218s.373-.093.622-.093c.383 0 .663.114.85.342.197.238.29.57.29 1.026v.446c-.653.021-1.202.073-1.658.176-.446.104-.819.238-1.099.404s-.477.352-.601.56c-.124.218-.187.435-.187.663a1.75 1.75 0 0 0 .124.684c.083.187.197.342.342.477a1.52 1.52 0 0 0 .508.28 2.12 2.12 0 0 0 .632.093c.228 0 .425-.021.601-.062.187-.031.352-.093.508-.166.166-.073.321-.166.456-.269l.446-.373.114.539c.021.093.062.166.124.197s.145.041.238.041h.446v-3.69zm-2.995 3.016a.9.9 0 0 1-.301-.145.8.8 0 0 1-.197-.28c-.052-.104-.073-.238-.073-.394s.041-.301.135-.425a1.04 1.04 0 0 1 .446-.342c.207-.093.477-.166.798-.228.332-.062.726-.093 1.192-.114v1.202a3.52 3.52 0 0 1-.352.332c-.114.093-.238.176-.373.238a2.84 2.84 0 0 1-.415.155c-.155.031-.311.052-.497.052-.124 0-.249-.021-.363-.052z"/><path id="D" d="M320.586 69.948c.249-.093.456-.218.632-.383l-.301-.487c-.041-.062-.083-.093-.135-.093-.031 0-.073.01-.114.041-.031.031-.083.062-.145.093-.052.041-.124.073-.197.093a.79.79 0 0 1-.28.052.61.61 0 0 1-.456-.187c-.114-.114-.176-.29-.176-.539v-3.462h1.658v-.736h-1.658v-1.99h-.508c-.073 0-.124.021-.166.052-.041.041-.062.083-.073.145l-.238 1.783-.943.114v.404c0 .083.021.135.062.176.041.031.093.052.155.052h.694v3.534c0 .477.124.84.373 1.099.238.259.591.383 1.047.383.259 0 .518-.052.767-.145z"/><path id="E" d="M324.634 64.227V70h1.016v-5.773h-1.016zm1.182-2.094c-.031-.093-.093-.166-.155-.238-.062-.062-.145-.114-.228-.155a.67.67 0 0 0-.28-.052c-.104 0-.197.01-.28.052a1.11 1.11 0 0 0-.228.155c-.062.073-.114.145-.155.238-.041.083-.062.176-.062.28 0 .093.021.187.062.28a1.11 1.11 0 0 0 .155.228 1.11 1.11 0 0 0 .228.155.79.79 0 0 0 .28.052.89.89 0 0 0 .28-.052c.083-.041.166-.093.228-.155.062-.073.124-.145.155-.228.041-.093.062-.187.062-.28 0-.104-.021-.197-.062-.28z"/><path id="F" d="M330.973 64.807a2.5 2.5 0 0 0-.777-.497c-.301-.114-.643-.176-1.026-.176-.332 0-.622.041-.871.135-.259.093-.466.218-.643.373s-.311.332-.404.529a1.52 1.52 0 0 0-.135.643c0 .249.041.456.124.632.093.166.197.311.342.435.145.114.301.207.487.29l.549.207.549.176c.187.052.342.114.487.187.135.083.249.166.332.269.093.104.135.238.135.404 0 .124-.021.249-.073.363s-.124.207-.218.301a1.29 1.29 0 0 1-.373.207c-.145.052-.321.073-.518.073-.228 0-.425-.021-.58-.073a2.35 2.35 0 0 1-.394-.176l-.28-.176c-.073-.062-.145-.083-.207-.083-.073 0-.124.01-.166.041a.3.3 0 0 0-.114.114l-.238.383c.228.207.508.373.829.508.332.124.694.197 1.099.197.352 0 .663-.052.933-.145a2.01 2.01 0 0 0 .684-.394 1.56 1.56 0 0 0 .425-.58 1.94 1.94 0 0 0 .145-.736c0-.238-.041-.435-.135-.601-.083-.166-.197-.301-.332-.415-.145-.114-.301-.218-.487-.29l-.549-.207-.549-.176c-.176-.052-.332-.114-.477-.187a1.29 1.29 0 0 1-.342-.259.58.58 0 0 1-.124-.373c0-.114.021-.228.073-.332.052-.093.124-.187.228-.259a1.02 1.02 0 0 1 .352-.176c.135-.052.29-.073.456-.073.197 0 .373.021.518.073.145.041.269.083.373.135l.259.145c.073.041.135.062.197.062.093 0 .166-.041.207-.124l.228-.373z"/><path id="G" d="M346.34 64.351c-.332.145-.622.352-.85.611a2.53 2.53 0 0 0-.529.902c-.124.352-.187.726-.187 1.13 0 .497.062.943.197 1.327.145.383.332.705.58.964a2.32 2.32 0 0 0 .871.591 2.92 2.92 0 0 0 1.099.207 3.19 3.19 0 0 0 .632-.062c.218-.031.425-.083.622-.155s.383-.166.56-.28.332-.238.456-.394l-.29-.373c-.041-.062-.104-.093-.197-.093-.062 0-.135.031-.228.083-.083.062-.197.124-.332.197-.135.062-.29.124-.477.187s-.404.093-.653.093a2.08 2.08 0 0 1-.746-.135 1.59 1.59 0 0 1-.57-.404c-.155-.187-.28-.404-.373-.674s-.145-.591-.155-.954h3.845c.093 0 .166-.031.197-.083s.052-.155.052-.321a3.3 3.3 0 0 0-.176-1.099c-.124-.321-.29-.591-.508-.808-.207-.218-.466-.383-.757-.497a2.6 2.6 0 0 0-.954-.176c-.415 0-.798.073-1.13.218zm1.772.643c.176.083.332.197.456.332.124.145.218.311.28.508.073.197.104.415.104.653h-3.14c.062-.508.238-.902.518-1.182.29-.28.674-.425 1.161-.425.228 0 .435.041.622.114z"/><path id="H" d="M191.178 193v-4.249c.218-.249.466-.446.726-.591a1.69 1.69 0 0 1 .84-.218c.404 0 .715.124.912.363s.301.58.301 1.016V193h1.016v-3.679c0-.321-.041-.622-.124-.891a1.95 1.95 0 0 0-.373-.694 1.63 1.63 0 0 0-.601-.446c-.238-.104-.518-.155-.84-.155-.404 0-.757.083-1.068.259-.311.166-.591.394-.84.674l-.083-.632c-.041-.135-.124-.207-.269-.207h-.611V193h1.016z"/><path id="I" d="M236.821 187.258a2.34 2.34 0 0 0-.694.373 1.81 1.81 0 0 0-.456.591c-.104.228-.155.487-.155.767 0 .352.073.663.238.922.166.269.383.477.674.643a1.14 1.14 0 0 0-.321.207c-.093.083-.166.166-.228.249s-.114.176-.145.269c-.031.083-.041.176-.041.259 0 .207.041.383.145.508.093.124.228.228.383.301-.311.124-.56.28-.736.477-.187.197-.28.446-.28.726 0 .207.062.394.166.58s.259.352.466.487c.207.145.477.259.788.342.321.083.684.124 1.109.124s.798-.052 1.14-.166a2.63 2.63 0 0 0 .85-.435 1.96 1.96 0 0 0 .529-.611c.124-.238.187-.477.187-.726 0-.259-.052-.477-.166-.643a1.13 1.13 0 0 0-.435-.394c-.187-.104-.394-.166-.622-.207l-.715-.093-.705-.031c-.238-.01-.446-.031-.622-.062-.187-.031-.332-.083-.446-.145-.104-.073-.166-.176-.166-.311 0-.083.031-.176.093-.259.073-.083.155-.166.28-.249.238.073.497.104.767.104.311 0 .601-.052.871-.135.259-.083.487-.218.684-.373a1.78 1.78 0 0 0 .446-.591c.114-.228.166-.487.166-.767a1.69 1.69 0 0 0-.197-.829l.653-.093c.166-.031.238-.114.238-.238v-.373h-1.565a2.53 2.53 0 0 0-.591-.249c-.218-.052-.456-.073-.705-.073-.321 0-.611.041-.881.124zm2.56 6.467c-.083.124-.197.238-.342.332-.155.093-.332.155-.549.207a3.22 3.22 0 0 1-.736.073c-.28 0-.529-.021-.736-.073a1.69 1.69 0 0 1-.518-.187.9.9 0 0 1-.301-.29.77.77 0 0 1-.104-.363c0-.207.073-.383.207-.529.135-.155.311-.28.529-.383.187.031.383.052.58.062l.611.031.56.052c.176.021.342.062.477.104.135.052.238.114.321.207.083.083.124.197.124.342 0 .155-.041.29-.124.415zm-2.218-3.628c-.155-.062-.29-.145-.394-.249a.89.89 0 0 1-.238-.363 1.38 1.38 0 0 1-.083-.466c0-.363.104-.643.321-.85s.529-.311.933-.311.726.104.933.311c.218.207.321.487.321.85 0 .166-.021.321-.073.466a.89.89 0 0 1-.238.363 1.21 1.21 0 0 1-.404.249c-.155.052-.332.083-.539.083s-.383-.031-.539-.083z"/><path id="J" d="M241.33 192.585c.031.083.083.155.145.218a.5.5 0 0 0 .207.145.68.68 0 0 0 .259.052h.083a2 2 0 0 1-.114.352 2.06 2.06 0 0 1-.166.301 2.59 2.59 0 0 1-.187.249l-.145.166c-.052.052-.073.104-.073.155 0 .062.021.114.073.155l.166.166c.176-.145.332-.301.466-.477.135-.166.238-.342.332-.518.093-.187.166-.363.218-.549a2.49 2.49 0 0 0 .073-.539c0-.114-.021-.218-.052-.311-.031-.104-.073-.187-.135-.259a.53.53 0 0 0-.218-.176.71.71 0 0 0-.301-.062.79.79 0 0 0-.28.052.5.5 0 0 0-.207.145.54.54 0 0 0-.145.197c-.031.083-.041.166-.041.249 0 .104.01.197.041.29z"/><path id="K" d="M203.302 202.608c-.238-.238-.508-.425-.829-.56-.311-.135-.663-.197-1.068-.197-.435 0-.829.073-1.161.228-.342.145-.622.352-.85.611-.238.269-.404.58-.529.943s-.176.767-.176 1.192c0 .477.062.891.197 1.264.124.363.311.674.539.933.228.249.497.446.798.57a2.54 2.54 0 0 0 1.016.207 3.23 3.23 0 0 0 1.182-.218 2.14 2.14 0 0 0 .943-.674l-.28-.373c-.041-.062-.114-.093-.197-.093-.073 0-.135.031-.207.083-.062.062-.155.124-.259.197a1.47 1.47 0 0 1-.404.197c-.155.062-.363.093-.601.093-.259 0-.497-.052-.705-.145a1.5 1.5 0 0 1-.529-.425c-.145-.187-.249-.415-.332-.684s-.124-.58-.124-.933a3.46 3.46 0 0 1 .114-.902c.073-.269.187-.508.332-.694s.332-.332.539-.435c.218-.104.466-.145.757-.145.207 0 .383.021.539.062a2.11 2.11 0 0 1 .373.166c.093.052.187.104.249.155.062.041.124.073.187.073a.26.26 0 0 0 .135-.041c.021-.021.052-.052.083-.093l.269-.363z"/><path id="L" d="M205.621 202.058a2.47 2.47 0 0 0-.871.601c-.238.259-.425.57-.56.943-.124.363-.187.777-.187 1.223 0 .456.062.871.187 1.233a2.8 2.8 0 0 0 .56.933 2.47 2.47 0 0 0 .871.601c.332.135.715.207 1.14.207a3.1 3.1 0 0 0 1.14-.207 2.47 2.47 0 0 0 .871-.601c.238-.259.415-.57.539-.933.135-.363.197-.777.197-1.233 0-.446-.062-.86-.197-1.223-.124-.373-.301-.684-.539-.943a2.47 2.47 0 0 0-.871-.601 3.1 3.1 0 0 0-1.14-.207c-.425 0-.808.073-1.14.207zm.383 4.799a1.5 1.5 0 0 1-.529-.425c-.145-.187-.249-.415-.321-.684s-.104-.57-.104-.912.031-.653.104-.922.176-.497.321-.684a1.53 1.53 0 0 1 .529-.435c.218-.093.466-.145.757-.145.57 0 .995.197 1.275.58s.425.912.425 1.606c0 .684-.145 1.213-.425 1.596s-.705.57-1.275.57c-.29 0-.539-.052-.757-.145z"/><path id="M" d="M210.623 201.944v3.679a3.11 3.11 0 0 0 .124.902c.083.269.207.497.363.684a1.76 1.76 0 0 0 .611.446c.238.104.518.155.84.155.394 0 .757-.083 1.068-.259.311-.166.591-.394.84-.663l.083.622c.041.135.135.207.269.207h.611v-5.773h-1.016v4.26c-.218.249-.466.446-.726.58a1.69 1.69 0 0 1-.84.218c-.404 0-.705-.124-.912-.363-.197-.238-.301-.58-.301-1.016v-3.679h-1.016z"/><path id="N" d="M224.689 207.717v-8.395h-1.016v3.203c-.197-.218-.425-.383-.674-.508-.249-.114-.549-.176-.912-.176-.383 0-.736.073-1.047.228a2.33 2.33 0 0 0-.777.643 2.78 2.78 0 0 0-.497.954c-.114.363-.166.757-.166 1.182a5.2 5.2 0 0 0 .145 1.275c.104.373.249.674.446.922.187.249.415.435.684.56.269.135.57.197.902.197a2.24 2.24 0 0 0 1.099-.269c.311-.187.591-.425.84-.726l.093.705c.041.135.135.207.269.207h.611zm-3.203-.86a1.15 1.15 0 0 1-.456-.383c-.124-.166-.228-.394-.29-.653-.062-.269-.093-.591-.093-.974 0-.705.145-1.254.435-1.638.28-.383.694-.58 1.233-.58.28 0 .518.052.746.155.218.104.425.28.611.529v2.788a2.53 2.53 0 0 1-.684.653 1.7 1.7 0 0 1-.871.228 1.53 1.53 0 0 1-.632-.124z"/><path id="O" d="M193.948 221.398v-4.249c.218-.249.466-.446.726-.591a1.69 1.69 0 0 1 .84-.218c.404 0 .715.124.912.363s.301.58.301 1.016v3.679h1.016v-3.679c0-.321-.041-.622-.124-.891a1.95 1.95 0 0 0-.373-.694 1.63 1.63 0 0 0-.601-.446c-.238-.104-.518-.155-.84-.155-.383 0-.736.083-1.036.238s-.57.363-.819.632v-3.4h-1.016v8.395h1.016z"/><path id="P" d="M230.205 221.056c.031.083.083.155.145.218a.5.5 0 0 0 .228.155c.083.041.176.052.28.052a.67.67 0 0 0 .28-.052.64.64 0 0 0 .228-.155c.062-.062.114-.135.145-.218a.67.67 0 0 0 .052-.28c0-.104-.01-.197-.052-.28-.031-.093-.083-.166-.145-.228a.64.64 0 0 0-.228-.155c-.093-.041-.187-.062-.28-.062-.104 0-.197.021-.28.062a.5.5 0 0 0-.228.155c-.062.062-.114.135-.145.228-.041.083-.062.176-.062.28 0 .093.021.187.062.28z"/><path id="Q" d="M358.867 368.217h.767c.114 0 .187-.062.228-.197l1.296-3.907c.031-.083.062-.176.073-.269l.062-.269.052.269.073.259 1.285 3.918c.031.135.104.197.197.197h.808l1.866-5.773h-.757a.29.29 0 0 0-.187.062c-.062.031-.093.083-.114.145l-1.13 3.721-.093.383-.073.394-.093-.383c-.031-.135-.073-.259-.114-.394l-1.192-3.742c-.021-.052-.052-.104-.104-.145-.052-.031-.114-.052-.187-.052h-.435c-.073 0-.135.021-.187.052-.041.041-.083.093-.093.145l-1.223 3.742-.124.394-.104.383c-.01-.124-.041-.259-.062-.383l-.083-.394-1.109-3.721c-.021-.052-.052-.104-.114-.145-.052-.041-.114-.062-.197-.062h-.798l1.866 5.773z"/></defs><g clip-path="url(#A)"><g transform="matrix(.81644 0 0 .81644 24.068008 12.347351)"><path fill="#e6e7e8" d="M432.72 387.574c43.072-8.112 73.131 6.704 78.064 34.904 4.932 28.077-17.065 58.808-60.137 66.919-13.476 2.495-26.59 2.745-38.381.873-20.454 11.854-47.764 32.069-47.764 32.069s17.686-13.975 23.46-28.075c1.444-3.62 2.046-7.238 2.166-10.482-14.317-6.615-24.183-17.22-26.469-30.448-4.813-28.2 26.108-57.525 69.06-65.76z"/><g class="D"><path d="M524.5 258.2l17.1 54.3-10.5-56-6.6 1.7zm-22.8-9.4l17.2 54.3-10.5-56-6.7 1.7zm-19.4 7.7l-10.5 56 17.1-54.3-6.6-1.7zm-7-17l-10.5 56 17.1-54.3-6.6-1.7z"/></g><path fill="#0078a1" d="M551.4 159.8h-12.2l-39.7-6.1 17.9.9 34 5.2z"/><path d="M539.2 159.8h12.2l-9.8 91.1h-12.2l9.8-91.1z" class="N"/><path fill="#008dbd" d="M539.2 159.8l-37.9-6.1-.8 97.2h28.9l9.8-91.1z"/><path d="M482 259.4h51.1c4.7 0 8.5-3.8 8.5-8.5s-3.8-8.5-8.5-8.5H482c-4.7 0-8.5 3.8-8.5 8.5s3.8 8.5 8.5 8.5z" class="N"/><g class="L"><path d="M502.7 215.8c-29.6 5.9-61.6 13.3-68.3 17.5-6.2 3.8 3.6 14.1 3.6 14.1l67-2.3c5.3 0 3.4-30.4-2.3-29.3z"/><path d="M448.9 297.3c.1-13-3.5-65.8-3.5-65.8s-13.2-1.6-14.8 7.5c-.9 4.7 7.3 45.2 10.6 58.8l7.7-.5z"/></g><path d="M422 303.7l19.1-5.9 7.9-.4.5 8.5-13.5.8c-15.9.7-14-3-14-3z" class="D"/><g class="M"><path d="M519.6 217.7c-28.5 9.7-56.4 23.3-62.5 28.3-5.6 4.6 5.5 13.5 5.5 13.5s49.2-10.3 57.9-14.1c15.7-7 4.6-29.6-.9-27.7z"/><path d="M474.8 307.5c-.3-12.9-5.5-65.1-5.5-65.1s-13.2-.3-14.6 8.8c-.7 4.8 8.7 44.3 12.4 57.4l7.7-1.1z"/></g><path d="M448.1 316.4l19-7.7 7.9-1.2.8 8.4-13.6 2c-15.9 2.4-14.1-1.5-14.1-1.5z" class="D"/><path d="M456.8 188.3s-.9 5.6 4.2 11.2c0-.1 3.8-7.6-4.2-11.2z" class="E"/><g class="F"><path d="M456.9 193.2s-5.4 1.2-9.1 4c-2.1 1.5-3.1 4.7-1.5 7 1.2 1.7 3.6 2.4 5.5 1.6.7-.3 1.4-.8 1.4-1.6 0-.3-.1-.6-.1-.8-.1-1.2.8-2.2 1.8-2.7 1.1-.6 2.6-.7 3.6-1.5.5-.3 1.7-2 1.5-2.7-.2-.4-3.1-3.3-3.1-3.3z"/><path d="M500.5 183.3c.7-2.2 1.8-1.4-.9-3.4-2.3-1.7-7-4.4-7-4.4-12.6 6.9-21.9 9.4-30.8 14.2-13.9 7.6-3.3 8.1-3.3 8.1 15.7-7.8 26.7-6.5 42-14.5z"/></g><path d="M456.8 188.3c4.3 1.7 5.4 9.1 4.2 11.2 14.2-6 30.8-10.5 44.7-16.5.9-2.1-.5-1.6-3-3.9-2.2-1.9-7.6-4.9-7.6-4.9-11.9 5.3-27.7 10.9-38.3 14.1z" class="G"/><g class="C"><path d="M486.2 120.5l14.3-3.3 4.8 15.7-14.6 2.6-4.5-15z"/><path d="M482 199.4l37.5-3.4c-1-17.1-.7-59.1-4.9-62-10.9-7.6-22-6.5-30.2.1-3.2 2.6-3.3 47.5-2.4 65.3z"/></g><path d="M483.1 216.3c-2.2-22.7-9-65.3-4.1-75.5 1.7-3.6 5.3-9.1 10.7-10.5-.2.1-.3.2-.5.2-.9 2.3.6 5.6 5.3 5.2 2.1-.2 4.9-1.2 7.8-3.8 1.3-1.2 1.5-2.9 1.7-3.3 4.4.6 14 2.5 17 5.5 3.4 3.3 5.1 62.1 6.2 82.6l-26.6 3c-13.7.1-15-1.6-17.5-3.4z" class="O"/><path d="M485.3 182.6c.9 11.5 2.5 25.8 3.8 36.5-5 .7-4.1 1.1-7.5 2-.6.2-1.1-.8-1.2-1.4-2.9-25.6-7.1-66.2-2.4-78.7 1.8-4.6 5-7.3 8.9-9.5 0 0-3.1 32.4-1.6 51.1z" class="H"/><path d="M485.9 190.4c-2.2-3.6-7.2-15.6-7.2-15.6l4.1-15.8-1.8-22.9 4.7-3.8s.8-.5 1.2-.7c0 0-3.1 32.4-1.7 51.1l.7 7.7z" class="I"/><path d="M505.1 133.8c.4-1.5.5-3.2-.4-4.4l-.1-.6c4.7.8 14.8.8 16.4 6.1 1.5 4.8 9 74.7 10.3 97.6L502 235l-4.3-49-.3-28.5 7.7-23.7z" class="H"/><g class="P"><path d="M491.9 137.3c-1.3-.1-2.5.4-3.2 1.5l-.9 1.4s.6 4 1.8 4.4c.5.1 1 .2 1.4.1a3.09 3.09 0 0 0 2-1.1l2.3-3.1-.9-1.5c-.6-1-1.5-1.6-2.5-1.7z"/><path d="M488.4 201l.8-57.6 3.1-.3 4.2 57.2-2.1 10.7c-.4 2.1-2.4 2.1-3 0l-3-10z"/></g><path d="M488.6 128.4l2.1 5.4-3 6.3s-2.9-6-2.3-7.7c0 .1 1.1-2.7 3.2-4z" class="J"/><path d="M490.7 133.8l.8 1.6-3.8 4.8 3-6.4z" class="Q"/><path d="M505.8 127.4l7.8 2.7-13.1 25.2 1.8 21.2-4 15.6s-4-18.2-2.1-33.1c1.8-14.9 3.2-23.6 9.6-31.6z" class="I"/><path d="M503.6 124.9l3.9 4.4s-6.8 8.6-12.1 12.5l-3.9-7.7s5.5-3.8 12.1-9.2z" class="J"/><path d="M483 88.8c4.4-.7 9 0 11.6 2 6.3 4.9 4.6 12.8 5.5 20.1.1 1.3.4 4.7 1.1 9 .1.8-1.1-.8-1.8-.6-5.7 2.2-9.1 5.5-14.8 7.7-1.5.6-4 2.1-5.2 1-.7-.6-1.1-1.9-1.4-2.7-1.4-4.8-3.7-10.5-4.7-14.9-.7-3-1.4-5.9-1.6-9-.2-2.5 0-5.1 1.2-7.2 1.9-2.9 5.9-4.7 10.1-5.4z" class="C"/><path d="M501.3 114.5c-.4.2-.9.1-1.6-.4-.9-.6-2.1-1.7-2.5-2.8-.4-1.4.6-3.1.6-4.6 0-1-.2-2.1-.9-2.9-.7-.7-2.1-.9-2.7-.1-.5.5-.5 1.4-1.1 1.8-.5.4-1.3.2-1.8-.1-.5-.4-.9-.9-1.4-1.4-1.1-1.3-2.7-2.2-4.3-2.3-.9-.1-1.9.1-2.8.2-2.7.3-5.5-.3-7.9-1.5-3.2-1.7-6.5-4.4-6.8-8.3 2 .9 4.3-.3 6.1-1.4 2.6-1.5 5.2-2.9 8.1-3.5s7.2-.9 9.6.8c.5.4 1 .8 1.6 1.1 1.3.6 1.7.8 3.1 1.2 2 .6 3.1 2.7 3.9 4.7 1.4 3.7 2.1 7.7 2.3 11.7-.1 1.4.3 7-1.5 7.8z" class="R"/><path d="M473.2 108c-.3 4.2-.5 5.7-1.1 8.4-.1.6.3 1.2 1 1.3 1.2 0 2.5-.1 3.5-.2" class="C"/><path d="M493.3 112.7s1.1 7.2.4 8.3-7.1 5-7.1 5 5.5-2.1 7.9-4.8c1.5-1.7-1.2-8.5-1.2-8.5z" class="S"/><path d="M484.4 183.8s-2.9 4.8-.4 11.9c0 0 6.4-5.5.4-11.9z" class="E"/><g class="F"><path d="M482.7 188.3s-5.4-.9-9.9.2c-2.5.6-4.6 3.2-4 5.9.4 2 2.4 3.6 4.4 3.6.7 0 1.6-.3 1.9-.9.1-.3.1-.6.2-.8.3-1.1 1.6-1.7 2.7-1.8 1.2-.1 2.7.3 3.9 0 .6-.1 2.4-1.2 2.4-1.9-.1-.5-1.6-4.3-1.6-4.3z"/><path d="M526.7 195.8c1.5-1.8 2.2-.6.5-3.5-1.5-2.5-4.8-6.8-4.8-6.8-14.2 1.6-23.9.3-33.9 1.4-15.8 1.7-6.1 6.2-6.1 6.2 17.5-1.1 27.1 4.3 44.3 2.7z"/><path d="M524.7 192.9c-.8.7-.9 1.1-3.6.9-2.1-.2-2.5-2-3.1-3.6-8.4-24.9-6.1-50.4-4.2-49.9 6.9 1.5 9.8 11.1 9.8 11.1s3.3 11.8 4.9 25.7c.3 2.6 1.4 17.2-.3 18.7 0-.2-3.5-2.9-3.5-2.9z"/></g><g class="G"><path d="M484.4 183.8c3.4 3.2 1.6 10.5-.4 11.9 15.4-.1 32.4 2.1 47.6 1.7 1.6-1.7.2-1.7-1.3-4.7-1.3-2.6-5.6-9.9-5.6-9.9-13 .4-29.3 2-40.3 1z"/><path d="M524.7 192.9c-.8.7-.9 1.1-3.6.9-2.1-.2-2.7.6-3.3-1.1-11.3-23.6-7.7-64 1.9-60.9 6.7 2.2 9.6 25.9 11.2 39.8.3 2.6 2.7 24.8 1 26.3-.1-.1-7.2-5-7.2-5z"/></g><path d="M557.9 215.2h5v107.6h-5V215.2z" class="K"/><path d="M557.9 322.8l-2.4-4.6v-103h2.4v107.6z" class="T"/><path d="M410.4 215.2h5v107.6h-5V215.2z" class="K"/><path d="M410.4 322.8l-2.4-4.6v-103h2.4v107.6z" class="T"/><path d="M378 209.1h215.2v8.2H378v-8.2z" class="K"/><path fill="#7c7d81" d="M367.4 204.4l214.6.1 11.2 4.6H378l-10.6-4.7z"/><path fill="#494a4b" d="M378 209.1v8.1l-10.6-6.1v-6.7l10.6 4.7z"/><path d="M442.5 206.4l9.7 3.4h33.1v-4.9h-41.7l-1.1 1.5z" class="C"/><path d="M435.4 175.6l16.8 34.2h-.1l-26.1-3-17.8-36.5 27.2 5.3z" class="U"/><path d="M438.3 175.6l-26.8-5.9-3.3.6 27.3 5.9 2.8-.6z" class="V"/><path d="M452.2 209.8l-16.7-33.6 2.8-.6 16.8 34.2h-2.9z" class="C"/><path fill="#0d2b57" d="M177.2 394.1c-6.5-9-17.3-13.8-28.2-16.1-10.8-2.3-22-2.4-32.9-4-3-.4-6.1-1-8.6-2.6-3.3-2.1-5.4-5.7-6.7-9.4-2.9-8.1-2.1-16.9-2.8-25.3-.5-6.4-1.9-13-5.7-18.2-12.5-17.2-48-17.6-63.3-4.4-4.7 4.1-7.8 9.7-10.1 15.5-9.6 24-5.3 51.6 6.6 73.9 13.2 24.7 37.8 40.9 64.1 48.7 25.3 7.5 58.8 10.8 79.8-8.6a53.15 53.15 0 0 0 5.5-6.1c9.5-12.3 11.5-30.8 2.3-43.4z"/><path fill="#183b6e" d="M95.5 324.4c-.8-2.1-1.8-4-3.1-5.8-4.4-6.1-11.7-10-20-12.1-5.7-1-11.7-1.5-17.6-1.5-.7 0-1.4.1-2.1.2-5.4 2.9-11.5 4.6-16.4 8.3-3.3 2.4-6.8 8.2-2 11 3.7 2.1 9 1.7 13.1 1.4 4.2-.3 8.3-1.1 12.5-1.7 8-1.2 16.7-2.1 24.3 1.2 2.6 1.1 4.6 3.1 6.9 4.8.7.5 2.4 1.2 3 1.9 0-.1.1-.1.1-.2.1-1.2.8-2.7 1-3.8l.3-3.7z"/><path fill="#011e47" d="M177.2 394.1c-6.5-9-17.3-13.8-28.2-16.1-10.8-2.3-22-2.4-32.9-4-3-.4-6-1-8.6-2.6-9.3 3.1-20.2 3.4-26.9 11.2-4.1 4.7-5.7 9.5-2.1 15 .4.6.8 1.2 1.3 1.7 4.7 6 11.8 9.6 19.3 10.5 1.1.1 2.1.2 3.2.4 9.5 1.1 21.2 2.4 27.6 10.6 7.4 9.4 3 23.1-1.8 32.6-.8 1.6-1.7 3.2-2.6 4.8 16.2.2 32.1-3.5 44-14.5a53.15 53.15 0 0 0 5.5-6.1c9.4-12.4 11.4-30.9 2.2-43.5z"/><g class="L"><path d="M117.6 376.1c27.4 2 55.9 2.6 62.5 5.6 6 2.8-1.7 13.1-1.7 13.1l-60.9 5.4c-4.9.6-5.2-24.5.1-24.1z"/><path d="M169.5 444.2c-.4-12.6 1.5-63.6 1.5-63.6s12-1.7 13.7 7c.9 4.5-5.5 43.8-8.1 56.8l-7.1-.2z"/></g><path d="M194.2 450l-17.6-5.5-7.2-.3-.3 8.2 12.4.5c14.6.7 12.7-2.9 12.7-2.9z" class="D"/><g class="M"><path d="M103.1 375.3c26 8.8 53.5 16.5 59.1 21.1 5.1 4.2-5 12.3-5 12.3s-47.5-5.8-55.5-9.3c-14.3-6.3-3.6-25.8 1.4-24.1z"/><path d="M138.5 450.8c2.3-11.6 15.1-57.7 15.1-57.7s12 1.8 11.8 10.2c-.1 4.4-14.7 38.5-20.1 49.7l-6.8-2.2z"/></g><path d="M161.1 462.9l-15.9-9.9-6.9-2.3-2 7.4 11.9 3.9c14 4.7 12.9.9 12.9.9z" class="D"/><path d="M163.5 359.2s.8 5.1-3.8 10.2c0 0-3.5-6.8 3.8-10.2z" class="E"/><g class="F"><path d="M163.4 363.7s4.9 1.1 8.3 3.6c1.9 1.4 2.8 4.3 1.4 6.4-1.1 1.5-3.2 2.2-5 1.5-.6-.3-1.3-.8-1.3-1.4 0-.3.1-.5.1-.8.1-1-.7-2-1.7-2.5s-2.4-.7-3.3-1.3c-.4-.3-1.6-1.8-1.4-2.4.3-.4 2.9-3.1 2.9-3.1z"/><path d="M123.6 354.7c-.6-2-1.7-1.3.8-3.1 2.1-1.6 6.4-4.1 6.4-4.1 11.5 6.3 20 8.6 28.1 13 12.7 6.9 3 7.4 3 7.4-14.3-7-24.3-5.9-38.3-13.2z"/></g><path d="M163.5 359.2c-3.9 1.5-5 8.3-3.8 10.2-12.9-5.4-28.1-9.5-40.8-15.1-.8-2 .4-1.5 2.8-3.5 2-1.7 6.9-4.5 6.9-4.5 10.8 5 25.3 10.1 34.9 12.9z" class="G"/><g class="C"><path d="M133.4 290.4l-13.1-3-4.4 14.3 13.3 2.4 4.2-13.7z"/><path d="M137.2 362.4l-34.2-3.1c.9-15.6.7-53.9 4.5-56.6 9.9-7 20.1-5.9 27.6.1 2.8 2.4 2.9 43.3 2.1 59.6z"/></g><path d="M136.1 377.8c2-20.7 8.2-59.6 3.7-68.9-1.6-3.3-4.8-8.3-9.8-9.6.1.1.3.1.4.2.8 2.1-.6 5.1-4.8 4.8-1.9-.2-4.5-1.1-7.1-3.5-1.2-1.1-1.4-2.6-1.5-3-4 .5-12.8 2.3-15.5 5-3.1 3-4.6 56.7-5.7 75.4l24.3 2.7c12.6.1 13.8-1.5 16-3.1z" class="O"/><path d="M134.2 347c-.8 10.5-2.3 23.5-3.5 33.3 4.6-1 5.8-2.9 8.3-5.1 2.7-23.3 6.1-54.6 1.8-66.2-1.6-4.2-4.6-6.6-8.1-8.6 0 0 2.8 29.6 1.5 46.6z" class="H"/><path d="M133.6 354.1c2-3.2 6.6-14.3 6.6-14.3l-3.8-14.4 1.7-20.9-4.3-3.5s-.7-.5-1.1-.7c0 0 2.9 29.6 1.5 46.6l-.6 7.2z" class="I"/><path d="M116.1 302.6c-.4-1.4-.5-2.9.3-4v-.6c-4.3.7-13.5.7-15 5.6-1.4 4.4-8.2 68.2-9.4 89.1l26.9 2.2 3.9-44.7.2-26-6.9-21.6z" class="H"/><g class="P"><path d="M128.2 305.7c1.2-.1 2.3.4 2.9 1.4l.9 1.3s-.5 3.7-1.7 4c-.4.1-.9.1-1.3.1-.7-.1-1.4-.5-1.8-1l-2.1-2.9.8-1.4c.5-.8 1.3-1.4 2.3-1.5z"/><path d="M131.3 363.9l-.7-52.6-2.8-.2-3.8 52.2 1.9 9.8c.4 1.9 2.2 1.9 2.7 0l2.7-9.2z"/></g><path d="M131.1 297.6l-1.9 5 2.8 5.8s2.7-5.4 2.1-7c-.1-.1-1-2.6-3-3.8z" class="J"/><path d="M129.2 302.5l-.7 1.5 3.5 4.3-2.8-5.8z" class="Q"/><path d="M115.4 296.7l-7.1 2.5 12 23-1.6 19.3 3.7 14.3s3.6-16.6 1.9-30.2c-1.7-13.7-3-21.6-8.9-28.9z" class="I"/><path d="M117.4 294.4l-3.5 4s6.2 7.8 11.1 11.4l3.6-7.1c-.1.1-5.1-3.3-11.2-8.3z" class="J"/><path d="M136.2 261.5c-4-.6-8.2 0-10.6 1.8-5.8 4.5-4.2 11.7-5 18.3-.1 1.2-.3 4.3-1 8.2-.1.7 1-.8 1.6-.5 5.2 2 8.3 5 13.5 7 1.4.5 3.6 1.9 4.7.9.6-.5 1-1.7 1.2-2.5 1.3-4.4 3.3-9.6 4.3-13.6.6-2.7 1.3-5.4 1.5-8.2.2-2.2 0-4.6-1.1-6.5-1.5-2.7-5.2-4.3-9.1-4.9z" class="C"/><path d="M119.5 284.9c.4.2.8.1 1.4-.3.8-.5 1.9-1.6 2.2-2.5.4-1.3-.5-2.8-.5-4.2 0-.9.2-1.9.9-2.6s1.9-.8 2.5-.1c.4.5.5 1.3 1 1.7s1.2.2 1.7-.1.8-.8 1.2-1.3c1-1.1 2.4-2 4-2.1.9-.1 1.7.1 2.6.2a12.01 12.01 0 0 0 7.2-1.4c2.9-1.5 5.9-4.1 6.2-7.6-1.8.8-3.9-.3-5.6-1.3-2.3-1.4-4.8-2.7-7.4-3.2-2.7-.5-6.5-.8-8.7.8-.5.3-.9.7-1.4 1L124 263c-1.8.5-2.9 2.5-3.5 4.3-1.3 3.4-1.9 7-2.1 10.7-.1 1.1-.4 6.2 1.1 6.9z" class="R"/><path d="M145.2 279c.2 3.8.5 5.2 1 7.7.1.6-.3 1.1-.9 1.2-1.1 0-2.3-.1-3.2-.2" class="C"/><path d="M126.9 283.2s-1 6.6-.4 7.6 6.4 4.6 6.4 4.6-5-1.9-7.2-4.4c-1.3-1.5 1.2-7.8 1.2-7.8z" class="S"/><path d="M136.1 368.8s.5 5.1-4.3 10c0 0-3.2-7 4.3-10z" class="E"/><g class="F"><path d="M135.7 373.3s4.8 1.3 8.1 4.1c1.8 1.5 2.6 4.4 1 6.4-1.1 1.5-3.3 2-5 1.2-.6-.3-1.2-.8-1.2-1.5 0-.3.1-.5.2-.8.2-1-.6-2-1.5-2.6-1-.6-2.3-.8-3.2-1.5-.4-.3-1.5-1.9-1.3-2.5.2-.3 2.9-2.8 2.9-2.8z"/><path d="M96.5 362.2c-.5-2-1.6-1.3 1-3.1 2.2-1.5 6.6-3.7 6.6-3.7 11.1 6.9 19.5 9.6 27.4 14.4 12.3 7.5 2.6 7.5 2.6 7.5-14-7.7-24-7-37.6-15.1z"/><path d="M98.2 356.4c.7.7.8 1 3.3.8 2-.2 2.3-1.8 2.8-3.3 7.6-22.7 5.6-45.9 3.8-45.6-6.3 1.4-9 10.1-9 10.1s-3 10.7-4.5 23.4c-.3 2.3-1.3 15.7.3 17.1.2 0 3.3-2.5 3.3-2.5z"/></g><g class="G"><path d="M136.1 368.8c-4 1.3-5.4 8-4.3 10-12.6-6.1-27.5-11-40-17.2-.7-2 .5-1.4 3-3.4 2.1-1.6 8.5-6 8.5-6 10.5 5.5 23.3 13.2 32.8 16.6z"/><path d="M98.2 356.4c.7.7.8 1 3.3.8 2-.2 2.5.5 3.1-1 10.3-21.5 7-58.4-1.7-55.6-6.1 2-8.8 23.6-10.3 36.3-.3 2.3-2.5 22.6-.9 24l6.5-4.5z"/></g><path d="M164.2 386.7l-8.8 3h-30.3v-4.4h38.1l1 1.4z" class="C"/><path d="M170.7 358.5l-15.3 31.2 25.7-6.5 14.5-29.5-24.9 4.8z" class="U"/><path d="M168.1 358.5l24.4-5.3 3.1.5-25 5.4-2.5-.6z" class="V"/><path d="M155.4 389.7l15.2-30.6-2.5-.6-15.4 31.2h2.7z" class="C"/><path fill="#1a2c56" d="M417.9 633.9c68.649 0 124.3 11.506 124.3 25.7s-55.651 25.7-124.3 25.7-124.3-11.506-124.3-25.7 55.651-25.7 124.3-25.7z"/><g class="D"><path d="M352.2 613.7L339 655.5l8-43.1 5.2 1.3zm17.5-7.2l-13.2 41.8 8-43.1 5.2 1.3zm15 5.9l8 43.1-13.2-41.8 5.2-1.3zm5.4-13.1l8 43.1-13.2-41.8 5.2-1.3z"/></g><path fill="#0078a1" d="M331.4 537.9h9.4l30.6-4.6-13.8.6-26.2 4z"/><path d="M340.8 537.9h-9.4l7.6 70.2h9.4l-7.6-70.2z" class="N"/><path fill="#008dbd" d="M340.8 537.9l29.2-4.6.6 74.8h-22.2l-7.6-70.2z"/><path d="M384.9 614.7h-39.4c-3.6 0-6.6-2.9-6.6-6.6 0-3.6 2.9-6.6 6.6-6.6h39.4c3.6 0 6.6 2.9 6.6 6.6-.1 3.6-3 6.6-6.6 6.6z" class="N"/><g class="L"><path d="M368.9 581.1c22.8 4.5 47.4 10.3 52.6 13.5 4.7 3-2.8 10.8-2.8 10.8l-51.6-1.8c-4 0-2.5-23.4 1.8-22.5z"/><path d="M410.4 643.8c0-10 2.7-50.7 2.7-50.7s10.1-1.2 11.4 5.8c.7 3.6-5.6 34.8-8.1 45.2l-6-.3z"/></g><path d="M431.1 648.7l-14.7-4.6-6.1-.3-.4 6.5 10.4.6c12.3.7 10.8-2.2 10.8-2.2z" class="D"/><g class="M"><path d="M355.9 582.5c22 7.5 43.4 17.9 48.1 21.8 4.3 3.6-4.2 10.4-4.2 10.4s-37.9-7.9-44.6-10.9c-12.1-5.3-3.5-22.7.7-21.3z"/><path d="M390.4 651.7c.3-10 4.2-50.1 4.2-50.1s10.2-.2 11.3 6.8c.6 3.7-6.7 34.1-9.5 44.2l-6-.9z"/></g><path d="M411 658.5l-14.6-5.9-6.1-.9-.6 6.5 10.4 1.5c12.3 1.8 10.9-1.2 10.9-1.2z" class="D"/><path d="M404.3 559.9s.7 4.3-3.2 8.6c0-.1-3-5.8 3.2-8.6z" class="E"/><g class="F"><path d="M404.2 563.6s4.1.9 7 3.1c1.6 1.2 2.4 3.6 1.2 5.4-.9 1.3-2.7 1.8-4.2 1.3-.5-.2-1.1-.6-1.1-1.2 0-.2.1-.4.1-.7.1-.9-.6-1.7-1.4-2.1s-2-.6-2.7-1.1c-.4-.3-1.3-1.5-1.2-2 .1-.4 2.3-2.7 2.3-2.7z"/><path d="M370.6 556c-.5-1.7-1.4-1.1.7-2.6 1.8-1.3 5.4-3.4 5.4-3.4 9.7 5.3 16.9 7.2 23.7 10.9 10.7 5.8 2.5 6.2 2.5 6.2-12-5.9-20.5-4.9-32.3-11.1z"/></g><path d="M404.3 559.9c-3.3 1.3-4.2 7-3.2 8.6-10.9-4.6-23.7-8-34.4-12.7-.7-1.7.4-1.2 2.3-3 1.7-1.5 5.8-3.8 5.8-3.8 9.1 4.1 21.3 8.4 29.5 10.9z" class="G"/><g class="C"><path d="M381.7 507.7l-11.1-2.5-3.7 12 11.2 2.1 3.6-11.6z"/><path d="M384.8 568.4l-28.9-2.6c.8-13.2.6-45.5 3.8-47.7 8.4-5.9 16.9-5 23.3.1 2.5 2 2.6 36.5 1.8 50.2z"/></g><path d="M384 581.4c1.7-17.5 6.9-50.3 3.2-58.1-1.3-2.7-4-7-8.2-8.1.1.1.2.1.4.2.7 1.8-.5 4.3-4.1 4-1.6-.1-3.8-.9-6-2.9-1-.9-1.2-2.2-1.3-2.5-3.4.4-10.8 1.9-13.1 4.2-2.6 2.6-3.9 47.8-4.8 63.6l20.5 2.3c10.5 0 11.5-1.3 13.4-2.7z" class="O"/><path d="M382.4 555.5c-.7 8.9-1.9 19.8-2.9 28.1 3.9.5 3.1.8 5.7 1.5.5.1.8-.6.9-1.1 2.3-19.7 5.5-51 1.8-60.6-1.3-3.6-3.9-5.6-6.8-7.3 0 .1 2.4 25 1.3 39.4z" class="H"/><path d="M381.8 561.5c1.7-2.7 5.6-12 5.6-12l-3.2-12.1 1.4-17.6-3.6-2.9s-.6-.4-1-.6c0 0 2.4 24.9 1.3 39.3-.1 1.8-.3 3.8-.5 5.9z" class="I"/><path d="M367.1 517.9c-.3-1.2-.4-2.4.3-3.4v-.5c-3.6.6-11.4.6-12.7 4.7-1.1 3.7-6.9 57.5-7.9 75.2l22.7 1.9 3.3-37.7.2-22-5.9-18.2z" class="H"/><g class="P"><path d="M377.3 520.6c1-.1 1.9.3 2.5 1.1l.7 1.1s-.4 3.1-1.4 3.4c-.4.1-.8.1-1.1.1-.6-.1-1.2-.4-1.5-.9l-1.8-2.4.7-1.2c.3-.6 1.1-1.1 1.9-1.2z"/><path d="M379.9 569.7l-.6-44.3-2.4-.2-3.2 44 1.6 8.2c.3 1.6 1.8 1.6 2.3 0l2.3-7.7z"/></g><path d="M379.8 513.8l-1.6 4.2 2.3 4.9s2.3-4.6 1.8-5.9c-.1-.1-.9-2.2-2.5-3.2z" class="J"/><path d="M378.1 517.9l-.5 1.3 2.9 3.6-2.4-4.9z" class="Q"/><path d="M366.5 513l-6 2.1 10.1 19.4-1.3 16.3 3.1 12s3-14 1.6-25.5-2.5-18.2-7.5-24.3z" class="I"/><path d="M368.2 511.1l-3 3.4s5.2 6.6 9.3 9.6l3-5.9c0-.1-4.2-2.9-9.3-7.1z" class="J"/><path d="M384.1 483.3c-3.4-.5-6.9 0-9 1.5-4.9 3.8-3.6 9.9-4.2 15.5-.1 1-.3 3.6-.9 6.9-.1.6.8-.6 1.4-.4 4.4 1.7 7 4.2 11.4 5.9 1.2.5 3.1 1.6 4 .7.5-.5.8-1.5 1-2.1 1.1-3.7 2.8-8.1 3.6-11.5.5-2.3 1.1-4.6 1.3-6.9.1-1.9 0-3.9-1-5.5-1.3-2.2-4.4-3.6-7.6-4.1z" class="C"/><path d="M370 503c.3.1.7.1 1.2-.3.7-.5 1.6-1.3 1.9-2.1.3-1.1-.4-2.4-.4-3.5 0-.8.2-1.6.7-2.2.6-.6 1.6-.7 2.1-.1.4.4.4 1.1.9 1.4.4.3 1 .2 1.4-.1s.7-.7 1-1.1c.9-1 2.1-1.7 3.3-1.7.7 0 1.4.1 2.2.2a10.82 10.82 0 0 0 6.1-1.2c2.5-1.3 5-3.4 5.2-6.4-1.5.7-3.3-.2-4.7-1.1-2-1.2-4-2.3-6.3-2.7-2.2-.5-5.5-.7-7.4.6-.4.3-.8.6-1.2.8-1 .4-1.3.6-2.4.9-1.6.4-2.4 2.1-3 3.6-1.1 2.9-1.6 5.9-1.7 9 .1 1.1-.3 5.4 1.1 6z" class="R"/><path d="M391.6 498c.2 3.2.4 4.4.8 6.5.1.5-.2 1-.7 1-.9 0-2-.1-2.7-.1" class="C"/><path d="M376.2 501.6s-.8 5.6-.3 6.4 5.4 3.9 5.4 3.9-4.2-1.6-6.1-3.7c-1.1-1.3 1-6.6 1-6.6z" class="S"/><path d="M383 556.4s2.3 3.7.3 9.2c0-.1-4.9-4.3-.3-9.2z" class="E"/><g class="F"><path d="M384.3 559.9s4.2-.7 7.6.2c1.9.5 3.6 2.4 3.1 4.5-.3 1.5-1.8 2.8-3.4 2.8-.6 0-1.2-.2-1.4-.7-.1-.2-.1-.4-.2-.6-.2-.9-1.2-1.3-2.1-1.4s-2.1.2-3 0c-.4-.1-1.8-.9-1.9-1.4l1.3-3.4z"/><path d="M350.4 565.6c-1.1-1.4-1.7-.4-.4-2.7 1.1-1.9 3.7-5.2 3.7-5.2 11 1.2 18.4.2 26.1 1.1 12.1 1.3 4.7 4.8 4.7 4.8-13.4-.9-20.8 3.3-34.1 2z"/><path d="M352 563.4c.6.6.7.9 2.8.7 1.7-.1 1.9-1.5 2.4-2.8 6.5-19.2 4.7-38.8 3.2-38.4-5.3 1.2-7.6 8.5-7.6 8.5s-2.5 9.1-3.8 19.8c-.2 2-1.1 13.3.2 14.4.1-.1 2.8-2.2 2.8-2.2z"/></g><g class="G"><path d="M383 556.4c-2.6 2.4-1.2 8 .3 9.2-11.8-.1-25 1.6-36.7 1.3-1.2-1.3-.1-1.3 1-3.6 1-2 4.3-7.6 4.3-7.6 10.1.3 22.7 1.5 31.1.7z"/><path d="M352 563.4c.6.6.7.9 2.8.7 1.7-.1 2.1.4 2.6-.8 8.7-18.1 5.9-49.3-1.5-46.9-5.2 1.7-7.4 19.9-8.7 30.7-.2 2-2.1 19.1-.7 20.2 0-.1 5.5-3.9 5.5-3.9z"/></g><path d="M322.6 580.6h3.8v82.8h-3.8v-82.8z" class="K"/><path d="M326.5 663.4l1.8-3.5v-79.3h-1.8v82.8z" class="T"/><path d="M436.2 580.6h3.8v82.8h-3.8v-82.8z" class="K"/><path d="M440 663.4l1.8-3.5v-79.3H440v82.8z" class="T"/><path d="M299.2 575.9h165.7v6.3H299.2v-6.3z" class="K"/><path fill="#7c7d81" d="M473.1 572.2l-165.2.1-8.7 3.6H465l8.1-3.7z"/><path fill="#494a4b" d="M465 575.9v6.3l8.1-4.8v-5.2l-8.1 3.7z"/><path d="M415.2 573.8l-7.4 2.6h-25.5v-3.7h32.1l.8 1.1z" class="W"/><path d="M420.7 550.1l-12.9 26.3h.1l20.1-2.3 13.7-28.1-21 4.1z" class="U"/><path d="M418.5 550.1l20.6-4.6 2.6.5-21 4.5-2.2-.4z" class="V"/><path d="M407.8 576.4l12.9-25.9-2.2-.4-12.9 26.3h2.2z" class="W"/><path d="M462.8 515.8s-5.3 4.3-4.1 9.7c0-.1 4.1-3.1 4.1-9.7z" class="E"/><g class="F"><path d="M459.8 519.9s-.1-4-7.4-4.9c0 0-.5.9 2 2.3l4.3 2.3c.5.1.9.3 1.1.3z"/><path d="M458.3 523s-4-.1-7.1-1.7c-3.1-1.5-3.4-3.3-3.4-4.3 0-.7.1-2.8 1.2-2.1s6.7 2.1 8.1 2.6 2.9 2.3 2.9 2.6c0 .5-1.7 2.9-1.7 2.9z"/><path d="M489.4 530.5c1.3-1.1 1.7-.1.8-2.5-.7-2-2.4-5.6-2.4-5.6-10.5-.9-20.9-1-27.9-3.6-7.8-2.9-4 3.1-4 3.1 8.1 4.6 20.8 7.3 33.5 8.6z"/><path d="M489.2 526.1c-.7.4-.8.6-2.7-.1-1.5-.6-1.3-1.9-1.4-3.2-.8-19.3 6.1-36.7 7.4-36 4.5 2.5 4.6 9.8 4.6 9.8s-.1 9-1.9 19.1c-.3 1.9-2.6 12.4-4.1 13.1l-1.9-2.7z"/></g><g class="G"><path d="M462.8 515.8c-.5 1.7-2.5 8.8-4.1 9.7 8.1 3.6 23.3 5.3 34.4 6.5 1.3-1.1.4-2-.4-4.4-.7-2-3-5.9-3-5.9-9.6-.9-20-4-26.9-5.9z"/><path d="M489.2 526.1c-.7.4-.8.6-2.7-.1-1.5-.6-2-.2-2.1-1.5-1.5-15.5 6.8-45.4 12.9-41.3 4.3 2.9.8 14.4.8 14.4s.3 8-1.4 18.1c-.3 1.9-1.7 14.9-3.2 15.6-.1 0-4.3-5.2-4.3-5.2z"/></g><path d="M502.6 468.6h11.8v12.6h-11.8v-12.6z" class="C"/><path d="M493.2 550.4c-4.5 24.4-4.7 49.9-3.6 56.3 1.1 5.9 7.7.8 7.7.8s10.2-42.8 13-50.1c1.7-4.1-16.2-11.7-17.1-7z" class="L"/><path d="M503.7 551.1l9.4 56c1.1 5.9 10.4 3 10.4 3s-1.5-51.1 1.4-58.4c1.6-4.1-22-5.3-21.2-.6z" class="M"/><path d="M492.2 534.3l31-.2c.4-14.1 3.4-48.6.2-51.3-8.4-7-17.6-6.8-24.8-2-2.8 1.9-6 38.8-6.4 53.5z" class="C"/><path d="M493.7 486c1.7-2.8 4.9-7.1 9.5-7.9a.76.76 0 0 0-.4.2c-.9 1.8.1 4.6 4 4.6 1.8 0 4.1-.6 6.7-2.6 1.2-.9 1.4-2.3 1.6-2.6 3.6.8 11.4 3 13.6 5.6 2.6 3-.1 51.4-.5 68.3H492c.1-17.5-3.3-57.1 1.7-65.6z" class="O"/><path d="M492.9 486c1.8-3.7 4.6-5.6 7.9-7.2 0 0-4.8 26.4-4.8 41.8-.1 17.8 1.2 43.4 1.2 43.4H490c.1-17.4-3.6-64.4 2.9-78z" class="H"/><path d="M496 527.1c-1.5-3.1-4.9-13.3-4.9-13.3l4.5-12.7v-19l4.1-2.8s.7-.4 1.1-.5c0 0-4.8 26.4-4.8 41.8v6.5z" class="I"/><path d="M515.6 482c.4-1.2.6-2.6 0-3.6v-.5c3.8 1 12.1 1.7 13.1 6.2.9 4.1 2.3 62 1.8 80.9h-24.4l-.2-40.5 1.7-23.4 8-19.1z" class="H"/><path d="M523.6 652.3c.5-9.7-.1-42.2-.1-42.2s-10.1-8.8-10.6-4c-.3 3.6 2.7 35.6 4.1 45.8l6.6.4z" class="M"/><path d="M501.8 651c.7-9.7-3.1-50.1-3.1-50.1s-8.4 1-9 5.9c-.4 3.6 3.7 34 5.7 44.2h6.4z" class="L"/><g class="D"><path d="M479.3 654.6l16.1-3.6h6.5v6.4h-11.2c-13.2-.1-11.4-2.8-11.4-2.8zm27.4 3l7.1-3c1.3-.5 2.7-1.2 3-2.6v-.2h6.8v5.3c-5.7 2.4-12.1 3.1-18.2 2.1-.2-.7.6-1.3 1.3-1.6z"/></g><g class="P"><path d="M504.5 483.9c-1-.2-2.1.2-2.7 1l-.9 1.1s.2 3.3 1.2 3.8c.4.2.8.2 1.2.2.7 0 1.3-.3 1.7-.8l2.1-2.4-.6-1.3c-.4-.9-1.2-1.4-2-1.6z"/><path d="M497.3 536.1l4.6-47.3h2.6l-.5 47.3-2.4 8.7c-.5 1.7-2.1 1.6-2.5-.2l-1.8-8.5z"/></g><path d="M502.4 476.4l1.4 4.6-2.9 5s-2-5.1-1.4-6.4c0 0 1.1-2.3 2.9-3.2z" class="J"/><path d="M503.8 481l.5 1.3-3.4 3.7 2.9-5z" class="Q"/><path d="M516.6 476.8l6.2 2.7-12.5 19.8v17.5l-4.4 12.6s-2-15.2.5-27.3c2.6-12.2 4.4-19.2 10.2-25.3z" class="I"/><path d="M515 474.6l2.9 3.8s-6.2 6.6-10.8 9.5l-2.7-6.6s4.8-2.7 10.6-6.7z" class="J"/><path d="M511.9 441c3.5 1.1 6.7 3.3 7.8 5.8 2.8 6-.6 11.4-2.7 17.1-.4 1-2.1 2.6-2.7 5.7-.1.6-1 .1-1.6 0-5-.5-8.7.7-13.8.2-1.3-.1-3.7.1-4.2-1.2-.3-.7-.1-1.8 0-2.5.7-4 1.2-9.1 2-12.7.6-2.4 1.2-4.9 2.1-7.2.8-1.9 1.8-3.7 3.6-4.8 2.5-1.6 6.1-1.5 9.5-.4z" class="C"/><path d="M515.9 466.7c-.4 0-.7-.3-1-.9-.4-.8-.9-2.1-.8-3 .2-1.2 1.6-2.1 2.1-3.2.4-.8.6-1.6.4-2.5-.3-.8-1.2-1.4-2-1.1-.6.2-.9.8-1.5.9-.5.1-1.1-.3-1.3-.8-.3-.5-.3-1-.5-1.5-.4-1.3-1.2-2.6-2.4-3.3-.7-.4-1.4-.6-2.2-.9-2.1-.8-3.9-2.2-5.2-4-1.7-2.4-3.1-5.7-2-8.6 1.1 1.4 3.3 1.3 5.1 1.2 2.4-.2 4.9-.2 7.3.4s5.6 2 6.7 4.2c.2.5.4 1 .8 1.4.7.9 1 1.2 1.8 2 1.3 1.2 1.3 3.1 1.1 4.9-.4 3.3-1.3 6.5-2.7 9.4-.4 1.2-2.1 5.5-3.7 5.4z" class="R"/><path d="M497.6 451.5c-1.7 3-2.5 4-3.9 5.8a.95.95 0 0 0 .2 1.3c.8.5 1.9.9 2.6 1.1" class="C"/><path d="M510.6 462.4s-1.9 5.7-2.8 6.3-7.1 1.1-7.1 1.1 4.8.5 7.6-.6c1.8-.7 2.3-6.8 2.3-6.8z" class="S"/><path d="M496.3 526.4s-4.8 5.9-2.3 11.6c-.1-.1 3.8-4.3 2.3-11.6z" class="E"/><g class="F"><path d="M494 531.6s-1-4.4-9.2-3.8c0 0-.3 1.1 2.7 2.1l5.3 1.6c.5.1.9.1 1.2.1z"/><path d="M493 535.4s-4.5.8-8.2-.2-4.5-2.8-4.7-3.9c-.1-.7-.5-3.1.9-2.6s7.9.7 9.5 1 3.7 1.9 3.7 2.2c.1.4-1.2 3.5-1.2 3.5z"/><path d="M528.9 536.6c1.2-1.5 1.8-.5.4-2.9-1.2-2-4-5.6-4-5.6-11.7 1.4-23.2 3.6-31.5 2.4-9.2-1.4-3.7 4.3-3.7 4.3 9.9 3.1 24.6 3.2 38.8 1.8z"/><path d="M527.7 531.8c-.7.6-.8.9-3 .5-1.8-.3-1.9-1.8-2.3-3.2-5.2-21-1.6-41.8-.1-41.3 5.5 1.7 7.3 9.8 7.3 9.8s1.9 9.9 2.3 21.4c.1 2.1 0 14.2-1.5 15.4-.1-.1-2.7-2.6-2.7-2.6z"/></g><g class="G"><path d="M496.3 526.4c-.1 1.9-.8 10.2-2.3 11.6 9.7 2.1 26.9.5 39.3-.7 1.2-1.5 0-2.3-1.5-4.7-1.2-2-4.7-5.8-4.7-5.8-10.7 1.2-22.8.2-30.8-.4z"/><path d="M527.7 531.8c-.7.6-.8.9-3 .5-1.8-.3-2.3.3-2.7-1.1-7.7-20.1-2-53.1 5.7-49.9 5.4 2.2 6.2 21.9 6.5 33.5.1 2.1.8 20.8-.7 21.9 0-.1-5.8-4.9-5.8-4.9z"/></g><path d="M466.6 525.2l8.6 3h30v-4.3h-37.7l-.9 1.3z" class="W"/><path d="M460.1 497.3l15.1 30.9-25.4-6.4-14.3-29.2 24.6 4.7z" class="U"/><path d="M462.7 497.3l-24.1-5.3-3.1.6 24.7 5.3 2.5-.6z" class="V"/><path d="M475.2 528.2l-15-30.3 2.5-.6 15.2 30.9h-2.7z" class="W"/><g fill="#e6e7e8"><path d="M382.437 21.664c43.166 0 78.172 19.923 78.172 44.494 0 11.574-7.779 22.104-20.491 29.979.664 2.846 1.896 5.787 3.983 8.538 8.064 11.005 27.608 20.017 27.608 20.017s-29.979-12.712-51.894-19.448c-11.1 3.415-23.812 5.408-37.378 5.408-43.166 0-78.174-19.923-78.174-44.494s35.008-44.494 78.174-44.494zM234.44 187.686c40.604 0 73.524 19.923 73.524 44.494s-32.92 44.494-73.524 44.494c-12.713 0-24.666-1.993-35.197-5.408-20.586 6.736-48.763 19.448-48.763 19.448s18.31-9.012 25.9-20.017c1.897-2.846 3.036-5.692 3.7-8.538-11.954-7.875-19.259-18.405-19.259-29.979.095-24.571 33.015-44.494 73.619-44.494z"/></g></g><path d="M296.134 70h.985l2.083-6.229c.021-.062.041-.124.052-.197a1.12 1.12 0 0 0 .052-.218l.114.415L301.493 70h.995l2.55-8.167h-.86c-.104 0-.176.021-.249.083-.062.052-.104.114-.124.176l-1.7 5.68-.073.321c-.01.114-.041.228-.062.352a6.97 6.97 0 0 0-.176-.674l-1.917-5.68c-.021-.073-.062-.135-.124-.187-.073-.052-.145-.073-.249-.073h-.321a.37.37 0 0 0-.238.083c-.062.052-.114.114-.135.176l-1.917 5.68c-.041.093-.073.207-.093.332l-.083.373-.073-.373c-.021-.124-.052-.228-.083-.332l-1.679-5.68a.48.48 0 0 0-.135-.187c-.062-.052-.145-.073-.249-.073h-.912l2.55 8.167z" class="B"/><use xlink:href="#B" class="B"/><use xlink:href="#C" class="B"/><use xlink:href="#D" class="B"/><use xlink:href="#E" class="B"/><use xlink:href="#F" class="B"/><path d="M337.106 69.948a1.85 1.85 0 0 0 .632-.383l-.301-.487c-.041-.062-.083-.093-.135-.093-.031 0-.073.01-.114.041-.031.031-.083.062-.145.093a.57.57 0 0 1-.197.093.79.79 0 0 1-.28.052.61.61 0 0 1-.456-.187c-.114-.114-.176-.29-.176-.539v-3.462h1.658v-.736h-1.658v-1.99h-.508c-.073 0-.124.021-.166.052-.041.041-.062.083-.073.145l-.238 1.783-.943.114v.404c0 .083.021.135.062.176.041.031.093.052.155.052h.694v3.534c0 .477.124.84.373 1.099.238.259.591.383 1.047.383.259 0 .518-.052.767-.145zm2.75.052v-4.249c.218-.249.466-.446.726-.591a1.69 1.69 0 0 1 .84-.218c.404 0 .715.124.912.363s.301.58.301 1.016V70h1.016v-3.679c0-.321-.041-.622-.124-.891a1.95 1.95 0 0 0-.373-.694 1.63 1.63 0 0 0-.601-.446c-.238-.104-.518-.155-.84-.155a2.25 2.25 0 0 0-1.036.238 2.96 2.96 0 0 0-.819.632v-3.4h-1.016V70h1.016z" class="B"/><use xlink:href="#G" class="B"/><path d="M352.679 61.833v.933h2.653V70h1.109v-7.234h2.633v-.933h-6.395zM361.095 70v-3.679c.166-.394.363-.684.601-.891a1.29 1.29 0 0 1 .881-.311 1.81 1.81 0 0 1 .466.052c.104.041.187.062.238.062.093 0 .155-.052.176-.145l.135-.757a1.91 1.91 0 0 0-.363-.155c-.124-.031-.269-.052-.425-.052a1.61 1.61 0 0 0-1.026.342c-.29.218-.539.539-.736.943l-.062-.902c-.021-.104-.052-.176-.093-.218s-.114-.062-.228-.062h-.58V70h1.016zm7.818-3.69a2.98 2.98 0 0 0-.124-.891 1.99 1.99 0 0 0-.394-.694 1.78 1.78 0 0 0-.632-.446c-.249-.104-.529-.155-.86-.155-.446 0-.85.073-1.223.228a3.27 3.27 0 0 0-1.026.694l.176.321c.031.052.073.093.124.135a.35.35 0 0 0 .176.052.47.47 0 0 0 .269-.093 3.52 3.52 0 0 1 .321-.207c.124-.083.269-.155.435-.218s.373-.093.622-.093c.383 0 .663.114.85.342.197.238.29.57.29 1.026v.446c-.653.021-1.202.073-1.658.176-.446.104-.819.238-1.099.404s-.477.352-.601.56c-.124.218-.187.435-.187.663a1.75 1.75 0 0 0 .124.684 1.44 1.44 0 0 0 .342.477 1.52 1.52 0 0 0 .508.28 2.12 2.12 0 0 0 .632.093c.228 0 .425-.021.601-.062a1.93 1.93 0 0 0 .508-.166c.166-.073.321-.166.456-.269l.446-.373.114.539c.021.093.062.166.124.197s.145.041.238.041h.446v-3.69zm-2.995 3.016a.9.9 0 0 1-.301-.145.8.8 0 0 1-.197-.28c-.052-.104-.073-.238-.073-.394s.041-.301.135-.425a1.04 1.04 0 0 1 .446-.342c.207-.093.477-.166.798-.228.332-.062.726-.093 1.192-.114V68.6a3.52 3.52 0 0 1-.352.332 1.75 1.75 0 0 1-.373.238 2.84 2.84 0 0 1-.415.155c-.155.031-.311.052-.497.052a1.4 1.4 0 0 1-.363-.052zm4.65-5.099V70h1.016v-5.773h-1.016zm1.182-2.094c-.031-.093-.093-.166-.155-.238-.062-.062-.145-.114-.228-.155a.67.67 0 0 0-.28-.052c-.104 0-.197.01-.28.052a1.11 1.11 0 0 0-.228.155.95.95 0 0 0-.155.238c-.041.083-.062.176-.062.28a.69.69 0 0 0 .062.28 1.11 1.11 0 0 0 .155.228 1.11 1.11 0 0 0 .228.155.79.79 0 0 0 .28.052.89.89 0 0 0 .28-.052c.083-.041.166-.093.228-.155.062-.073.124-.145.155-.228a.69.69 0 0 0 .062-.28c0-.104-.021-.197-.062-.28zm1.737-.528V70h1.016v-8.395h-1.016zm2.442 1.389c.052.083.124.124.218.124.041 0 .104-.031.176-.083a1.58 1.58 0 0 1 .269-.187 1.79 1.79 0 0 1 .425-.187 1.69 1.69 0 0 1 .591-.093 1.5 1.5 0 0 1 .487.083.98.98 0 0 1 .383.207c.114.093.207.207.269.342a1.04 1.04 0 0 1 .093.446c0 .228-.041.425-.124.591s-.197.311-.332.446a3.35 3.35 0 0 1-.415.363c-.155.104-.29.218-.425.321a1.68 1.68 0 0 0-.321.352.67.67 0 0 0-.135.425v.062l.073.943h.694l.104-.871a.59.59 0 0 1 .166-.342c.093-.104.218-.207.352-.311l.435-.321a2.68 2.68 0 0 0 .425-.415c.135-.155.238-.342.332-.549.083-.207.124-.456.124-.746a1.81 1.81 0 0 0-.155-.767 1.93 1.93 0 0 0-.446-.591 1.95 1.95 0 0 0-.663-.363 2.4 2.4 0 0 0-.829-.135 3.18 3.18 0 0 0-.643.062 3.11 3.11 0 0 0-.549.187c-.166.073-.321.155-.466.259l-.383.311.269.435zm.902 6.664c.031.083.083.155.145.218a.5.5 0 0 0 .228.155.62.62 0 0 0 .28.052.67.67 0 0 0 .28-.052.64.64 0 0 0 .228-.155c.062-.062.114-.135.145-.218a.67.67 0 0 0 .052-.28c0-.104-.01-.197-.052-.28-.031-.093-.083-.166-.145-.228a.64.64 0 0 0-.228-.155.69.69 0 0 0-.28-.062c-.104 0-.197.021-.28.062a.5.5 0 0 0-.228.155c-.062.062-.114.135-.145.228-.041.083-.062.176-.062.28a.69.69 0 0 0 .062.28zM188.133 184.833h-1.109V193h1.109v-8.167z" class="B"/><use xlink:href="#H" class="B"/><path d="M199.019 192.948a1.85 1.85 0 0 0 .632-.383l-.301-.487c-.041-.062-.083-.093-.135-.093-.031 0-.073.01-.114.041-.031.031-.083.062-.145.093a.57.57 0 0 1-.197.093.79.79 0 0 1-.28.052.61.61 0 0 1-.456-.187c-.114-.114-.176-.29-.176-.539v-3.462h1.658v-.736h-1.658v-1.99h-.508c-.073 0-.124.021-.166.052-.041.041-.062.083-.073.145l-.238 1.783-.943.114v.404c0 .083.021.135.062.176.041.031.093.052.155.052h.694v3.534c0 .477.124.84.373 1.099.238.259.591.383 1.047.383.259 0 .518-.052.767-.145zm2.896-5.597a2.41 2.41 0 0 0-.85.611 2.53 2.53 0 0 0-.529.902c-.124.352-.187.726-.187 1.13 0 .497.062.943.197 1.327.145.383.332.705.58.964a2.32 2.32 0 0 0 .871.591 2.92 2.92 0 0 0 1.099.207 3.19 3.19 0 0 0 .632-.062 3.06 3.06 0 0 0 .622-.155 2.82 2.82 0 0 0 .56-.28c.177-.114.332-.238.456-.394l-.29-.373c-.041-.062-.104-.093-.197-.093-.062 0-.135.031-.228.083-.083.062-.197.124-.332.197-.135.062-.29.124-.477.187s-.404.093-.653.093a2.08 2.08 0 0 1-.746-.135 1.59 1.59 0 0 1-.57-.404 2.11 2.11 0 0 1-.373-.674c-.093-.27-.145-.591-.155-.954h3.845c.093 0 .166-.031.197-.083s.052-.155.052-.321a3.3 3.3 0 0 0-.176-1.099c-.124-.321-.29-.591-.508-.808a2.08 2.08 0 0 0-.757-.497 2.6 2.6 0 0 0-.954-.176c-.415 0-.798.073-1.13.218zm1.772.643c.176.083.332.197.456.332.124.145.218.311.28.508.073.197.104.415.104.653h-3.14c.062-.508.238-.902.518-1.182.29-.28.674-.425 1.161-.425.228 0 .435.041.622.114zm4.055 5.006v-3.679c.166-.394.363-.684.601-.891a1.29 1.29 0 0 1 .881-.311 1.81 1.81 0 0 1 .466.052c.104.041.187.062.238.062.093 0 .155-.052.176-.145l.135-.757a1.91 1.91 0 0 0-.363-.155c-.124-.031-.269-.052-.425-.052a1.61 1.61 0 0 0-1.026.342c-.29.218-.539.539-.736.943l-.062-.902c-.021-.104-.052-.176-.093-.218s-.114-.062-.228-.062h-.58V193h1.016zm4.74-5.649a2.41 2.41 0 0 0-.85.611 2.53 2.53 0 0 0-.529.902c-.124.352-.187.726-.187 1.13 0 .497.062.943.197 1.327.145.383.332.705.58.964a2.32 2.32 0 0 0 .871.591 2.92 2.92 0 0 0 1.099.207 3.19 3.19 0 0 0 .632-.062 3.06 3.06 0 0 0 .622-.155 2.82 2.82 0 0 0 .56-.28c.177-.114.332-.238.456-.394l-.29-.373c-.041-.062-.104-.093-.197-.093-.062 0-.135.031-.228.083-.083.062-.197.124-.332.197-.135.062-.29.124-.477.187s-.404.093-.653.093a2.08 2.08 0 0 1-.746-.135 1.59 1.59 0 0 1-.57-.404 2.11 2.11 0 0 1-.373-.674c-.093-.27-.145-.591-.155-.954h3.845c.093 0 .166-.031.197-.083s.052-.155.052-.321a3.3 3.3 0 0 0-.176-1.099c-.124-.321-.29-.591-.508-.808a2.08 2.08 0 0 0-.757-.497 2.6 2.6 0 0 0-.954-.176c-.415 0-.798.073-1.13.218zm1.772.643c.176.083.332.197.456.332.124.145.218.311.28.508.073.197.104.415.104.653h-3.14c.062-.508.238-.902.518-1.182.29-.28.674-.425 1.161-.425.228 0 .435.041.622.114zm6.577-.187a2.5 2.5 0 0 0-.777-.497 2.88 2.88 0 0 0-1.026-.176c-.332 0-.622.041-.871.135a1.96 1.96 0 0 0-.643.373c-.177.155-.311.332-.404.529a1.52 1.52 0 0 0-.135.643 1.46 1.46 0 0 0 .124.632 1.54 1.54 0 0 0 .342.435c.145.114.301.207.487.29l.549.207.549.176a2.62 2.62 0 0 1 .487.187c.135.083.249.166.332.269.093.104.135.238.135.404 0 .124-.021.249-.073.363s-.124.207-.218.301a1.29 1.29 0 0 1-.373.207c-.145.052-.321.073-.518.073-.228 0-.425-.021-.58-.073a2.35 2.35 0 0 1-.394-.176l-.28-.176c-.073-.062-.145-.083-.207-.083-.073 0-.124.01-.166.041a.3.3 0 0 0-.114.114l-.238.383c.228.207.508.373.829.508a3.1 3.1 0 0 0 1.099.197c.352 0 .663-.052.933-.145a2.01 2.01 0 0 0 .684-.394 1.56 1.56 0 0 0 .425-.58 1.94 1.94 0 0 0 .145-.736c0-.238-.041-.435-.135-.601a1.3 1.3 0 0 0-.332-.415c-.145-.114-.301-.218-.487-.29l-.549-.207-.549-.176a2.84 2.84 0 0 1-.477-.187 1.29 1.29 0 0 1-.342-.259.58.58 0 0 1-.124-.373c0-.114.021-.228.073-.332a.76.76 0 0 1 .228-.259 1.02 1.02 0 0 1 .352-.176c.135-.052.29-.073.456-.073.197 0 .373.021.518.073.145.041.269.083.373.135l.259.145c.073.041.135.062.197.062.093 0 .166-.041.207-.124l.228-.373zm3.931 5.141a1.85 1.85 0 0 0 .632-.383l-.301-.487c-.041-.062-.083-.093-.135-.093-.031 0-.073.01-.114.041-.031.031-.083.062-.145.093a.57.57 0 0 1-.197.093.79.79 0 0 1-.28.052.61.61 0 0 1-.456-.187c-.114-.114-.176-.29-.176-.539v-3.462h1.658v-.736h-1.658v-1.99h-.508c-.073 0-.124.021-.166.052-.041.041-.062.083-.073.145l-.238 1.783-.943.114v.404c0 .083.021.135.062.176.041.031.093.052.155.052h.694v3.534c0 .477.124.84.373 1.099.238.259.591.383 1.047.383.259 0 .518-.052.767-.145zm1.849-5.721V193h1.016v-5.773h-1.016zm1.182-2.094c-.031-.093-.093-.166-.155-.238-.062-.062-.145-.114-.228-.155a.67.67 0 0 0-.28-.052c-.104 0-.197.01-.28.052a1.11 1.11 0 0 0-.228.155.95.95 0 0 0-.155.238c-.041.083-.062.176-.062.28a.69.69 0 0 0 .062.28 1.11 1.11 0 0 0 .383.383.79.79 0 0 0 .28.052.89.89 0 0 0 .28-.052c.083-.041.166-.093.228-.155.062-.073.124-.145.155-.228a.69.69 0 0 0 .062-.28c0-.104-.021-.197-.062-.28zm2.638 7.867v-4.249c.218-.249.466-.446.726-.591a1.69 1.69 0 0 1 .84-.218c.404 0 .715.124.912.363s.301.58.301 1.016V193h1.016v-3.679c0-.321-.041-.622-.124-.891a1.95 1.95 0 0 0-.373-.694 1.63 1.63 0 0 0-.601-.446c-.238-.104-.518-.155-.84-.155a2.12 2.12 0 0 0-1.068.259 3.05 3.05 0 0 0-.84.674l-.083-.632c-.041-.135-.124-.207-.269-.207h-.611V193h1.016z" class="B"/><use xlink:href="#I" class="B"/><use xlink:href="#J" class="B"/><path d="M189.837 201.944v5.773h1.016v-5.773h-1.016zm1.182-2.094c-.031-.093-.093-.166-.155-.238-.062-.062-.145-.114-.228-.155a.67.67 0 0 0-.28-.052c-.104 0-.197.01-.28.052a1.11 1.11 0 0 0-.228.155.95.95 0 0 0-.155.238c-.041.083-.062.176-.062.28a.69.69 0 0 0 .062.28 1.11 1.11 0 0 0 .383.383.79.79 0 0 0 .28.052.89.89 0 0 0 .28-.052c.083-.041.166-.093.228-.155a.81.81 0 0 0 .155-.228.69.69 0 0 0 .062-.28c0-.104-.021-.197-.062-.28zm4.141 7.816a1.85 1.85 0 0 0 .632-.383l-.301-.487c-.041-.062-.083-.093-.135-.093-.031 0-.073.01-.114.041-.031.031-.083.062-.145.093a.57.57 0 0 1-.197.093.79.79 0 0 1-.28.052.61.61 0 0 1-.456-.187c-.114-.114-.176-.29-.176-.539v-3.462h1.658v-.736h-1.658v-1.99h-.508c-.073 0-.124.021-.166.052-.041.041-.062.083-.073.145l-.238 1.783-.943.114v.404c0 .083.021.135.062.176.041.031.093.052.155.052h.694v3.534c0 .477.124.84.373 1.099.238.259.591.383 1.047.383.259 0 .518-.052.767-.145z" class="B"/><use xlink:href="#K" class="B"/><use xlink:href="#L" class="B"/><use xlink:href="#M" class="B"/><path d="M217.21 199.322v8.395h1.016v-8.395h-1.016z" class="B"/><use xlink:href="#N" class="B"/><path d="M229.283 207.717a.24.24 0 0 0 .259-.218l.052-.518c.197.249.425.456.684.601s.57.218.943.218a2.29 2.29 0 0 0 1.047-.238 2.13 2.13 0 0 0 .788-.632 2.73 2.73 0 0 0 .497-.943 4.04 4.04 0 0 0 .166-1.192c0-.477-.052-.902-.155-1.275a2.62 2.62 0 0 0-.435-.922 1.79 1.79 0 0 0-.684-.56c-.269-.125-.58-.187-.912-.187-.394 0-.757.083-1.057.259-.311.166-.591.383-.829.663v-3.451h-1.016v8.395h.653zm2.539-4.933c.187.073.342.207.466.373a1.86 1.86 0 0 1 .28.663c.073.269.104.601.104.974 0 .705-.145 1.254-.435 1.638s-.705.58-1.244.58a1.7 1.7 0 0 1-.736-.155c-.228-.104-.425-.28-.611-.529v-2.798a2.65 2.65 0 0 1 .684-.643 1.61 1.61 0 0 1 .871-.228c.238 0 .446.041.622.124zm4.3-.715a2.41 2.41 0 0 0-.85.611 2.53 2.53 0 0 0-.529.902c-.124.352-.187.726-.187 1.13 0 .497.062.943.197 1.327.145.383.332.705.58.964a2.32 2.32 0 0 0 .871.591 2.92 2.92 0 0 0 1.099.207 3.19 3.19 0 0 0 .632-.062 3.06 3.06 0 0 0 .622-.155 2.82 2.82 0 0 0 .56-.28c.177-.114.332-.238.456-.394l-.29-.373c-.041-.062-.104-.093-.197-.093-.062 0-.135.031-.228.083-.083.062-.197.124-.332.197-.135.062-.29.124-.477.187s-.404.093-.653.093a2.08 2.08 0 0 1-.746-.135 1.59 1.59 0 0 1-.57-.404 2.11 2.11 0 0 1-.373-.674c-.093-.27-.145-.591-.155-.954h3.845c.093 0 .166-.031.197-.083s.052-.155.052-.321a3.3 3.3 0 0 0-.176-1.099c-.124-.321-.29-.591-.508-.808a2.08 2.08 0 0 0-.757-.497 2.6 2.6 0 0 0-.954-.176c-.415 0-.798.073-1.13.218zm1.772.643c.176.083.332.197.456.332.124.145.218.311.28.508.073.197.104.415.104.653h-3.14c.062-.508.238-.902.518-1.182.29-.28.674-.425 1.161-.425.228 0 .435.041.622.114z" class="B"/><use xlink:href="#O" class="B"/><path d="M200.432 215.75a2.41 2.41 0 0 0-.85.611 2.53 2.53 0 0 0-.529.902c-.124.352-.187.726-.187 1.13 0 .497.062.943.197 1.327.145.383.332.705.58.964a2.32 2.32 0 0 0 .871.591 2.92 2.92 0 0 0 1.099.207 3.19 3.19 0 0 0 .632-.062 3.06 3.06 0 0 0 .622-.155 2.82 2.82 0 0 0 .56-.28c.177-.114.332-.238.456-.394l-.29-.373c-.041-.062-.104-.093-.197-.093-.062 0-.135.031-.228.083-.083.062-.197.124-.332.197-.135.062-.29.124-.477.187s-.404.093-.653.093a2.08 2.08 0 0 1-.746-.135 1.59 1.59 0 0 1-.57-.404 2.11 2.11 0 0 1-.373-.674c-.093-.27-.145-.591-.155-.954h3.845c.093 0 .166-.031.197-.083s.052-.155.052-.321a3.3 3.3 0 0 0-.176-1.099c-.124-.321-.29-.591-.508-.808a2.08 2.08 0 0 0-.757-.497 2.6 2.6 0 0 0-.954-.176c-.415 0-.798.073-1.13.218zm1.772.643c.176.083.332.197.456.332.124.145.218.311.28.508.073.197.104.415.104.653h-3.14c.062-.508.238-.902.518-1.182.29-.28.674-.425 1.161-.425.228 0 .435.041.622.114zm3.156-3.39v8.395h1.016v-8.395h-1.016zm3.819 10.354v-2.56a2.14 2.14 0 0 0 .674.508c.249.114.56.176.912.176a2.32 2.32 0 0 0 1.047-.238c.311-.145.57-.363.788-.632a2.9 2.9 0 0 0 .487-.943 4.04 4.04 0 0 0 .166-1.192 5.26 5.26 0 0 0-.145-1.275c-.104-.363-.249-.674-.446-.922-.187-.249-.415-.435-.684-.57a2.13 2.13 0 0 0-.902-.187 2.24 2.24 0 0 0-1.099.269c-.321.187-.601.425-.85.726l-.083-.684c-.041-.135-.124-.207-.269-.207h-.611v7.732h1.016zm2.177-6.892c.187.073.342.207.466.373.124.176.218.394.29.663.062.269.093.601.093.974 0 .705-.145 1.254-.435 1.638-.28.383-.694.58-1.233.58a1.78 1.78 0 0 1-.746-.155c-.218-.104-.425-.28-.611-.529v-2.798a2.65 2.65 0 0 1 .684-.643 1.61 1.61 0 0 1 .871-.228c.238 0 .446.041.622.124zm4.355 4.933v-4.923h1.638v-.736h-1.679v-.529a2.1 2.1 0 0 1 .083-.622 1.1 1.1 0 0 1 .238-.404.98.98 0 0 1 .373-.228c.135-.041.301-.062.477-.062h.176c.104 0 .197-.01.249-.031.062-.01.093-.052.104-.135l.021-.508a2.25 2.25 0 0 0-.715-.114c-.311 0-.58.052-.829.145a1.64 1.64 0 0 0-.622.394c-.166.176-.301.394-.394.653s-.145.549-.145.881v.56h-.912v.415a.22.22 0 0 0 .083.176c.052.041.114.062.197.083l.632.073v4.913h1.026zm2.453-5.773v3.679a3.11 3.11 0 0 0 .124.902 1.96 1.96 0 0 0 .363.684 1.76 1.76 0 0 0 .611.446c.238.104.518.155.84.155.394 0 .757-.083 1.068-.259.311-.166.591-.394.84-.663l.083.622c.041.135.135.207.269.207h.611v-5.773h-1.016v4.26a2.5 2.5 0 0 1-.726.58 1.69 1.69 0 0 1-.84.218c-.404 0-.705-.124-.912-.363-.197-.238-.301-.58-.301-1.016v-3.679h-1.016zm6.588-2.622v8.395h1.016v-8.395h-1.016zm2.919 0v8.395h1.016v-8.395h-1.016z" class="B"/><use xlink:href="#P" class="B"/><path d="M232.622 221.056c.031.083.083.155.145.218a.5.5 0 0 0 .228.155.62.62 0 0 0 .28.052.67.67 0 0 0 .28-.052.64.64 0 0 0 .228-.155c.062-.062.114-.135.145-.218a.67.67 0 0 0 .052-.28c0-.104-.01-.197-.052-.28-.031-.093-.083-.166-.145-.228a.64.64 0 0 0-.228-.155.69.69 0 0 0-.28-.062c-.104 0-.197.021-.28.062a.5.5 0 0 0-.228.155c-.062.062-.114.135-.145.228-.041.083-.062.176-.062.28a.69.69 0 0 0 .062.28zm2.418 0c.031.083.083.155.145.218a.5.5 0 0 0 .228.155.62.62 0 0 0 .28.052.67.67 0 0 0 .28-.052.64.64 0 0 0 .228-.155c.062-.062.114-.135.145-.218a.67.67 0 0 0 .052-.28c0-.104-.01-.197-.052-.28-.031-.093-.083-.166-.145-.228a.64.64 0 0 0-.228-.155.69.69 0 0 0-.28-.062c-.104 0-.197.021-.28.062a.5.5 0 0 0-.228.155c-.062.062-.114.135-.145.228-.041.083-.062.176-.062.28a.69.69 0 0 0 .062.28zm134.695 124.277v.933h2.653v7.234h1.109v-7.234h2.633v-.933h-6.395zm8.602 2.508a2.47 2.47 0 0 0-.871.601c-.238.259-.425.57-.56.943-.124.363-.187.777-.187 1.223 0 .456.062.871.187 1.233a2.8 2.8 0 0 0 .56.933 2.47 2.47 0 0 0 .871.601c.332.135.715.207 1.14.207a3.1 3.1 0 0 0 1.14-.207 2.47 2.47 0 0 0 .871-.601c.238-.259.415-.57.539-.933.135-.363.197-.777.197-1.233 0-.446-.062-.86-.197-1.223-.124-.373-.301-.684-.539-.943a2.47 2.47 0 0 0-.871-.601 3.1 3.1 0 0 0-1.14-.207c-.425 0-.808.073-1.14.207zm.383 4.799a1.5 1.5 0 0 1-.529-.425c-.145-.187-.249-.415-.321-.684s-.104-.57-.104-.912a3.56 3.56 0 0 1 .104-.922c.073-.269.176-.497.321-.684a1.53 1.53 0 0 1 .529-.435 1.9 1.9 0 0 1 .757-.145c.57 0 .995.197 1.275.58s.425.912.425 1.606c0 .684-.145 1.213-.425 1.596s-.705.57-1.275.57c-.29 0-.539-.052-.757-.145zm5.768.86v-4.301a2.1 2.1 0 0 1 .591-.549c.218-.135.446-.207.694-.207.363 0 .632.114.819.342s.28.58.28 1.036v3.679h1.016v-3.679c0-.228.031-.425.104-.601a1.19 1.19 0 0 1 .269-.425c.114-.114.238-.207.394-.259.145-.062.311-.093.477-.093.373 0 .663.114.86.352s.301.58.301 1.026v3.679h1.005v-3.679c0-.342-.041-.653-.124-.933-.093-.269-.218-.497-.383-.684a1.54 1.54 0 0 0-.601-.425c-.238-.093-.508-.145-.808-.145-.197 0-.383.021-.57.073a1.71 1.71 0 0 0-.518.218c-.166.093-.311.218-.446.373a2.11 2.11 0 0 0-.311.539c-.104-.363-.28-.663-.518-.881-.249-.207-.56-.321-.954-.321-.352 0-.653.083-.922.249a3.19 3.19 0 0 0-.715.643l-.073-.591c-.041-.135-.124-.207-.269-.207h-.611v5.773h1.016zm8.097-.415c.031.083.083.155.145.218a.5.5 0 0 0 .207.145.68.68 0 0 0 .259.052h.083a2 2 0 0 1-.114.352 2.06 2.06 0 0 1-.166.301 2.59 2.59 0 0 1-.187.249l-.145.166c-.052.052-.073.104-.073.155 0 .062.021.114.073.155l.166.166c.176-.145.332-.301.466-.477.135-.166.238-.342.332-.518.093-.187.166-.363.218-.549a2.49 2.49 0 0 0 .073-.539.98.98 0 0 0-.052-.311.68.68 0 0 0-.135-.259.53.53 0 0 0-.218-.176.71.71 0 0 0-.301-.062.79.79 0 0 0-.28.052.5.5 0 0 0-.207.145.54.54 0 0 0-.145.197.7.7 0 0 0-.041.249c0 .104.01.197.041.29z" class="B"/><use xlink:href="#Q" class="B"/><path d="M367.641 362.569a2.41 2.41 0 0 0-.85.611 2.53 2.53 0 0 0-.529.902c-.124.352-.187.726-.187 1.13 0 .497.062.943.197 1.327.145.383.332.705.58.964a2.32 2.32 0 0 0 .871.591 2.92 2.92 0 0 0 1.099.207 3.19 3.19 0 0 0 .632-.062 3.06 3.06 0 0 0 .622-.155 2.82 2.82 0 0 0 .56-.28c.177-.114.332-.238.456-.394l-.29-.373c-.041-.062-.104-.093-.197-.093-.062 0-.135.031-.228.083-.083.062-.197.124-.332.197-.135.062-.29.124-.477.187s-.404.093-.653.093a2.08 2.08 0 0 1-.746-.135 1.59 1.59 0 0 1-.57-.404 2.11 2.11 0 0 1-.373-.674c-.093-.27-.145-.591-.155-.954h3.845c.093 0 .166-.031.197-.083s.052-.155.052-.321a3.3 3.3 0 0 0-.176-1.099c-.124-.321-.29-.591-.508-.808a2.08 2.08 0 0 0-.757-.497 2.6 2.6 0 0 0-.954-.176c-.415 0-.798.073-1.13.218zm1.772.643c.176.083.332.197.456.332.124.145.218.311.28.508.073.197.104.415.104.653h-3.14c.062-.508.238-.902.518-1.182.29-.28.674-.425 1.161-.425.228 0 .435.041.622.114zm8.776-.187a2.5 2.5 0 0 0-.777-.497 2.88 2.88 0 0 0-1.026-.176c-.332 0-.622.041-.871.135a1.96 1.96 0 0 0-.643.373c-.177.155-.311.332-.404.529a1.52 1.52 0 0 0-.135.643 1.46 1.46 0 0 0 .124.632 1.54 1.54 0 0 0 .342.435c.145.114.301.207.487.29l.549.207.549.176a2.62 2.62 0 0 1 .487.187c.135.083.249.166.332.269.093.104.135.238.135.404 0 .124-.021.249-.073.363s-.124.207-.218.301a1.29 1.29 0 0 1-.373.207c-.145.052-.321.073-.518.073-.228 0-.425-.021-.58-.073a2.35 2.35 0 0 1-.394-.176l-.28-.176c-.073-.062-.145-.083-.207-.083-.073 0-.124.01-.166.041a.3.3 0 0 0-.114.114l-.238.383c.228.207.508.373.829.508a3.1 3.1 0 0 0 1.099.197c.352 0 .663-.052.933-.145a2.01 2.01 0 0 0 .684-.394 1.56 1.56 0 0 0 .425-.58 1.94 1.94 0 0 0 .145-.736c0-.238-.041-.435-.135-.601a1.3 1.3 0 0 0-.332-.415c-.145-.114-.301-.218-.487-.29l-.549-.207-.549-.176a2.84 2.84 0 0 1-.477-.187 1.29 1.29 0 0 1-.342-.259.58.58 0 0 1-.124-.373c0-.114.021-.228.073-.332a.76.76 0 0 1 .228-.259 1.02 1.02 0 0 1 .352-.176c.135-.052.29-.073.456-.073.197 0 .373.021.518.073.145.041.269.083.373.135l.259.145c.073.041.135.062.197.062.093 0 .166-.041.207-.124l.228-.373zm2.429 5.192v-4.249c.218-.249.466-.446.726-.591a1.69 1.69 0 0 1 .84-.218c.404 0 .715.124.912.363s.301.58.301 1.016v3.679h1.016v-3.679c0-.321-.041-.622-.124-.891a1.95 1.95 0 0 0-.373-.694 1.63 1.63 0 0 0-.601-.446c-.238-.104-.518-.155-.84-.155a2.25 2.25 0 0 0-1.036.238 2.96 2.96 0 0 0-.819.632v-3.4h-1.016v8.395h1.016zm6.526-5.659a2.47 2.47 0 0 0-.871.601c-.238.259-.425.57-.56.943-.124.363-.187.777-.187 1.223 0 .456.062.871.187 1.233a2.8 2.8 0 0 0 .56.933 2.47 2.47 0 0 0 .871.601c.332.135.715.207 1.14.207a3.1 3.1 0 0 0 1.14-.207 2.47 2.47 0 0 0 .871-.601c.238-.259.415-.57.539-.933.135-.363.197-.777.197-1.233 0-.446-.062-.86-.197-1.223-.124-.373-.301-.684-.539-.943a2.47 2.47 0 0 0-.871-.601 3.1 3.1 0 0 0-1.14-.207c-.425 0-.808.073-1.14.207zm.383 4.799a1.5 1.5 0 0 1-.529-.425c-.145-.187-.249-.415-.321-.684s-.104-.57-.104-.912a3.56 3.56 0 0 1 .104-.922c.073-.269.176-.497.321-.684a1.53 1.53 0 0 1 .529-.435 1.9 1.9 0 0 1 .757-.145c.57 0 .995.197 1.275.58s.425.912.425 1.606c0 .684-.145 1.213-.425 1.596s-.705.57-1.275.57c-.29 0-.539-.052-.757-.145zm4.619-4.913v3.679a3.11 3.11 0 0 0 .124.902 1.96 1.96 0 0 0 .363.684 1.76 1.76 0 0 0 .611.446c.238.104.518.155.84.155.394 0 .757-.083 1.068-.259.311-.166.591-.394.84-.663l.083.622c.041.135.135.207.269.207h.611v-5.773h-1.016v4.26a2.5 2.5 0 0 1-.726.58 1.69 1.69 0 0 1-.84.218c-.404 0-.705-.124-.912-.363-.197-.238-.301-.58-.301-1.016v-3.679h-1.016zm6.587-2.622v8.395h1.016v-8.395h-1.016zm7.479 8.395v-8.395h-1.016v3.203a2.27 2.27 0 0 0-.674-.508c-.249-.114-.549-.176-.912-.176-.383 0-.736.073-1.047.228a2.33 2.33 0 0 0-.777.643 2.78 2.78 0 0 0-.497.954c-.114.363-.166.757-.166 1.182a5.2 5.2 0 0 0 .145 1.275 2.55 2.55 0 0 0 .446.922 1.79 1.79 0 0 0 .684.56 1.98 1.98 0 0 0 .902.197 2.24 2.24 0 0 0 1.099-.269c.311-.187.591-.425.84-.726l.093.705c.041.135.135.207.269.207h.611zm-3.203-.86a1.15 1.15 0 0 1-.456-.383c-.124-.166-.228-.394-.29-.653-.062-.269-.093-.591-.093-.974 0-.705.145-1.254.435-1.638.28-.383.694-.58 1.233-.58.28 0 .518.052.746.155.218.104.425.28.611.529v2.788a2.53 2.53 0 0 1-.684.653 1.7 1.7 0 0 1-.871.228 1.53 1.53 0 0 1-.632-.124zm-58.063 8.8a2.34 2.34 0 0 0-.694.373 1.81 1.81 0 0 0-.456.591c-.104.228-.155.487-.155.767 0 .352.073.663.238.922.166.269.383.477.674.643a1.14 1.14 0 0 0-.321.207c-.093.083-.166.166-.228.249s-.114.176-.145.269c-.031.083-.041.176-.041.259 0 .207.041.383.145.508.093.124.228.228.383.301-.311.124-.56.28-.736.477-.187.197-.28.446-.28.726 0 .207.062.394.166.58a1.4 1.4 0 0 0 .466.487c.207.145.477.259.788.342.321.083.684.124 1.109.124s.798-.052 1.14-.166a2.63 2.63 0 0 0 .85-.435 1.96 1.96 0 0 0 .529-.611c.124-.238.187-.477.187-.726 0-.259-.052-.477-.166-.643a1.13 1.13 0 0 0-.435-.394c-.187-.104-.394-.166-.622-.207l-.715-.093-.705-.031c-.238-.01-.446-.031-.622-.062-.187-.031-.332-.083-.446-.145-.104-.073-.166-.176-.166-.311 0-.083.031-.176.093-.259.073-.083.155-.166.28-.249a2.62 2.62 0 0 0 .767.104c.311 0 .601-.052.871-.135.259-.083.487-.218.684-.373a1.78 1.78 0 0 0 .446-.591c.114-.228.166-.487.166-.767a1.69 1.69 0 0 0-.197-.829l.653-.093c.166-.031.238-.114.238-.238v-.373h-1.565a2.53 2.53 0 0 0-.591-.249c-.218-.052-.456-.073-.705-.073-.321 0-.611.041-.881.124zm2.56 6.467a1.18 1.18 0 0 1-.342.332 1.91 1.91 0 0 1-.549.207 3.22 3.22 0 0 1-.736.073 3.09 3.09 0 0 1-.736-.073 1.69 1.69 0 0 1-.518-.187.9.9 0 0 1-.301-.29.77.77 0 0 1-.104-.363.76.76 0 0 1 .207-.529 1.58 1.58 0 0 1 .529-.383 5.17 5.17 0 0 0 .58.062l.611.031.56.052c.176.021.342.062.477.104.135.052.238.114.321.207.083.083.124.197.124.342 0 .155-.041.29-.124.415zm-2.218-3.628c-.155-.062-.29-.145-.394-.249a.89.89 0 0 1-.238-.363 1.38 1.38 0 0 1-.083-.466c0-.363.104-.643.321-.85s.529-.311.933-.311.726.104.933.311c.218.207.321.487.321.85 0 .166-.021.321-.073.466a.89.89 0 0 1-.238.363 1.21 1.21 0 0 1-.404.249c-.155.052-.332.083-.539.083a1.68 1.68 0 0 1-.539-.083zm5.577-2.746a2.41 2.41 0 0 0-.85.611 2.53 2.53 0 0 0-.529.902c-.124.352-.187.726-.187 1.13 0 .497.062.943.197 1.327.145.383.332.705.58.964a2.32 2.32 0 0 0 .871.591 2.92 2.92 0 0 0 1.099.207 3.19 3.19 0 0 0 .632-.062 3.06 3.06 0 0 0 .622-.155 2.82 2.82 0 0 0 .56-.28c.177-.114.332-.238.456-.394l-.29-.373c-.041-.062-.104-.093-.197-.093-.062 0-.135.031-.228.083-.083.062-.197.124-.332.197-.135.062-.29.124-.477.187s-.404.093-.653.093a2.08 2.08 0 0 1-.746-.135 1.59 1.59 0 0 1-.57-.404 2.11 2.11 0 0 1-.373-.674c-.093-.27-.145-.591-.155-.954h3.845c.093 0 .166-.031.197-.083s.052-.155.052-.321a3.3 3.3 0 0 0-.176-1.099c-.124-.321-.29-.591-.508-.808a2.08 2.08 0 0 0-.757-.497 2.6 2.6 0 0 0-.954-.176c-.415 0-.798.073-1.13.218zm1.772.643c.176.083.332.197.456.332.124.145.218.311.28.508.073.197.104.415.104.653h-3.14c.062-.508.238-.902.518-1.182.29-.28.674-.425 1.161-.425.228 0 .435.041.622.114zm5.56 4.954a1.85 1.85 0 0 0 .632-.383l-.301-.487c-.041-.062-.083-.093-.135-.093-.031 0-.073.01-.114.041-.031.031-.083.062-.145.093a.57.57 0 0 1-.197.093.79.79 0 0 1-.28.052.61.61 0 0 1-.456-.187c-.114-.114-.176-.29-.176-.539v-3.462h1.658v-.736h-1.658v-1.99h-.508c-.073 0-.124.021-.166.052-.041.041-.062.083-.073.145l-.238 1.783-.943.114v.404c0 .083.021.135.062.176.041.031.093.052.155.052h.694v3.534c0 .477.124.84.373 1.099.238.259.591.383 1.047.383.259 0 .518-.052.767-.145zm6.453 0a1.85 1.85 0 0 0 .632-.383l-.301-.487c-.041-.062-.083-.093-.135-.093-.031 0-.073.01-.114.041-.031.031-.083.062-.145.093a.57.57 0 0 1-.197.093.79.79 0 0 1-.28.052.61.61 0 0 1-.456-.187c-.114-.114-.176-.29-.176-.539v-3.462h1.658v-.736h-1.658v-1.99h-.508c-.073 0-.124.021-.166.052-.041.041-.062.083-.073.145l-.238 1.783-.943.114v.404c0 .083.021.135.062.176.041.031.093.052.155.052h.694v3.534c0 .477.124.84.373 1.099.238.259.591.383 1.047.383.259 0 .518-.052.767-.145zm2.936-5.608a2.47 2.47 0 0 0-.871.601c-.238.259-.425.57-.56.943-.124.363-.187.777-.187 1.223 0 .456.062.871.187 1.233a2.8 2.8 0 0 0 .56.933 2.47 2.47 0 0 0 .871.601c.332.135.715.207 1.14.207a3.1 3.1 0 0 0 1.14-.207 2.47 2.47 0 0 0 .871-.601c.238-.259.415-.57.539-.933.135-.363.197-.777.197-1.233 0-.446-.062-.86-.197-1.223-.124-.373-.301-.684-.539-.943a2.47 2.47 0 0 0-.871-.601 3.1 3.1 0 0 0-1.14-.207c-.425 0-.808.073-1.14.207zm.383 4.799a1.5 1.5 0 0 1-.529-.425c-.145-.187-.249-.415-.321-.684s-.104-.57-.104-.912a3.56 3.56 0 0 1 .104-.922c.073-.269.176-.497.321-.684a1.53 1.53 0 0 1 .529-.435 1.9 1.9 0 0 1 .757-.145c.57 0 .995.197 1.275.58s.425.912.425 1.606c0 .684-.145 1.213-.425 1.596s-.705.57-1.275.57c-.29 0-.539-.052-.757-.145zm6.995-7.535v8.395h1.016v-2.757h.29a.72.72 0 0 1 .249.031c.062.031.114.083.176.166l1.897 2.363a.54.54 0 0 0 .166.145.48.48 0 0 0 .218.052h.912l-2.259-2.85-.155-.207a1.48 1.48 0 0 0-.187-.155c.062-.031.124-.083.176-.124a2.49 2.49 0 0 0 .155-.176l2.125-2.259h-.922c-.093 0-.176.021-.228.052-.062.041-.114.093-.176.155l-1.824 1.949a.38.38 0 0 1-.166.135.43.43 0 0 1-.187.031h-.259v-4.944h-1.016zm6.949 8.395v-4.249c.218-.249.466-.446.726-.591a1.69 1.69 0 0 1 .84-.218c.404 0 .715.124.912.363s.301.58.301 1.016v3.679h1.016v-3.679c0-.321-.041-.622-.124-.891a1.95 1.95 0 0 0-.373-.694 1.63 1.63 0 0 0-.601-.446c-.238-.104-.518-.155-.84-.155a2.12 2.12 0 0 0-1.068.259 3.05 3.05 0 0 0-.84.674l-.083-.632c-.041-.135-.124-.207-.269-.207h-.611v5.773h1.016zm6.525-5.659a2.47 2.47 0 0 0-.871.601c-.238.259-.425.57-.56.943-.124.363-.187.777-.187 1.223 0 .456.062.871.187 1.233a2.8 2.8 0 0 0 .56.933 2.47 2.47 0 0 0 .871.601c.332.135.715.207 1.14.207a3.1 3.1 0 0 0 1.14-.207 2.47 2.47 0 0 0 .871-.601c.238-.259.415-.57.539-.933.135-.363.197-.777.197-1.233 0-.446-.062-.86-.197-1.223-.124-.373-.301-.684-.539-.943a2.47 2.47 0 0 0-.871-.601 3.1 3.1 0 0 0-1.14-.207c-.425 0-.808.073-1.14.207zm.383 4.799a1.5 1.5 0 0 1-.529-.425c-.145-.187-.249-.415-.321-.684s-.104-.57-.104-.912a3.56 3.56 0 0 1 .104-.922c.073-.269.176-.497.321-.684a1.53 1.53 0 0 1 .529-.435 1.9 1.9 0 0 1 .757-.145c.57 0 .995.197 1.275.58s.425.912.425 1.606c0 .684-.145 1.213-.425 1.596s-.705.57-1.275.57c-.29 0-.539-.052-.757-.145zm5.873.86h.767c.114 0 .187-.062.228-.197l1.296-3.907c.031-.083.062-.176.073-.269l.062-.269.052.269.073.259 1.285 3.918c.031.135.104.197.197.197h.808l1.866-5.773h-.757a.29.29 0 0 0-.187.062.23.23 0 0 0-.114.145l-1.13 3.721-.093.383-.073.394-.093-.383c-.031-.135-.073-.259-.114-.394l-1.192-3.742a.34.34 0 0 0-.104-.145.36.36 0 0 0-.187-.052h-.435a.36.36 0 0 0-.187.052c-.041.041-.083.093-.093.145l-1.223 3.742-.124.394-.104.383c-.01-.124-.041-.259-.062-.383l-.083-.394-1.109-3.721c-.021-.052-.052-.104-.114-.145-.052-.041-.114-.062-.197-.062h-.798l1.866 5.773z" class="B"/><path d="M405.711 376.239a2.47 2.47 0 0 0-.871.601c-.238.259-.425.57-.56.943-.124.363-.187.777-.187 1.223 0 .456.062.871.187 1.233a2.8 2.8 0 0 0 .56.933 2.47 2.47 0 0 0 .871.601c.332.135.715.207 1.14.207a3.1 3.1 0 0 0 1.14-.207 2.47 2.47 0 0 0 .871-.601c.238-.259.415-.57.539-.933.135-.363.197-.777.197-1.233 0-.446-.062-.86-.197-1.223-.124-.373-.301-.684-.539-.943a2.47 2.47 0 0 0-.871-.601 3.1 3.1 0 0 0-1.14-.207c-.425 0-.808.073-1.14.207zm.383 4.799a1.5 1.5 0 0 1-.529-.425c-.145-.187-.249-.415-.321-.684s-.104-.57-.104-.912a3.56 3.56 0 0 1 .104-.922c.073-.269.176-.497.321-.684a1.53 1.53 0 0 1 .529-.435 1.9 1.9 0 0 1 .757-.145c.57 0 .995.197 1.275.58s.425.912.425 1.606c0 .684-.145 1.213-.425 1.596s-.705.57-1.275.57c-.29 0-.539-.052-.757-.145zm4.618-4.913v3.679a3.11 3.11 0 0 0 .124.902 1.96 1.96 0 0 0 .363.684 1.76 1.76 0 0 0 .611.446c.238.104.518.155.84.155.394 0 .757-.083 1.068-.259.311-.166.591-.394.84-.663l.083.622c.041.135.135.207.269.207h.611v-5.773h-1.016v4.26a2.5 2.5 0 0 1-.726.58 1.69 1.69 0 0 1-.84.218c-.404 0-.705-.124-.912-.363-.197-.238-.301-.58-.301-1.016v-3.679h-1.016zm7.489 5.773v-3.679c.166-.394.363-.684.601-.891a1.29 1.29 0 0 1 .881-.311 1.81 1.81 0 0 1 .466.052c.104.041.187.062.238.062.093 0 .155-.052.176-.145l.135-.757a1.91 1.91 0 0 0-.363-.155c-.124-.031-.269-.052-.425-.052a1.61 1.61 0 0 0-1.026.342c-.29.218-.539.539-.736.943l-.062-.902c-.021-.104-.052-.176-.093-.218s-.114-.062-.228-.062h-.58v5.773h1.016zm-58.412 8.572c-.238-.238-.508-.425-.829-.56-.311-.135-.663-.197-1.068-.197-.435 0-.829.073-1.161.228-.342.145-.622.352-.85.611-.238.269-.404.58-.529.943s-.176.767-.176 1.192c0 .477.062.891.197 1.264a2.75 2.75 0 0 0 .539.933 2.25 2.25 0 0 0 .798.57 2.54 2.54 0 0 0 1.016.207 3.23 3.23 0 0 0 1.182-.218 2.14 2.14 0 0 0 .943-.674l-.28-.373c-.041-.062-.114-.093-.197-.093-.073 0-.135.031-.207.083-.062.062-.155.124-.259.197a1.47 1.47 0 0 1-.404.197c-.155.062-.363.093-.601.093a1.72 1.72 0 0 1-.705-.145 1.5 1.5 0 0 1-.529-.425c-.145-.187-.249-.415-.332-.684a3.17 3.17 0 0 1-.124-.933 3.46 3.46 0 0 1 .114-.902c.073-.269.187-.508.332-.694s.332-.332.539-.435c.218-.104.466-.145.757-.145.207 0 .383.021.539.062a2.11 2.11 0 0 1 .373.166l.249.155c.062.041.124.073.187.073a.26.26 0 0 0 .135-.041c.021-.021.052-.052.083-.093l.269-.363zm.982-.664v3.679a3.11 3.11 0 0 0 .124.902 1.96 1.96 0 0 0 .363.684 1.76 1.76 0 0 0 .611.446c.238.104.518.155.84.155.394 0 .757-.083 1.068-.259.311-.166.591-.394.84-.663l.083.622c.041.135.135.207.269.207h.611v-5.773h-1.016v4.26a2.5 2.5 0 0 1-.726.58 1.69 1.69 0 0 1-.84.218c-.404 0-.705-.124-.912-.363-.197-.238-.301-.58-.301-1.016v-3.679h-1.016zm10.007.581a2.5 2.5 0 0 0-.777-.497 2.88 2.88 0 0 0-1.026-.176c-.332 0-.622.041-.871.135a1.96 1.96 0 0 0-.643.373c-.177.155-.311.332-.404.529a1.52 1.52 0 0 0-.135.643 1.46 1.46 0 0 0 .124.632 1.54 1.54 0 0 0 .342.435c.145.114.301.207.487.29l.549.207.549.176a2.62 2.62 0 0 1 .487.187c.135.083.249.166.332.269.093.104.135.238.135.404 0 .124-.021.249-.073.363s-.124.207-.218.301a1.29 1.29 0 0 1-.373.207c-.145.052-.321.073-.518.073-.228 0-.425-.021-.58-.073a2.35 2.35 0 0 1-.394-.176l-.28-.176c-.073-.062-.145-.083-.207-.083-.073 0-.124.01-.166.041a.3.3 0 0 0-.114.114l-.238.383c.228.207.508.373.829.508a3.1 3.1 0 0 0 1.099.197c.352 0 .663-.052.933-.145a2.01 2.01 0 0 0 .684-.394 1.56 1.56 0 0 0 .425-.58 1.94 1.94 0 0 0 .145-.736c0-.238-.041-.435-.135-.601a1.3 1.3 0 0 0-.332-.415c-.145-.114-.301-.218-.487-.29l-.549-.207-.549-.176a2.84 2.84 0 0 1-.477-.187 1.29 1.29 0 0 1-.342-.259.58.58 0 0 1-.124-.373c0-.114.021-.228.073-.332a.76.76 0 0 1 .228-.259 1.02 1.02 0 0 1 .352-.176c.135-.052.29-.073.456-.073.197 0 .373.021.518.073.145.041.269.083.373.135l.259.145c.073.041.135.062.197.062.093 0 .166-.041.207-.124l.228-.373zm3.933 5.141a1.85 1.85 0 0 0 .632-.383l-.301-.487c-.041-.062-.083-.093-.135-.093-.031 0-.073.01-.114.041-.031.031-.083.062-.145.093a.57.57 0 0 1-.197.093.79.79 0 0 1-.28.052.61.61 0 0 1-.456-.187c-.114-.114-.176-.29-.176-.539v-3.462h1.658v-.736h-1.658v-1.99h-.508c-.073 0-.124.021-.166.052-.041.041-.062.083-.073.145l-.238 1.783-.943.114v.404c0 .083.021.135.062.176.041.031.093.052.155.052h.694v3.534c0 .477.124.84.373 1.099.238.259.591.383 1.047.383.259 0 .518-.052.767-.145zm2.936-5.607a2.47 2.47 0 0 0-.871.601c-.238.259-.425.57-.56.943-.124.363-.187.777-.187 1.223 0 .456.062.871.187 1.233a2.8 2.8 0 0 0 .56.933 2.47 2.47 0 0 0 .871.601c.332.135.715.207 1.14.207a3.1 3.1 0 0 0 1.14-.207 2.47 2.47 0 0 0 .871-.601c.238-.259.415-.57.539-.933.135-.363.197-.777.197-1.233 0-.446-.062-.86-.197-1.223-.124-.373-.301-.684-.539-.943a2.47 2.47 0 0 0-.871-.601 3.1 3.1 0 0 0-1.14-.207c-.425 0-.808.073-1.14.207zm.383 4.799a1.5 1.5 0 0 1-.529-.425c-.145-.187-.249-.415-.321-.684s-.104-.57-.104-.912a3.56 3.56 0 0 1 .104-.922c.073-.269.176-.497.321-.684a1.53 1.53 0 0 1 .529-.435 1.9 1.9 0 0 1 .757-.145c.57 0 .995.197 1.275.58s.425.912.425 1.606c0 .684-.145 1.213-.425 1.596s-.705.57-1.275.57c-.29 0-.539-.052-.757-.145zm5.769.859v-4.301a2.1 2.1 0 0 1 .591-.549c.218-.135.446-.207.694-.207.363 0 .632.114.819.342s.28.58.28 1.036v3.679h1.016V391.9c0-.228.031-.425.104-.601a1.19 1.19 0 0 1 .269-.425c.114-.114.238-.207.394-.259.145-.062.311-.093.477-.093.373 0 .663.114.86.352s.301.58.301 1.026v3.679h1.005V391.9c0-.342-.041-.653-.124-.933-.093-.269-.218-.497-.383-.684a1.54 1.54 0 0 0-.601-.425c-.238-.093-.508-.145-.808-.145-.197 0-.383.021-.57.073a1.71 1.71 0 0 0-.518.218c-.166.093-.311.218-.446.373a2.11 2.11 0 0 0-.311.539c-.104-.363-.28-.663-.518-.881-.249-.207-.56-.321-.954-.321-.352 0-.653.083-.922.249a3.19 3.19 0 0 0-.715.643l-.073-.591c-.041-.135-.124-.207-.269-.207h-.611v5.773h1.016zm9.505-5.648a2.41 2.41 0 0 0-.85.611 2.53 2.53 0 0 0-.529.902c-.124.352-.187.726-.187 1.13 0 .497.062.943.197 1.327.145.383.332.705.58.964a2.32 2.32 0 0 0 .871.591 2.92 2.92 0 0 0 1.099.207 3.19 3.19 0 0 0 .632-.062 3.06 3.06 0 0 0 .622-.155 2.82 2.82 0 0 0 .56-.28c.177-.114.332-.238.456-.394l-.29-.373c-.041-.062-.104-.093-.197-.093-.062 0-.135.031-.228.083-.083.062-.197.124-.332.197-.135.062-.29.124-.477.187s-.404.093-.653.093a2.08 2.08 0 0 1-.746-.135 1.59 1.59 0 0 1-.57-.404 2.11 2.11 0 0 1-.373-.674c-.093-.27-.145-.591-.155-.954h3.845c.093 0 .166-.031.197-.083s.052-.155.052-.321a3.3 3.3 0 0 0-.176-1.099c-.124-.321-.29-.591-.508-.808a2.08 2.08 0 0 0-.757-.497 2.6 2.6 0 0 0-.954-.176c-.415 0-.798.073-1.13.218zm1.772.643c.176.083.332.197.456.332.124.145.218.311.28.508.073.197.104.415.104.653h-3.14c.062-.508.238-.902.518-1.182.29-.28.674-.425 1.161-.425.228 0 .435.041.622.114zm4.057 5.005V391.9c.166-.394.363-.684.601-.891a1.29 1.29 0 0 1 .881-.311 1.81 1.81 0 0 1 .466.052c.104.041.187.062.238.062.093 0 .155-.052.176-.145l.135-.757a1.91 1.91 0 0 0-.363-.155c-.124-.031-.269-.052-.425-.052a1.61 1.61 0 0 0-1.026.342c-.29.218-.539.539-.736.943l-.062-.902c-.021-.104-.052-.176-.093-.218s-.114-.062-.228-.062h-.58v5.773h1.016zm7.113-5.192a2.5 2.5 0 0 0-.777-.497 2.88 2.88 0 0 0-1.026-.176c-.332 0-.622.041-.871.135a1.96 1.96 0 0 0-.643.373c-.177.155-.311.332-.404.529a1.52 1.52 0 0 0-.135.643 1.46 1.46 0 0 0 .124.632 1.54 1.54 0 0 0 .342.435c.145.114.301.207.487.29l.549.207.549.176a2.62 2.62 0 0 1 .487.187c.135.083.249.166.332.269.093.104.135.238.135.404 0 .124-.021.249-.073.363s-.124.207-.218.301a1.29 1.29 0 0 1-.373.207c-.145.052-.321.073-.518.073-.228 0-.425-.021-.58-.073a2.35 2.35 0 0 1-.394-.176l-.28-.176c-.073-.062-.145-.083-.207-.083-.073 0-.124.01-.166.041a.3.3 0 0 0-.114.114l-.238.383c.228.207.508.373.829.508a3.1 3.1 0 0 0 1.099.197c.352 0 .663-.052.933-.145a2.01 2.01 0 0 0 .684-.394 1.56 1.56 0 0 0 .425-.58 1.94 1.94 0 0 0 .145-.736c0-.238-.041-.435-.135-.601a1.3 1.3 0 0 0-.332-.415c-.145-.114-.301-.218-.487-.29l-.549-.207-.549-.176a2.84 2.84 0 0 1-.477-.187 1.29 1.29 0 0 1-.342-.259.58.58 0 0 1-.124-.373c0-.114.021-.228.073-.332a.76.76 0 0 1 .228-.259 1.02 1.02 0 0 1 .352-.176c.135-.052.29-.073.456-.073.197 0 .373.021.518.073.145.041.269.083.373.135l.259.145c.073.041.135.062.197.062.093 0 .166-.041.207-.124l.228-.373zm1.145 4.85c.031.083.083.155.145.218a.5.5 0 0 0 .228.155.62.62 0 0 0 .28.052.67.67 0 0 0 .28-.052.64.64 0 0 0 .228-.155c.062-.062.114-.135.145-.218a.67.67 0 0 0 .052-.28c0-.104-.01-.197-.052-.28-.031-.093-.083-.166-.145-.228a.64.64 0 0 0-.228-.155.69.69 0 0 0-.28-.062c-.104 0-.197.021-.28.062a.5.5 0 0 0-.228.155c-.062.062-.114.135-.145.228-.041.083-.062.176-.062.28a.69.69 0 0 0 .062.28z" class="B"/></g></svg>