<?xml version="1.0" encoding="utf-8"?>
<!-- Generator: Adobe Illustrator 19.0.0, SVG Export Plug-In . SVG Version: 6.00 Build 0)  -->
<svg version="1.1" id="Warstwa_1" xmlns="http://www.w3.org/2000/svg" xmlns:xlink="http://www.w3.org/1999/xlink" x="0px" y="0px"
	 viewBox="3 -3 1926.4 1086" style="enable-background:new 3 -3 1926.4 1086;" xml:space="preserve">
<style type="text/css">
	.st0{fill:#FFFFFF;}
	.st1{fill:#FDDB00;}
	.st2{font-family:'Lato-Bold';}
	.st3{font-size:130px;}
	.st4{display:none;opacity:0.12;fill:#420000;enable-background:new    ;}
	.st5{font-size:72px;}
</style>
<rect id="XMLID_2_" x="6" y="-6" class="st0" width="1926.4" height="1086"/>
<g id="XMLID_8_">
	<polygon id="XMLID_9_" class="st1" points="1594.8,-6.6 6.4,-6.6 6.4,1080.4 1060.5,1080.4 	"/>
	<polygon id="XMLID_10_" class="st1" points="1526.3,1080.4 1932.4,1080.4 1932.4,254.2 	"/>
</g>
<text transform="matrix(1 0 0 1 1332.0405 283.8954)" class="st2 st3">HOW </text>
<text transform="matrix(1 0 0 1 1322.4406 418.8954)" class="st2 st3">TRAIL </text>
<text transform="matrix(1 0 0 1 1288.5405 553.8954)" class="st2 st3">RAISED</text>
<text transform="matrix(1 0 0 1 1313.8406 688.8954)" class="st2 st3">SALES </text>
<text transform="matrix(1 0 0 1 1202.0405 823.8954)" class="st2 st3">BY 200% ?</text>
<circle id="XMLID_35_" class="st0" cx="582.1" cy="445.2" r="225"/>
<path id="XMLID_32_" class="st0" d="M396.5,501.2c-24.9,0-47.7-9.2-65.1-24.3c-1.1-1.3-2.2-2.6-3.3-4L396.5,501.2z M406.4,511.1
	c54.9,0,99.3-44.5,99.3-99.3c0-27.4-11.1-52.3-29.1-70.2l-9.8-9.8l-0.1-0.1c-18-18-42.8-29.1-70.2-29.1c-23.8,0-45.7,8.4-62.8,22.4
	c-22.3,18.2-36.5,45.9-36.5,76.9c0,27.4,11.1,52.3,29.1,70.2c0,0,0.1,0,0.1,0.1l0,0l9.8,9.8C354.1,500,379,511.1,406.4,511.1z"/>
<path id="XMLID_28_" class="st0" d="M235,757.6l-39.7-6.4c4-16.2,16.8-27.4,30.2-25.2c2.2,0.4,4.3,1.1,6.2,2.1
	c3.9,6.7,5.5,15.6,4,24.9L235,757.6z M608.9,749.4l-42.4,6.9c-0.1-15.3,8.4-28.3,20.8-30.3c5.2-0.8,10.4,0.4,14.9,3.2
	c2.9,4.4,4.9,9.7,5.9,15.6L608.9,749.4z M694.2,928.9c2.7-0.4,5.1-1.9,6.6-4.2c1.5-2.2,2.1-5,1.5-7.7l-33.4-156.4
	c-0.4-1.9-1.4-3.6-2.7-4.9l-9.9-9.9c-2.2-2.2-5.3-3.3-8.6-2.8l-14.5,2.4c-2.6-9.3-7.4-17.4-13.6-23.6l-9.9-9.9
	c-0.9-0.9-1.7-1.7-2.6-2.5c4.9-5.6,7.8-12.4,8.3-19.9c0.6-9.6-2.6-19.5-9.1-28.1l-64.1-84.6c-4.5-5.9-9.1-11.2-13.7-15.8l-9.9-9.9
	c-31.5-31.5-65.5-34.4-98-34.4h-48.3c-29.3,0-59.9,2.4-88.7,25.9c-7.8,6.4-15.5,14.4-23.1,24.3l-64.1,84.6
	c-6.5,8.5-9.7,18.5-9.1,28.1c0.5,8.4,4.2,15.9,10.1,21.8l0.4,0.4c-4,1.6-7.7,3.9-11.2,6.7c-9.4,7.7-16.4,19.4-18.6,33.4l-0.8,4.7
	l-22.3-3.6c-2.9-0.5-5.7,0.4-7.9,2.1c-1.7,1.4-2.9,3.3-3.4,5.6l-33,156.4c-0.6,2.6,0,5.4,1.5,7.7c0.3,0.5,0.7,1,1.2,1.4l9.9,9.9
	c1.5,1.5,3.4,2.4,5.4,2.8c1.6,0.3,144.4,23.3,155.8,14.7L292,784.7c0.3-3.1-0.8-6-2.8-8.1l-9.9-9.9c-1.4-1.4-3.3-2.4-5.4-2.8
	l-11.2-1.8c1.3-13.1-1.9-25.5-8.2-35c-1.6-2.5-3.5-4.7-5.5-6.8l-0.4-0.4c6.9-2.6,13-7.1,17.6-13.2l50.4-66V936
	c0,7.7,2.3,14.9,6.3,20.9c1.4,2.1,3,4.1,4.8,5.9l9.9,9.9c6.8,6.8,16.3,11.1,26.8,11.1c20.7,0,37.5-16.6,37.8-37.2
	c1.8,6.2,5.1,11.8,9.6,16.2l0,0l9.9,9.9c6.8,6.8,16.3,11.1,26.8,11.1c20.9,0,37.8-16.9,37.8-37.8V744.4c0-0.1,0-0.2,0-0.3V630.8
	l50.4,66c1.1,1.5,2.3,2.8,3.5,4.1l9.9,9.9c0.6,0.6,1.2,1.2,1.8,1.7c-9.3,10.7-14,26.5-11.3,43.1l0.8,4.7l-22.2,3.6
	c-1.8,0.3-3.4,1-4.7,2.1c-2.5,2.1-4,5.3-3.6,8.8l17.6,158.9c0.3,2.2,1.3,4.3,2.8,5.9l9.9,9.9c0.3,0.3,0.7,0.6,1,0.9
	c1.7,1.3,3.9,2,6,2c0.5,0,1,0,1.6-0.1L694.2,928.9z"/>
<g id="XMLID_17_">
	<g id="XMLID_26_">
		<path id="XMLID_27_" d="M396.5,501.2c54.8,0,99.3-44.6,99.3-99.3c0-54.8-44.6-99.3-99.3-99.3c-54.8,0-99.3,44.6-99.3,99.3
			S341.7,501.2,396.5,501.2z"/>
	</g>
	<g id="XMLID_18_">
		<path id="XMLID_20_" d="M692.4,907.1L659,750.8c-1.1-5.1-6.1-8.6-11.3-7.7l-22.2,3.6l-0.8-4.7c-3.1-19-15-34-29.9-40.1
			c6.2-6,10-13.7,10.6-22.3c0.6-9.6-2.6-19.5-9.1-28.1l-64.1-84.6c-35.1-46.4-74.4-50.2-111.7-50.2h-48.3
			c-37.3,0-76.6,3.9-111.7,50.2l-64.1,84.6c-6.5,8.5-9.7,18.5-9.1,28.1c0.6,8.6,4.4,16.3,10.5,22.3c-14.8,6-26.8,21-29.8,40.1
			l-0.8,4.7l-22.3-3.6c-5.1-0.8-10.2,2.5-11.3,7.7l-33,156.3c-0.6,2.6,0,5.4,1.5,7.7c1.5,2.2,3.9,3.7,6.6,4.2l144.4,23.4
			c0.5,0.1,1,0.1,1.6,0.1c2.2,0,4.3-0.7,6-2c2.1-1.6,3.5-4.1,3.9-6.8l17.6-158.9c0.6-5.3-3-10-8.3-10.9l-22.3-3.6l0.8-4.7
			c2.9-17.9-2.8-35-13.7-45.6c6.9-2.6,13-7.1,17.6-13.2l60.3-79V936c0,20.9,16.9,37.8,37.8,37.8l0,0c20.9,0,37.8-16.9,37.8-37.8
			V765.7c0-2.3,1.9-4.2,4.2-4.2c2.3,0,4.2,1.9,4.2,4.2V936c0,20.9,16.9,37.8,37.8,37.8s37.8-16.9,37.8-37.8V734.5c0-0.1,0-0.2,0-0.3
			V617.9l60.3,79c4.7,6.2,10.9,10.6,17.6,13.2c-10.9,10.6-16.6,27.7-13.7,45.6l0.8,4.7L519,764c-5.2,0.8-8.8,5.6-8.3,10.9
			l17.6,158.9c0.3,2.7,1.7,5.2,3.9,6.8c1.7,1.3,3.9,2,6,2c0.5,0,1,0,1.6-0.1L684.3,919c2.7-0.4,5.1-2,6.6-4.2
			C692.4,912.6,693,909.8,692.4,907.1z M235.8,752.9l-0.8,4.7l-51-8.3l0.8-4.7c2.9-18.1,16.6-31,30.9-28.6
			C229.7,718.3,238.7,734.9,235.8,752.9z M558,757.6l-0.8-4.7c-2.9-18.1,6.1-34.6,20.3-36.9c14.2-2.3,27.8,10.6,30.7,28.6l0.8,4.7
			L558,757.6z"/>
	</g>
</g>
<path id="The_Sharpness" class="st4" d="M975.1,496.7l61.5,41l8.6-4.5L975.1,496.7z"/>
<text id="XMLID_1_" transform="matrix(1 0 0 1 59.913 94.5639)" class="st2 st5">CASE STUDY IN PRACTICE</text>
</svg>
