<?xml version="1.0" encoding="utf-8"?>
<!-- Generator: Adobe Illustrator 19.0.0, SVG Export Plug-In . SVG Version: 6.00 Build 0)  -->
<svg version="1.1" id="Warstwa_1" xmlns="http://www.w3.org/2000/svg" xmlns:xlink="http://www.w3.org/1999/xlink" x="0px" y="0px"
	 viewBox="0 0 396.2 848.1" style="enable-background:new 0 0 396.2 848.1;" xml:space="preserve">
<style type="text/css">
	.st0{fill:#E6E7E8;}
</style>
<path id="XMLID_7_" class="st0" d="M149.5,730.2c2.2-12.8-2.2-24.1-10-25.2c-7.8-1.1-15.8,7.8-18,20.5c-2.2,12.8,2.2,24.1,10,25.2
	C139.2,751.8,147.3,742.7,149.5,730.2z M174.7,738c-6.7-2.2-14.7,3.9-17.7,13.6c-3,9.7-0.3,19.4,6.4,21.3
	c6.7,2.2,14.7-3.9,17.7-13.6C184.4,749.9,181.4,740.2,174.7,738z M100.4,750.4c7.8-1.4,12.2-12.8,10-25.2
	c-2.2-12.8-10.3-21.9-18-20.5s-12.2,12.8-10,25.2C84.6,742.7,92.7,751.8,100.4,750.4z M115.9,820.9c28,0,50.7,21.1,50.7-6.4
	c0-27.2-30.5-56-58.5-56c-28-0.3-43,28.6-43,56C65.2,841.6,87.9,820.9,115.9,820.9z M68.5,773.7c6.7-2.2,9.7-11.6,6.4-21.3
	c-3-9.7-11.1-15.8-17.7-13.6s-9.7,11.6-6.4,21.3C53.8,769.6,61.6,775.7,68.5,773.7z"/>
<path id="XMLID_14_" class="st0" d="M332.8,627.7c2.2-12.8-2.2-24.1-10-25.2s-15.8,7.8-18,20.5c-2.2,12.8,2.2,24.1,10,25.2
	S330.6,640.1,332.8,627.7z M358.1,635.4c-6.7-2.2-14.7,3.9-17.7,13.6c-3,9.7-0.3,19.4,6.4,21.3c6.7,2.2,14.7-3.9,17.7-13.6
	C367.8,647.3,364.7,637.6,358.1,635.4z M283.8,647.9c7.8-1.4,12.2-12.8,10-25.2c-2.2-12.8-10.3-21.9-18-20.5
	c-7.8,1.4-12.2,12.8-10,25.2C268,640.1,276,649.3,283.8,647.9z M299.3,718.3c28,0,50.7,21.1,50.7-6.4c0-27.2-30.5-56-58.5-56
	c-28-0.3-43,28.6-43,56C248.6,739.1,271.3,718.3,299.3,718.3z M251.9,671.2c6.7-2.2,9.7-11.6,6.4-21.3c-3-9.7-11.1-15.8-17.7-13.6
	c-6.7,2.2-9.7,11.6-6.4,21.3C237.2,667,244.9,673.1,251.9,671.2z"/>
<path id="XMLID_6_" class="st0" d="M141.4,538.2c2.2-12.8-2.2-24.1-10-25.2c-7.8-1.1-15.8,7.8-18,20.5c-2.2,12.8,2.2,24.1,10,25.2
	S139.1,550.7,141.4,538.2z M166.6,546c-6.7-2.2-14.7,3.9-17.7,13.6c-3,9.7-0.3,19.4,6.4,21.3c6.7,2.2,14.7-3.9,17.7-13.6
	C176.3,557.9,173.2,548.2,166.6,546z M92.3,558.5c7.8-1.4,12.2-12.8,10-25.2c-2.2-12.8-10.3-21.9-18-20.5
	c-7.8,1.4-12.2,12.8-10,25.2C76.5,550.7,84.5,559.9,92.3,558.5z M107.8,628.9c28,0,50.7,21.1,50.7-6.4c0-27.2-30.5-56-58.5-56
	c-28-0.3-43,28.6-43,56C57.1,649.7,79.8,628.9,107.8,628.9z M60.4,581.8c6.7-2.2,9.7-11.6,6.4-21.3c-3-9.7-11.1-15.8-17.7-13.6
	s-9.7,11.6-6.4,21.3C45.7,577.6,53.5,583.7,60.4,581.8z"/>
<path id="XMLID_13_" class="st0" d="M332.4,443.5c2.2-12.8-2.2-24.1-10-25.2c-7.8-1.1-15.8,7.8-18,20.5c-2.2,12.8,2.2,24.1,10,25.2
	S330.2,456,332.4,443.5z M357.6,451.2c-6.7-2.2-14.7,3.9-17.7,13.6c-3,9.7-0.3,19.4,6.4,21.3c6.7,2.2,14.7-3.9,17.7-13.6
	C367.3,463.2,364.3,453.5,357.6,451.2z M283.3,463.7c7.8-1.4,12.2-12.8,10-25.2c-2.2-12.8-10.3-21.9-18-20.5
	c-7.8,1.4-12.2,12.8-10,25.2C267.5,456,275.5,465.1,283.3,463.7z M298.8,534.1c28,0,50.7,21.1,50.7-6.4c0-27.2-30.5-56-58.5-56
	c-28-0.3-43,28.6-43,56C248.1,554.9,270.8,534.1,298.8,534.1z M251.4,487c6.7-2.2,9.7-11.6,6.4-21.3c-3-9.7-11.1-15.8-17.7-13.6
	c-6.7,2.2-9.7,11.6-6.4,21.3C236.7,482.9,244.5,489,251.4,487z"/>
<path id="XMLID_43_" class="st0" d="M138.9,348.3c2.2-12.8-2.2-24.1-10-25.2c-7.8-1.1-15.8,7.8-18,20.5c-2.2,12.8,2.2,24.1,10,25.2
	S136.7,360.7,138.9,348.3z M164.2,356c-6.7-2.2-14.7,3.9-17.7,13.6c-3,9.7-0.3,19.4,6.4,21.3c6.7,2.2,14.7-3.9,17.7-13.6
	C173.9,368,170.8,358.2,164.2,356z M89.9,368.5c7.8-1.4,12.2-12.8,10-25.2c-2.2-12.8-10.3-21.9-18-20.5c-7.8,1.4-12.2,12.8-10,25.2
	C74.1,360.7,82.1,369.9,89.9,368.5z M105.4,438.9c28,0,50.7,21.1,50.7-6.4c0-27.2-30.5-56-58.5-56c-28-0.3-43,28.6-43,56
	C54.7,459.7,77.4,438.9,105.4,438.9z M58,391.8c6.7-2.2,9.7-11.6,6.4-21.3c-3-9.7-11.1-15.8-17.7-13.6s-9.7,11.6-6.4,21.3
	C43.3,387.6,51,393.7,58,391.8z"/>
<path id="XMLID_37_" class="st0" d="M322.3,242.5c2.2-12.8-2.2-24.1-10-25.2c-7.8-1.1-15.8,7.8-18,20.5c-2.2,12.8,2.2,24.1,10,25.2
	S320.1,255,322.3,242.5z M347.5,250.3c-6.7-2.2-14.7,3.9-17.7,13.6c-3,9.7-0.3,19.4,6.4,21.3c6.7,2.2,14.7-3.9,17.7-13.6
	C357.2,262.2,354.2,252.5,347.5,250.3z M273.2,262.8c7.8-1.4,12.2-12.8,10-25.2c-2.2-12.8-10.3-21.9-18-20.5
	c-7.8,1.4-12.2,12.8-10,25.2C257.4,255,265.4,264.2,273.2,262.8z M288.7,333.2c28,0,50.7,21.1,50.7-6.4c0-27.2-30.5-56-58.5-56
	c-28-0.3-43,28.6-43,56C238,354,260.7,333.2,288.7,333.2z M241.3,286.1c6.7-2.2,9.7-11.6,6.4-21.3c-3-9.7-11.1-15.8-17.7-13.6
	s-9.7,11.6-6.4,21.3C226.6,281.9,234.4,288,241.3,286.1z"/>
<path id="XMLID_31_" class="st0" d="M130.8,140.4c2.2-12.8-2.2-24.1-10-25.2s-15.8,7.8-18,20.5c-2.2,12.8,2.2,24.1,10,25.2
	S128.6,152.9,130.8,140.4z M156,148.2c-6.7-2.2-14.7,3.9-17.7,13.6c-3,9.7-0.3,19.4,6.4,21.3c6.7,2.2,14.7-3.9,17.7-13.6
	C165.7,160.1,162.7,150.4,156,148.2z M81.7,160.6c7.8-1.4,12.2-12.8,10-25.2c-2.2-12.8-10.3-21.9-18-20.5s-12.2,12.8-10,25.2
	C65.9,152.9,74,162,81.7,160.6z M97.2,231c28,0,50.7,21.1,50.7-6.4c0-27.2-30.5-56-58.5-56c-28-0.3-43,28.6-43,56
	C46.5,251.8,69.2,231,97.2,231z M49.8,183.9c6.7-2.2,9.7-11.6,6.4-21.3c-3-9.7-11.1-15.8-17.7-13.6s-9.7,11.6-6.4,21.3
	C35.1,179.8,42.9,185.9,49.8,183.9z"/>
<path id="XMLID_25_" class="st0" d="M321.8,52.7c2.2-12.8-2.2-24.1-10-25.2s-15.8,7.8-18,20.5s2.2,24.1,10,25.2
	C311.6,74.4,319.6,65.2,321.8,52.7z M347,60.5c-6.7-2.2-14.7,3.9-17.7,13.6c-3,9.7-0.3,19.4,6.4,21.3c6.7,2.2,14.7-3.9,17.7-13.6
	C356.7,72.4,353.7,62.7,347,60.5z M272.7,73c7.8-1.4,12.2-12.8,10-25.2c-2.2-12.8-10.3-21.9-18-20.5c-7.8,1.4-12.2,12.8-10,25.2
	C256.9,65.2,265,74.4,272.7,73z M288.3,143.4c28,0,50.7,21.1,50.7-6.4c0-27.2-30.5-56-58.5-56c-28-0.3-43,28.6-43,56
	C237.5,164.2,260.3,143.4,288.3,143.4z M240.9,96.3c6.7-2.2,9.7-11.6,6.4-21.3c-3-9.7-11.1-15.8-17.7-13.6
	c-6.7,2.2-9.7,11.6-6.4,21.3C226.2,92.1,233.9,98.2,240.9,96.3z"/>
</svg>
