<?xml version="1.0" encoding="utf-8"?>
<!-- Generator: Adobe Illustrator 19.0.0, SVG Export Plug-In . SVG Version: 6.00 Build 0)  -->
<svg version="1.1" id="Warstwa_1" xmlns="http://www.w3.org/2000/svg" xmlns:xlink="http://www.w3.org/1999/xlink" x="0px" y="0px"
	 viewBox="0 0 54.5 20" style="enable-background:new 0 0 54.5 20;" xml:space="preserve">
<style type="text/css">
	.st0{fill:#010101;}
	.st1{fill:#FCDA00;}
	.st2{font-family:'MyriadPro-Regular';}
	.st3{font-size:6px;}
</style>
<g id="XMLID_8_">
	<path id="XMLID_9_" class="st0" d="M7.3,4.9v2.8h2.5V9H7.3v5.2c0,1.2,0.3,1.9,1.3,1.9c0.5,0,0.8-0.1,1-0.1l0.1,1.3
		c-0.3,0.1-0.9,0.2-1.5,0.2c-0.8,0-1.5-0.3-1.9-0.7c-0.5-0.5-0.7-1.4-0.7-2.5V9H4.1V7.6h1.5V5.3L7.3,4.9z"/>
	<path id="XMLID_11_" class="st0" d="M11.8,10.6c0-1.1,0-2.1-0.1-3h1.5l0.1,1.9h0.1c0.4-1.3,1.5-2.1,2.6-2.1c0.2,0,0.3,0,0.5,0.1
		v1.6c-0.2,0-0.4-0.1-0.6-0.1c-1.2,0-2.1,0.9-2.3,2.2c0,0.2-0.1,0.5-0.1,0.8v5.1h-1.7C11.8,17.2,11.8,10.6,11.8,10.6z"/>
	<path id="XMLID_13_" class="st0" d="M23.5,17.2L23.3,16h-0.1c-0.5,0.8-1.6,1.4-2.9,1.4c-1.9,0-2.9-1.4-2.9-2.8
		c0-2.3,2.1-3.6,5.8-3.6v-0.2c0-0.8-0.2-2.2-2.2-2.2c-0.9,0-1.8,0.3-2.5,0.7l-0.4-1.1c0.8-0.5,1.9-0.8,3.1-0.8c2.9,0,3.6,2,3.6,3.9
		v3.6c0,0.8,0,1.6,0.2,2.3H23.5z M23.2,12.3c-1.9,0-4.1,0.3-4.1,2.2c0,1.1,0.8,1.7,1.6,1.7c1.3,0,2-0.8,2.3-1.6
		c0.1-0.2,0.1-0.4,0.1-0.5V12.3z"/>
	<path id="XMLID_16_" class="st0" d="M27.7,17.2V7.6h1.7v9.6H27.7z"/>
	<path id="XMLID_19_" class="st0" d="M32.3,3.2H34v14.1h-1.7V3.2z"/>
</g>
<path id="XMLID_2_" class="st1" d="M29.8,3c0.1-0.5-0.1-0.9-0.4-0.9c-0.3,0-0.6,0.3-0.7,0.8c-0.1,0.5,0.1,0.9,0.4,0.9
	C29.5,3.8,29.8,3.5,29.8,3z M30.8,3.3c-0.3-0.1-0.5,0.1-0.7,0.5c-0.1,0.4,0,0.7,0.2,0.8c0.3,0.1,0.5-0.1,0.7-0.5
	C31.2,3.8,31,3.4,30.8,3.3z M28,3.8c0.3,0,0.5-0.5,0.4-0.9S28,2,27.7,2.1c-0.3,0-0.5,0.5-0.4,0.9C27.4,3.5,27.7,3.8,28,3.8z
	 M28.6,6.4c1,0,1.9,0.8,1.9-0.2s-1.1-2.1-2.2-2.1c-1,0-1.6,1.1-1.6,2.1C26.7,7.2,27.6,6.4,28.6,6.4z M26.8,4.6
	c0.3-0.1,0.4-0.4,0.2-0.8c-0.1-0.4-0.4-0.6-0.7-0.5c-0.3,0.1-0.4,0.4-0.2,0.8C26.3,4.5,26.6,4.7,26.8,4.6z"/>
<text id="XMLID_12_" transform="matrix(1 0 0 1 36.2337 12.6001)" class="st2 st3">graph</text>
</svg>
