<?xml version="1.0" encoding="utf-8"?>
<!-- Generator: Adobe Illustrator 19.0.0, SVG Export Plug-In . SVG Version: 6.00 Build 0)  -->
<svg version="1.1" id="Warstwa_1" xmlns="http://www.w3.org/2000/svg" xmlns:xlink="http://www.w3.org/1999/xlink" x="0px" y="0px"
	 viewBox="0 0 1050 600" style="enable-background:new 0 0 1050 600;" xml:space="preserve">
<style type="text/css">
	.st0{display:none;}
	.st1{display:inline;fill:#403461;}
	.st2{display:inline;fill:#6C6C6C;}
	.st3{fill:#1C103B;}
	.st4{fill:#FFF3DE;}
	.st5{opacity:0.3;}
	.st6{display:inline;fill:#D42D30;}
	.st7{display:inline;fill:#1C103B;}
	.st8{display:inline;}
	.st9{fill:#FFF1B6;}
	.st10{fill:#22B573;}
	.st11{fill:#F15A24;}
	.st12{fill:#8CC63F;}
	.st13{fill:#29ABE2;}
	.st14{fill:#403461;}
	.st15{fill:#EC1C24;}
	.st16{fill:#8BC53F;}
	.st17{display:inline;opacity:0.4;}
	.st18{display:inline;fill:#8CC63F;}
	.st19{fill:#6C6C6C;}
	.st20{fill:#FFAD04;}
	.st21{fill:#FF0000;}
	.st22{fill:#0000FF;}
	.st23{display:inline;fill:#F98BFC;}
	.st24{fill:#F98BFC;}
	.st25{display:inline;fill:#29ABE2;}
</style>
<g id="XMLID_2_">
	<g id="XMLID_253_" class="st0">
		<path id="XMLID_254_" class="st1" d="M106.4-101.9c16.1,0,32.2,0,48.2,0c0.2,0.4,0.4,0.9,0.5,1.3c2.4,12,4.7,24,7,36
			c0.3,1.8,1.1,2.7,2.9,3.4c5.4,2,10.7,4.1,15.9,6.5c2,0.9,3.3,1,5.2-0.3c10.2-6.9,20.5-13.7,30.5-20.4
			C228.1-63.9,239.5-52.5,251-41c-0.4,0.7-1,1.6-1.6,2.4c-6.3,9.5-12.6,19-19,28.4c-1.1,1.7-1.1,2.9-0.2,4.6
			c2.2,4.7,4.4,9.6,6.1,14.5c1,2.8,2.1,4.6,5.4,4.8c2.6,0.1,5.3,1,7.9,1.5c9.3,1.9,18.7,3.8,28,5.7c0,16.1,0,32.2,0,48.2
			c-0.4,0.2-0.9,0.4-1.3,0.5c-12,2.4-24,4.7-36,7c-1.8,0.3-2.7,1.1-3.4,2.9c-2,5.3-4,10.5-6.4,15.6c-1,2.2-1,3.6,0.3,5.7
			c6.9,10.1,13.6,20.3,20.1,30.1c-11.6,11.6-22.9,23-34.5,34.5c-10.1-6.7-20.5-13.6-30.8-20.6c-1.6-1.1-2.7-1.1-4.4-0.3
			c-5.4,2.4-10.9,4.7-16.4,6.8c-1.6,0.6-2.4,1.4-2.7,3.1c-1.1,6.2-2.3,12.4-3.6,18.6c-1.2,6.3-2.5,12.5-3.8,18.8
			c-16.3,0-32.3,0-48.4,0c-0.2-0.6-0.4-1.1-0.5-1.7c-2.3-11.8-4.7-23.6-6.9-35.4c-0.4-1.9-1.2-2.8-3.1-3.5c-5.5-2.1-11-4.4-16.4-6.8
			c-1.5-0.7-2.5-0.6-3.9,0.3c-8.1,5.5-16.4,10.9-24.6,16.4c-2.3,1.5-4.6,3-6.6,4.4c-11.6-11.6-22.9-22.9-34.4-34.4
			c0.4-0.7,1-1.6,1.6-2.5c6.4-9.5,12.7-19.1,19.1-28.6c1-1.5,1-2.6,0.3-4.1c-2.2-4.9-4.5-9.7-6.2-14.8c-1-3-2.4-4.6-5.6-4.8
			c-2.5-0.2-4.9-0.9-7.3-1.4C2.4,73.1-7,71.1-16.5,69.2c0-16.1,0-32.2,0-48.2c0.4-0.2,0.9-0.4,1.3-0.5c12-2.4,24-4.7,36-7
			c1.8-0.3,2.7-1.1,3.4-2.9c2-5.4,4.1-10.7,6.5-15.9c0.9-2,1-3.3-0.3-5.2C23.5-20.7,16.7-31,10-41c11.6-11.4,23-22.8,34.5-34.3
			c0.7,0.4,1.6,1,2.4,1.6c9.5,6.3,19,12.6,28.4,19c1.7,1.1,2.9,1.1,4.6,0.2c4.7-2.2,9.6-4.4,14.5-6.1c2.8-1,4.6-2.1,4.8-5.4
			c0.1-2.6,1-5.3,1.5-7.9C102.6-83.2,104.5-92.5,106.4-101.9z M190.8,45.1c0-33.2-27.2-60.3-60.3-60.2c-33.2,0-60.3,27.2-60.2,60.3
			c0,33.2,27.2,60.3,60.3,60.2C163.7,105.3,190.8,78.2,190.8,45.1z"/>
	</g>
	<g id="XMLID_249_" class="st0">
		<path id="XMLID_250_" class="st2" d="M43.2,178.1c9.2,0,18.5,0,27.7,0c0.1,0.3,0.2,0.5,0.3,0.8c1.4,6.9,2.7,13.8,4,20.7
			c0.2,1,0.6,1.6,1.6,1.9c3.1,1.2,6.1,2.4,9.1,3.7c1.1,0.5,1.9,0.6,3-0.2c5.8-4,11.7-7.9,17.5-11.7c6.6,6.6,13.2,13.2,19.8,19.8
			c-0.2,0.4-0.6,0.9-0.9,1.4c-3.6,5.4-7.2,10.9-10.9,16.3c-0.7,1-0.6,1.6-0.1,2.7c1.3,2.7,2.5,5.5,3.5,8.3c0.6,1.6,1.2,2.6,3.1,2.7
			c1.5,0.1,3,0.5,4.5,0.9c5.4,1.1,10.7,2.2,16.1,3.3c0,9.2,0,18.5,0,27.7c-0.3,0.1-0.5,0.2-0.8,0.3c-6.9,1.3-13.8,2.7-20.7,4
			c-1,0.2-1.6,0.6-1.9,1.7c-1.1,3-2.3,6-3.7,9c-0.6,1.2-0.6,2.1,0.2,3.2c4,5.8,7.8,11.7,11.6,17.3c-6.6,6.7-13.2,13.2-19.8,19.8
			c-5.8-3.9-11.8-7.8-17.7-11.8c-0.9-0.6-1.5-0.6-2.5-0.2c-3.1,1.4-6.2,2.7-9.4,3.9c-0.9,0.4-1.4,0.8-1.6,1.8
			c-0.6,3.6-1.3,7.1-2,10.7s-1.4,7.2-2.2,10.8c-9.3,0-18.5,0-27.8,0c-0.1-0.4-0.2-0.7-0.3-1c-1.3-6.8-2.7-13.6-4-20.3
			c-0.2-1.1-0.7-1.6-1.8-2c-3.2-1.2-6.3-2.5-9.4-3.9c-0.9-0.4-1.4-0.4-2.2,0.2c-4.7,3.2-9.4,6.3-14.1,9.4c-1.3,0.9-2.6,1.7-3.8,2.5
			c-6.7-6.7-13.2-13.2-19.7-19.7c0.3-0.4,0.6-0.9,0.9-1.4c3.6-5.5,7.3-11,11-16.4c0.6-0.8,0.6-1.5,0.2-2.4c-1.3-2.8-2.6-5.6-3.6-8.5
			c-0.6-1.7-1.4-2.6-3.2-2.8c-1.4-0.1-2.8-0.5-4.2-0.8c-5.4-1.1-10.8-2.2-16.3-3.3c0-9.2,0-18.5,0-27.7c0.3-0.1,0.5-0.2,0.8-0.3
			c6.9-1.4,13.8-2.7,20.7-4c1-0.2,1.6-0.6,1.9-1.6c1.2-3.1,2.4-6.1,3.7-9.1c0.5-1.1,0.6-1.9-0.2-3c-4-5.8-7.9-11.7-11.7-17.5
			c6.6-6.6,13.2-13.2,19.8-19.8c0.4,0.2,0.9,0.6,1.4,0.9c5.4,3.6,10.9,7.2,16.3,10.9c1,0.6,1.6,0.6,2.7,0.1c2.7-1.3,5.5-2.5,8.3-3.5
			c1.6-0.6,2.6-1.2,2.7-3.1c0.1-1.5,0.5-3,0.9-4.5C41,188.8,42.1,183.5,43.2,178.1z M91.6,262.4c0-19-15.6-34.6-34.6-34.6
			s-34.6,15.6-34.6,34.6S38,297,57,297C76.1,297,91.6,281.4,91.6,262.4z"/>
	</g>
	<g id="XMLID_245_" class="st0">
		<path id="XMLID_246_" class="st2" d="M361.1-59c9.2,0,18.5,0,27.7,0c0.1,0.3,0.2,0.5,0.3,0.8c1.4,6.9,2.7,13.8,4,20.7
			c0.2,1,0.6,1.6,1.6,1.9c3.1,1.2,6.1,2.4,9.1,3.7c1.1,0.5,1.9,0.6,3-0.2c5.8-4,11.7-7.9,17.5-11.7c6.6,6.6,13.2,13.2,19.8,19.8
			c-0.2,0.4-0.6,0.9-0.9,1.4c-3.6,5.4-7.2,10.9-10.9,16.3c-0.7,1-0.6,1.6-0.1,2.7c1.3,2.7,2.5,5.5,3.5,8.3c0.6,1.6,1.2,2.6,3.1,2.7
			c1.5,0.1,3,0.5,4.5,0.9c5.4,1.1,10.7,2.2,16.1,3.3c0,9.2,0,18.5,0,27.7c-0.3,0.1-0.5,0.2-0.8,0.3c-6.9,1.4-13.8,2.7-20.7,4
			c-1,0.2-1.6,0.6-1.9,1.7c-1.1,3-2.3,6-3.7,9c-0.6,1.2-0.6,2.1,0.2,3.2c4,5.8,7.8,11.7,11.6,17.3c-6.6,6.7-13.2,13.2-19.8,19.8
			c-5.8-3.9-11.8-7.8-17.7-11.8c-0.9-0.6-1.5-0.6-2.5-0.2c-3.1,1.4-6.2,2.7-9.4,3.9c-0.9,0.4-1.4,0.8-1.6,1.8
			c-0.6,3.6-1.3,7.1-2,10.7s-1.4,7.2-2.2,10.8c-9.3,0-18.5,0-27.8,0c-0.1-0.4-0.2-0.7-0.3-1c-1.3-6.8-2.7-13.6-4-20.3
			c-0.2-1.1-0.7-1.6-1.8-2c-3.2-1.2-6.3-2.5-9.4-3.9c-0.9-0.4-1.4-0.4-2.2,0.2c-4.7,3.2-9.4,6.3-14.1,9.4c-1.3,0.9-2.6,1.7-3.8,2.5
			c-6.7-6.7-13.2-13.2-19.7-19.7c0.3-0.4,0.6-0.9,0.9-1.4c3.6-5.5,7.3-11,11-16.4c0.6-0.8,0.6-1.5,0.2-2.4c-1.3-2.8-2.6-5.6-3.6-8.5
			c-0.6-1.7-1.4-2.6-3.2-2.8c-1.4-0.1-2.8-0.5-4.2-0.8c-5.4-1.1-10.8-2.2-16.3-3.3c0-9.2,0-18.5,0-27.7c0.3-0.1,0.5-0.2,0.8-0.3
			c6.9-1.4,13.8-2.7,20.7-4c1-0.2,1.6-0.6,1.9-1.6c1.2-3.1,2.4-6.1,3.7-9.1c0.5-1.1,0.6-1.9-0.2-3c-4-5.8-7.9-11.7-11.7-17.5
			c6.6-6.6,13.2-13.2,19.8-19.8c0.4,0.2,0.9,0.6,1.4,0.9c5.4,3.6,10.9,7.2,16.3,10.9c1,0.7,1.6,0.6,2.7,0.1c2.7-1.3,5.5-2.5,8.3-3.5
			c1.6-0.6,2.6-1.2,2.7-3.1c0.1-1.5,0.5-3,0.9-4.5C358.9-48.2,360-53.6,361.1-59z M409.5,25.4c0-19-15.6-34.6-34.6-34.6
			s-34.6,15.6-34.6,34.6S355.9,60,374.9,60C394,60,409.5,44.4,409.5,25.4z"/>
	</g>
	<g id="XMLID_241_" class="st0">
		<path id="XMLID_242_" class="st1" d="M999.3-53.8c2.8,7.3,5.6,14.5,8.4,21.8c-0.2,0.1-0.3,0.3-0.5,0.4c-5,3.1-10,6.3-15,9.4
			c-0.7,0.5-1,1-1,1.9c0,2.8,0,5.5-0.2,8.3c-0.1,1.1,0.1,1.7,1,2.3c4.9,3.4,9.7,6.8,14.5,10.2c-3.2,7.2-6.4,14.3-9.5,21.5
			c-0.4-0.1-0.9-0.2-1.4-0.3c-5.4-1.2-10.7-2.4-16.1-3.6c-0.9-0.2-1.5,0-2.1,0.7c-1.8,1.8-3.6,3.6-5.5,5.3c-1.1,0.9-1.7,1.7-1.2,3.2
			c0.4,1.2,0.5,2.5,0.7,3.8c0.8,4.5,1.5,9.1,2.3,13.6c-7.3,2.8-14.5,5.6-21.8,8.4c-0.2-0.2-0.3-0.3-0.4-0.5c-3.1-5-6.3-10-9.4-15
			c-0.5-0.7-1-1-1.9-1c-2.7,0-5.4,0-8.2-0.2c-1.2-0.1-1.8,0.2-2.5,1.1c-3.4,4.9-6.8,9.7-10.1,14.3c-7.2-3.2-14.4-6.3-21.6-9.5
			c1.3-5.7,2.6-11.6,3.9-17.5c0.2-0.9,0-1.4-0.6-2c-2-2-4-4.1-5.9-6.2c-0.6-0.6-1.1-0.9-1.9-0.7c-3,0.6-6,1.1-9,1.6
			s-6.1,1.1-9.2,1.6c-2.8-7.3-5.6-14.6-8.4-21.8c0.2-0.2,0.4-0.4,0.7-0.5c4.9-3.1,9.8-6.2,14.8-9.3c0.8-0.5,1.1-1,1.1-2
			c0-2.9,0.1-5.7,0.2-8.6c0-0.8-0.1-1.2-0.8-1.7c-3.9-2.7-7.8-5.5-11.7-8.2c-1.1-0.8-2.2-1.5-3.1-2.2c3.2-7.2,6.4-14.3,9.5-21.5
			c0.4,0.1,0.9,0.2,1.4,0.3c5.4,1.2,10.8,2.4,16.2,3.6c0.8,0.2,1.3,0,1.9-0.6c1.8-1.8,3.6-3.7,5.6-5.4c1.2-1,1.7-1.9,1.2-3.4
			c-0.3-1.1-0.4-2.4-0.6-3.5c-0.8-4.6-1.6-9.2-2.3-13.8c7.3-2.8,14.5-5.6,21.8-8.4c0.1,0.2,0.3,0.3,0.4,0.5c3.2,5,6.3,10,9.4,15
			c0.5,0.7,1,1,1.9,1c2.8,0,5.5,0,8.3,0.2c1.1,0.1,1.7-0.1,2.3-1c3.4-4.9,6.8-9.7,10.2-14.5c7.2,3.2,14.3,6.4,21.5,9.5
			c-0.1,0.4-0.2,0.9-0.3,1.4c-1.2,5.4-2.4,10.7-3.6,16.1c-0.2,0.9,0,1.5,0.7,2.1c1.8,1.8,3.6,3.6,5.3,5.5c0.9,1.1,1.7,1.7,3.2,1.2
			c1.2-0.4,2.5-0.5,3.8-0.7C990.2-52.3,994.8-53,999.3-53.8z M947.7,9.9c14.9-5.8,22.4-22.8,16.7-37.7
			c-5.8-14.9-22.8-22.4-37.7-16.7c-14.9,5.8-22.4,22.8-16.7,37.7C915.8,8.1,932.8,15.6,947.7,9.9z"/>
	</g>
	<g id="XMLID_237_" class="st0">
		<path id="XMLID_238_" class="st2" d="M862-33.6c1.6,4.2,3.2,8.3,4.8,12.5c-0.1,0.1-0.2,0.2-0.3,0.3c-2.9,1.8-5.7,3.6-8.6,5.4
			c-0.4,0.3-0.6,0.6-0.6,1.1c0,1.6,0,3.2-0.1,4.8c0,0.6,0.1,1,0.6,1.3c2.8,1.9,5.6,3.9,8.3,5.9c-1.8,4.1-3.6,8.2-5.5,12.4
			c-0.2,0-0.5-0.1-0.8-0.2c-3.1-0.7-6.2-1.4-9.2-2.1c-0.5-0.1-0.9,0-1.2,0.4c-1,1-2,2.1-3.1,3c-0.6,0.5-1,1-0.7,1.9
			c0.2,0.7,0.3,1.5,0.4,2.2c0.4,2.6,0.9,5.2,1.3,7.8c-4.2,1.6-8.3,3.2-12.5,4.8c-0.1-0.1-0.2-0.2-0.3-0.3c-1.8-2.9-3.6-5.7-5.4-8.6
			c-0.3-0.4-0.6-0.6-1.1-0.6c-1.6,0-3.1,0-4.7-0.1c-0.7,0-1,0.1-1.4,0.7c-1.9,2.8-3.9,5.6-5.8,8.2c-4.2-1.8-8.2-3.6-12.4-5.5
			c0.7-3.3,1.5-6.7,2.2-10c0.1-0.5,0-0.8-0.4-1.2c-1.2-1.2-2.3-2.3-3.4-3.6c-0.3-0.4-0.6-0.5-1.1-0.4c-1.7,0.3-3.4,0.6-5.2,0.9
			c-1.7,0.3-3.5,0.6-5.3,0.9c-1.6-4.2-3.2-8.4-4.8-12.5c0.1-0.1,0.3-0.2,0.4-0.3c2.8-1.8,5.6-3.6,8.5-5.3c0.5-0.3,0.6-0.6,0.6-1.1
			c0-1.6,0-3.3,0.1-4.9c0-0.5-0.1-0.7-0.5-1c-2.2-1.6-4.5-3.1-6.7-4.7c-0.6-0.4-1.2-0.9-1.8-1.3c1.8-4.2,3.6-8.2,5.5-12.3
			c0.2,0,0.5,0.1,0.8,0.2c3.1,0.7,6.2,1.4,9.3,2.1c0.5,0.1,0.8,0,1.1-0.3c1-1.1,2.1-2.1,3.2-3.1c0.7-0.6,0.9-1.1,0.7-1.9
			c-0.2-0.7-0.3-1.4-0.4-2c-0.5-2.6-0.9-5.3-1.3-7.9c4.2-1.6,8.3-3.2,12.5-4.8c0.1,0.1,0.2,0.2,0.3,0.3c1.8,2.9,3.6,5.7,5.4,8.6
			c0.3,0.4,0.6,0.6,1.1,0.6c1.6,0,3.2,0,4.8,0.1c0.6,0,1-0.1,1.3-0.6c1.9-2.8,3.9-5.6,5.9-8.3c4.1,1.8,8.2,3.6,12.4,5.5
			c0,0.2-0.1,0.5-0.2,0.8c-0.7,3.1-1.4,6.2-2.1,9.2c-0.1,0.5,0,0.9,0.4,1.2c1,1,2.1,2,3,3.1c0.5,0.6,1,1,1.9,0.7
			c0.7-0.2,1.5-0.3,2.2-0.4C856.8-32.7,859.4-33.1,862-33.6z M832.4,3c8.6-3.3,12.9-13.1,9.6-21.6c-3.3-8.6-13.1-12.9-21.6-9.6
			c-8.6,3.3-12.9,13.1-9.6,21.6C814.1,2,823.8,6.3,832.4,3z"/>
	</g>
	<g id="XMLID_233_" class="st0">
		<path id="XMLID_234_" class="st2" d="M1024.3,68.5c1.6,4.2,3.2,8.3,4.8,12.5c-0.1,0.1-0.2,0.2-0.3,0.3c-2.9,1.8-5.7,3.6-8.6,5.4
			c-0.4,0.3-0.6,0.6-0.6,1.1c0,1.6,0,3.2-0.1,4.8c0,0.6,0.1,1,0.6,1.3c2.8,1.9,5.6,3.9,8.3,5.9c-1.8,4.1-3.6,8.2-5.5,12.4
			c-0.2,0-0.5-0.1-0.8-0.2c-3.1-0.7-6.2-1.4-9.2-2.1c-0.5-0.1-0.8,0-1.2,0.4c-1,1-2,2.1-3.1,3c-0.6,0.5-1,1-0.7,1.9
			c0.2,0.7,0.3,1.5,0.4,2.2c0.4,2.6,0.9,5.2,1.3,7.8c-4.2,1.6-8.3,3.2-12.5,4.8c-0.1-0.1-0.2-0.2-0.3-0.3c-1.8-2.9-3.6-5.7-5.4-8.6
			c-0.3-0.4-0.6-0.6-1.1-0.6c-1.6,0-3.1,0-4.7-0.1c-0.7,0-1,0.1-1.4,0.7c-1.9,2.8-3.9,5.6-5.8,8.2c-4.2-1.8-8.2-3.6-12.4-5.5
			c0.7-3.3,1.5-6.7,2.2-10c0.1-0.5,0-0.8-0.4-1.2c-1.2-1.2-2.3-2.3-3.4-3.6c-0.3-0.4-0.6-0.5-1.1-0.4c-1.7,0.3-3.4,0.6-5.2,0.9
			c-1.7,0.3-3.5,0.6-5.3,0.9c-1.6-4.2-3.2-8.4-4.8-12.5c0.1-0.1,0.3-0.2,0.4-0.3c2.8-1.8,5.6-3.6,8.5-5.3c0.5-0.3,0.6-0.6,0.6-1.1
			c0-1.6,0-3.3,0.1-4.9c0-0.5-0.1-0.7-0.5-1c-2.2-1.6-4.5-3.1-6.7-4.7c-0.6-0.4-1.2-0.9-1.8-1.3c1.8-4.2,3.6-8.2,5.5-12.3
			c0.2,0,0.5,0.1,0.8,0.2c3.1,0.7,6.2,1.4,9.3,2.1c0.5,0.1,0.8,0,1.1-0.3c1-1.1,2.1-2.1,3.2-3.1c0.7-0.6,0.9-1.1,0.7-1.9
			c-0.2-0.7-0.3-1.4-0.4-2c-0.4-2.6-0.9-5.3-1.3-7.9c4.2-1.6,8.3-3.2,12.5-4.8c0.1,0.1,0.2,0.2,0.3,0.3c1.8,2.9,3.6,5.7,5.4,8.6
			c0.3,0.4,0.6,0.6,1.1,0.6c1.6,0,3.2,0,4.8,0.1c0.6,0,1-0.1,1.3-0.6c1.9-2.8,3.9-5.6,5.9-8.3c4.1,1.8,8.2,3.6,12.4,5.5
			c0,0.2-0.1,0.5-0.2,0.8c-0.7,3.1-1.4,6.2-2.1,9.2c-0.1,0.5,0,0.9,0.4,1.2c1,1,2.1,2,3,3.1c0.5,0.6,1,1,1.9,0.7
			c0.7-0.2,1.5-0.3,2.2-0.4C1019.1,69.4,1021.7,69,1024.3,68.5z M994.7,105.1c8.6-3.3,12.9-13.1,9.6-21.6
			c-3.3-8.6-13.1-12.9-21.6-9.6c-8.6,3.3-12.9,13.1-9.6,21.6C976.4,104.1,986.1,108.4,994.7,105.1z"/>
	</g>
	<g id="XMLID_229_">
		<rect id="XMLID_232_" x="123.9" y="33.9" class="st3" width="785.4" height="438.5"/>
		<g id="XMLID_230_">
			<rect id="XMLID_231_" x="144.2" y="51.7" class="st4" width="744.6" height="402.8"/>
		</g>
	</g>
	<g id="XMLID_222_">
		<g id="XMLID_227_" class="st5">
			<ellipse id="XMLID_228_" class="st3" cx="523.9" cy="568.4" rx="516.5" ry="22.6"/>
		</g>
		<g id="XMLID_225_">
			<rect id="XMLID_226_" x="459.3" y="460.6" class="st3" width="114.5" height="86"/>
		</g>
		<g id="XMLID_223_">
			<rect id="XMLID_224_" x="385.7" y="532.1" class="st3" width="260.8" height="26.8"/>
		</g>
	</g>
	<g id="XMLID_220_" class="st0">
		<polygon id="XMLID_221_" class="st6" points="283.7,401.3 143.3,381.3 144.8,370.5 279,389.6 396,237.7 543.9,292 622.9,182.4 
			729.6,237.6 808,115 817.2,120.9 733.4,251.8 626.2,196.4 547.9,305 399.7,250.7 		"/>
	</g>
	<g id="XMLID_216_" class="st0">
		<path id="XMLID_217_" class="st7" d="M398.6,270.8c-12.8,0-23.2-10.4-23.2-23.2s10.4-23.2,23.2-23.2c12.8,0,23.2,10.4,23.2,23.2
			C421.8,260.4,411.4,270.8,398.6,270.8z M398.6,225.7c-12.1,0-21.9,9.8-21.9,21.9s9.8,21.9,21.9,21.9s21.9-9.8,21.9-21.9
			C420.6,235.6,410.7,225.7,398.6,225.7z"/>
	</g>
	<g id="XMLID_212_" class="st0">
		<path id="XMLID_213_" class="st7" d="M623.1,218.6c-12.8,0-23.2-10.4-23.2-23.2s10.4-23.2,23.2-23.2s23.2,10.4,23.2,23.2
			C646.3,208.2,635.9,218.6,623.1,218.6z M623.1,173.5c-12.1,0-21.9,9.8-21.9,21.9c0,12.1,9.8,21.9,21.9,21.9
			c12.1,0,21.9-9.8,21.9-21.9C645.1,183.3,635.2,173.5,623.1,173.5z"/>
	</g>
	<g id="XMLID_208_" class="st0">
		<path id="XMLID_209_" class="st7" d="M546,319.1c-12.8,0-23.2-10.4-23.2-23.2c0-12.8,10.4-23.2,23.2-23.2s23.2,10.4,23.2,23.2
			C569.1,308.8,558.7,319.1,546,319.1z M546,274c-12.1,0-21.9,9.8-21.9,21.9s9.8,21.9,21.9,21.9c12.1,0,21.9-9.8,21.9-21.9
			C567.9,283.9,558,274,546,274z"/>
	</g>
	<g id="XMLID_204_" class="st0">
		<path id="XMLID_205_" class="st7" d="M277.8,415c-12.8,0-23.2-10.4-23.2-23.2c0-12.8,10.4-23.2,23.2-23.2S301,379,301,391.8
			S290.6,415,277.8,415z M277.8,369.9c-12.1,0-21.9,9.8-21.9,21.9s9.8,21.9,21.9,21.9s21.9-9.8,21.9-21.9
			C299.8,379.8,289.9,369.9,277.8,369.9z"/>
	</g>
	<g id="XMLID_200_" class="st0">
		<path id="XMLID_201_" class="st7" d="M729.1,263c-12.8,0-23.2-10.4-23.2-23.2s10.4-23.2,23.2-23.2s23.2,10.4,23.2,23.2
			S741.9,263,729.1,263z M729.1,217.9c-12.1,0-21.9,9.8-21.9,21.9c0,12.1,9.8,21.9,21.9,21.9c12.1,0,21.9-9.8,21.9-21.9
			C751.1,227.8,741.2,217.9,729.1,217.9z"/>
	</g>
	<g id="XMLID_126_" class="st0">
		<path id="XMLID_188_" class="st7" d="M546.8,279.2H545v-7.3h1.8V279.2z M546.8,264.6H545v-7.3h1.8V264.6z M546.8,250H545v-7.3h1.8
			V250z M546.8,235.4H545v-7.3h1.8V235.4z M546.8,220.8H545v-7.3h1.8V220.8z M546.8,206.3H545V199h1.8V206.3z M546.8,191.7H545v-7.3
			h1.8V191.7z M546.8,177.1H545v-7.3h1.8V177.1z M546.8,162.5H545v-7.3h1.8V162.5z M546.8,147.9H545v-7.3h1.8V147.9z M546.8,133.3
			H545V126h1.8V133.3z"/>
		<g id="XMLID_186_" class="st8">
			<polygon id="XMLID_187_" class="st3" points="546.8,118.7 545,118.7 545,115.7 542.6,115.7 542.6,113.8 546.8,113.8 			"/>
		</g>
		<g id="XMLID_166_" class="st8">
			<path id="XMLID_167_" class="st3" d="M534.1,115.7h-7.3v-1.8h7.3V115.7z M519.5,115.7h-7.3v-1.8h7.3V115.7z M504.9,115.7h-7.3
				v-1.8h7.3V115.7z M490.3,115.7H483v-1.8h7.3V115.7z M475.7,115.7h-7.3v-1.8h7.3V115.7z M461.1,115.7h-7.3v-1.8h7.3V115.7z
				 M446.5,115.7h-7.3v-1.8h7.3V115.7z M431.9,115.7h-7.3v-1.8h7.3V115.7z M417.3,115.7H410v-1.8h7.3V115.7z M402.7,115.7h-7.3v-1.8
				h7.3V115.7z M388.2,115.7h-7.3v-1.8h7.3V115.7z M373.6,115.7h-7.3v-1.8h7.3V115.7z M359,115.7h-7.3v-1.8h7.3V115.7z M344.4,115.7
				h-7.3v-1.8h7.3V115.7z M329.8,115.7h-7.3v-1.8h7.3V115.7z M315.2,115.7h-7.3v-1.8h7.3V115.7z M300.6,115.7h-7.3v-1.8h7.3V115.7z
				 M286,115.7h-7.3v-1.8h7.3V115.7z"/>
		</g>
		<g id="XMLID_164_" class="st8">
			<polygon id="XMLID_165_" class="st3" points="268.4,118.7 266.6,118.7 266.6,113.8 271.4,113.8 271.4,115.7 268.4,115.7 			"/>
		</g>
		<g id="XMLID_151_" class="st8">
			<path id="XMLID_152_" class="st3" d="M268.4,278h-1.8v-7.3h1.8V278z M268.4,263.4h-1.8v-7.3h1.8V263.4z M268.4,248.8h-1.8v-7.3
				h1.8V248.8z M268.4,234.2h-1.8v-7.3h1.8V234.2z M268.4,219.6h-1.8v-7.3h1.8V219.6z M268.4,205h-1.8v-7.3h1.8V205z M268.4,190.4
				h-1.8v-7.3h1.8V190.4z M268.4,175.9h-1.8v-7.3h1.8V175.9z M268.4,161.3h-1.8V154h1.8V161.3z M268.4,146.7h-1.8v-7.3h1.8V146.7z
				 M268.4,132.1h-1.8v-7.3h1.8V132.1z"/>
		</g>
		<g id="XMLID_149_" class="st8">
			<polygon id="XMLID_150_" class="st3" points="271.4,289.6 266.6,289.6 266.6,285.3 268.4,285.3 268.4,287.7 271.4,287.7 			"/>
		</g>
		<g id="XMLID_129_" class="st8">
			<path id="XMLID_130_" class="st3" d="M534.7,289.6h-7.3v-1.8h7.3V289.6z M520.1,289.6h-7.3v-1.8h7.3V289.6z M505.5,289.6h-7.3
				v-1.8h7.3V289.6z M490.9,289.6h-7.3v-1.8h7.3V289.6z M476.3,289.6H469v-1.8h7.3V289.6z M461.7,289.6h-7.3v-1.8h7.3V289.6z
				 M447.1,289.6h-7.3v-1.8h7.3V289.6z M432.5,289.6h-7.3v-1.8h7.3V289.6z M417.9,289.6h-7.3v-1.8h7.3V289.6z M403.4,289.6h-7.3
				v-1.8h7.3V289.6z M388.8,289.6h-7.3v-1.8h7.3V289.6z M374.2,289.6h-7.3v-1.8h7.3V289.6z M359.6,289.6h-7.3v-1.8h7.3V289.6z
				 M345,289.6h-7.3v-1.8h7.3V289.6z M330.4,289.6h-7.3v-1.8h7.3V289.6z M315.8,289.6h-7.3v-1.8h7.3V289.6z M301.2,289.6h-7.3v-1.8
				h7.3V289.6z M286.6,289.6h-7.3v-1.8h7.3V289.6z"/>
		</g>
		<g id="XMLID_127_" class="st8">
			<polygon id="XMLID_128_" class="st3" points="546.8,289.6 542.6,289.6 542.6,287.7 545,287.7 545,285.3 546.8,285.3 			"/>
		</g>
	</g>
	<g id="XMLID_89_" class="st0">
		<g id="XMLID_124_" class="st8">
			<path id="XMLID_125_" class="st9" d="M1106.8,283.3c0,15.5-12.4,28.2-27.4,28.2H752.8c-15.1,0-27.2-12.7-27.2-28.2V102.4
				c0-15.5,12.1-28.7,27.2-28.7h326.6c15.1,0,27.4,13.2,27.4,28.7V283.3z"/>
		</g>
		<g id="XMLID_122_" class="st8">
			<rect id="XMLID_123_" x="770.6" y="121.1" class="st10" width="139.8" height="99.1"/>
		</g>
		<g id="XMLID_120_" class="st8">
			<rect id="XMLID_121_" x="770.6" y="233" class="st11" width="63.2" height="43.8"/>
		</g>
		<g id="XMLID_118_" class="st8">
			<rect id="XMLID_119_" x="849.6" y="233" class="st12" width="63.2" height="43.8"/>
		</g>
		<g id="XMLID_116_" class="st8">
			<rect id="XMLID_117_" x="929.9" y="233" class="st13" width="63.8" height="43.8"/>
		</g>
		<g id="XMLID_114_" class="st8">
			<rect id="XMLID_115_" x="1009.5" y="233" class="st11" width="63.8" height="43.8"/>
		</g>
		<g id="XMLID_112_" class="st8">
			<rect id="XMLID_113_" x="923.8" y="128.4" class="st14" width="150.2" height="10.3"/>
		</g>
		<g id="XMLID_110_" class="st8">
			<rect id="XMLID_111_" x="923.8" y="145.5" class="st14" width="150.2" height="5.5"/>
		</g>
		<g id="XMLID_108_" class="st8">
			<rect id="XMLID_109_" x="923.8" y="155.2" class="st14" width="150.2" height="6.1"/>
		</g>
		<g id="XMLID_106_" class="st8">
			<rect id="XMLID_107_" x="923.8" y="164.3" class="st14" width="150.2" height="5.5"/>
		</g>
		<g id="XMLID_104_" class="st8">
			<rect id="XMLID_105_" x="923.8" y="174" class="st14" width="150.2" height="4.9"/>
		</g>
		<g id="XMLID_102_" class="st8">
			<rect id="XMLID_103_" x="923.8" y="183.2" class="st14" width="150.2" height="5.5"/>
		</g>
		<g id="XMLID_100_" class="st8">
			<rect id="XMLID_101_" x="923.8" y="192.3" class="st14" width="150.2" height="5.5"/>
		</g>
		<g id="XMLID_98_" class="st8">
			<rect id="XMLID_99_" x="923.8" y="202" class="st14" width="150.2" height="5.5"/>
		</g>
		<g id="XMLID_96_" class="st8">
			<rect id="XMLID_97_" x="923.8" y="211.1" class="st14" width="150.2" height="5.5"/>
		</g>
		<g id="XMLID_94_" class="st8">
			<ellipse id="XMLID_95_" class="st15" cx="1075.8" cy="98.4" rx="5.9" ry="5.8"/>
		</g>
		<g id="XMLID_92_" class="st8">
			<ellipse id="XMLID_93_" class="st16" cx="1060.6" cy="98.4" rx="5.9" ry="5.8"/>
		</g>
		<g id="XMLID_90_" class="st17">
			<ellipse id="XMLID_91_" class="st3" cx="1046.4" cy="98.4" rx="5.9" ry="5.8"/>
		</g>
	</g>
	<g id="XMLID_57_" class="st0">
		<rect id="XMLID_88_" x="1074.6" y="394.1" class="st18" width="32.2" height="22.5"/>
		<g id="XMLID_70_" class="st8">
			<rect id="XMLID_87_" x="1033.9" y="344.3" class="st19" width="73" height="4.9"/>
			<g id="XMLID_71_">
				<rect id="XMLID_86_" x="1033.9" y="352.8" class="st19" width="73" height="1.8"/>
				<g id="XMLID_72_">
					<rect id="XMLID_85_" x="1033.9" y="357.6" class="st19" width="73" height="1.8"/>
					<g id="XMLID_73_">
						<rect id="XMLID_84_" x="1033.9" y="361.9" class="st19" width="73" height="2.4"/>
						<g id="XMLID_74_">
							<rect id="XMLID_83_" x="1033.9" y="365.6" class="st19" width="73" height="3"/>
							<g id="XMLID_75_">
								<rect id="XMLID_82_" x="1033.9" y="370.4" class="st19" width="73" height="3"/>
								<g id="XMLID_76_">
									<rect id="XMLID_81_" x="1033.9" y="374.7" class="st19" width="73" height="3"/>
									<g id="XMLID_77_">
										<rect id="XMLID_80_" x="1033.9" y="379.5" class="st19" width="73" height="2.4"/>
										<g id="XMLID_78_">
											<rect id="XMLID_79_" x="1033.9" y="384.4" class="st19" width="73" height="2.4"/>
										</g>
									</g>
								</g>
							</g>
						</g>
					</g>
				</g>
			</g>
		</g>
		<g id="XMLID_68_" class="st8">
			<rect id="XMLID_69_" x="1036.3" y="394.1" class="st11" width="31.6" height="22.5"/>
		</g>
		<g id="XMLID_66_" class="st8">
			<rect id="XMLID_67_" x="996.8" y="394.1" class="st13" width="32.2" height="22.5"/>
		</g>
		<g id="XMLID_64_" class="st8">
			<rect id="XMLID_65_" x="957.9" y="394.1" class="st20" width="31" height="22.5"/>
		</g>
		<g id="XMLID_62_" class="st8">
			<rect id="XMLID_63_" x="957.9" y="340" class="st13" width="68.7" height="48"/>
		</g>
		<g id="XMLID_60_" class="st17">
			<ellipse id="XMLID_61_" class="st3" cx="1093.3" cy="329.1" rx="2.9" ry="2.8"/>
		</g>
		<g id="XMLID_58_" class="st8">
			<ellipse id="XMLID_59_" class="st16" cx="1100.3" cy="329.1" rx="2.9" ry="2.8"/>
		</g>
	</g>
	<g id="XMLID_44_" class="st0">
		<g id="XMLID_55_" class="st8">
			<rect id="XMLID_56_" x="479.4" y="-24.2" class="st19" width="12.8" height="47.4"/>
		</g>
		<g id="XMLID_53_" class="st8">
			<rect id="XMLID_54_" x="497" y="-41.8" class="st14" width="13.4" height="65.1"/>
		</g>
		<g id="XMLID_51_" class="st8">
			<rect id="XMLID_52_" x="515.8" y="-34.5" class="st19" width="13.4" height="57.8"/>
		</g>
		<g id="XMLID_49_" class="st8">
			<rect id="XMLID_50_" x="532.9" y="-57.6" class="st21" width="13.4" height="80.9"/>
		</g>
		<g id="XMLID_47_" class="st8">
			<rect id="XMLID_48_" x="551.7" y="-46.7" class="st22" width="13.4" height="69.9"/>
		</g>
		<g id="XMLID_45_" class="st8">
			<rect id="XMLID_46_" x="569.9" y="-28.4" class="st19" width="12.8" height="51.7"/>
		</g>
	</g>
	<g id="XMLID_32_" class="st0">
		<rect id="XMLID_43_" x="483" y="361.9" class="st23" width="15.8" height="60.8"/>
		<g id="XMLID_41_" class="st8">
			<rect id="XMLID_42_" x="462.3" y="340.6" class="st24" width="15.2" height="82.1"/>
		</g>
		<g id="XMLID_39_" class="st8">
			<rect id="XMLID_40_" x="439.2" y="328.5" class="st24" width="16.4" height="94.2"/>
		</g>
		<g id="XMLID_37_" class="st8">
			<rect id="XMLID_38_" x="419.8" y="354.6" class="st24" width="16.4" height="68.1"/>
		</g>
		<g id="XMLID_35_" class="st8">
			<rect id="XMLID_36_" x="397.9" y="346.1" class="st24" width="15.2" height="76.6"/>
		</g>
		<g id="XMLID_33_" class="st8">
			<rect id="XMLID_34_" x="376.6" y="367.4" class="st24" width="15.2" height="55.3"/>
		</g>
	</g>
	<g id="XMLID_3_" class="st0">
		<path id="XMLID_31_" class="st25" d="M548.7,383.9c0.3-1.3,0.5-2.7,0.8-3.9c3.4-12.2,11.3-19.7,23.5-22.8c0.4-0.1,0.9-0.2,1.2-0.3
			c1.4-20,10.8-34.1,30.2-39.5c19.1-5.3,34.3,1.9,45.4,17.7c3.5-1.2,6.9-2.7,10.5-3.4c16-3.3,32.1,7.5,35.4,23.5
			c0.2,1.2,0.6,1.8,1.9,2c14.7,2.9,25.1,16.2,24.5,31.2c-0.5,14.5-12.2,27-26.9,28.8c-1.5,0.2-3,0.3-4.6,0.3
			c-36.8,0-73.6-0.1-110.5,0.1c-16.7,0.1-29.6-12.4-31.3-26.5c0-0.3-0.2-0.6-0.3-1C548.7,388,548.7,386,548.7,383.9z"/>
		<path id="XMLID_4_" class="st7" d="M615.6,391v-0.6c2.4,0,4.9,0,7.3,0v0.6C620.5,391,618,391,615.6,391z M630.2,390.9v-0.6h7.3
			v0.6H630.2z M694.9,390.9h-6.3v-0.6h6.3h1v0.6H694.9z M703.1,390.9v-0.6c1.2,0,2.4-0.1,3.6-0.2c1.2-0.1,2.4-0.4,3.6-0.7l0.2,0.6
			c-1.2,0.3-2.4,0.6-3.7,0.7C705.5,390.9,704.3,390.9,703.1,390.9z M681.3,390.9H674v-0.6h7.3V390.9z M666.7,390.9h-7.3v-0.6h7.3
			V390.9z M644.8,390.9v-0.6h7.3v0.6H644.8z M608.3,390.5c-2.4-0.5-4.8-1.3-6.9-2.4l0.3-0.5c2.1,1.1,4.4,1.9,6.8,2.4L608.3,390.5z
			 M717.1,387l-0.3-0.5c2-1.3,3.9-2.9,5.5-4.7l0.5,0.4C721.1,384,719.2,385.7,717.1,387z M595.4,383.7c-1.8-1.7-3.3-3.7-4.5-5.8
			l0.5-0.3c1.2,2.1,2.7,4,4.4,5.7L595.4,383.7z M726.7,376l-0.6-0.3c1-2.2,1.7-4.5,1.9-6.9l0.6,0.1
			C728.4,371.3,727.7,373.7,726.7,376z M588.3,371c-0.1-0.6-0.2-1.2-0.3-1.8c0-0.1-0.1-0.3-0.1-0.5c0-0.1-0.1-0.2-0.1-0.3v-0.1v-4.7
			h0.6v4.7c0,0.1,0,0.1,0.1,0.2c0.1,0.2,0.1,0.4,0.2,0.6c0.1,0.6,0.2,1.2,0.3,1.7L588.3,371z M588.3,363.5l-0.6-0.1
			c0.1-0.3,0.1-0.7,0.2-1c0.1-0.7,0.3-1.5,0.5-2.2c0.4-1.3,0.8-2.6,1.3-3.8l0.6,0.2c-0.5,1.2-0.9,2.4-1.3,3.8
			c-0.2,0.7-0.3,1.4-0.5,2.2C588.5,362.9,588.4,363.2,588.3,363.5z M727.8,361.7c-0.4-2.4-1.2-4.6-2.3-6.8l0.5-0.3
			c1.1,2.2,1.9,4.5,2.4,7L727.8,361.7z M594,350.4l-0.5-0.4c1.6-1.9,3.4-3.5,5.5-4.9l0.3,0.5C597.3,347,595.5,348.6,594,350.4z
			 M721.3,349.1c-1.7-1.7-3.6-3.2-5.7-4.4l0.3-0.5c2.1,1.2,4.1,2.7,5.8,4.5L721.3,349.1z M605.9,342.7l-0.2-0.6
			c0.6-0.2,1.3-0.4,2-0.6c0.3-0.1,0.5-0.1,0.7-0.2c0.1-1.4,0.3-2.8,0.5-4.1l0.6,0.1c-0.2,1.4-0.4,2.8-0.5,4.2v0.2l-0.2,0.1
			c-0.3,0.1-0.6,0.1-0.9,0.2C607.2,342.3,606.5,342.5,605.9,342.7z M708.9,342.2l-0.3-0.1c-1.2-0.2-1.6-0.9-1.8-1.9
			c-0.3-1.5-0.7-2.9-1.3-4.3l0.6-0.2c0.6,1.4,1,2.9,1.4,4.4c0.2,0.8,0.4,1.2,1.3,1.4l0.3,0.1L708.9,342.2z M611.1,330.3l-0.6-0.2
			c0.8-2.4,1.8-4.7,3-6.7l0.5,0.3C612.9,325.7,611.9,327.9,611.1,330.3z M701.8,329.8c-1.5-1.8-3.3-3.5-5.4-4.8l0.3-0.5
			c2.1,1.4,3.9,3,5.5,4.9L701.8,329.8z M669.8,324.3l-0.1-0.2c-0.2-0.3-0.5-0.7-0.7-1l0.5-0.4c0.2,0.3,0.4,0.6,0.6,0.8
			c0.8-0.3,1.7-0.6,2.5-0.9c1-0.4,2-0.7,3-1.1l0.2,0.6c-1,0.3-2,0.7-3,1.1c-0.9,0.3-1.8,0.7-2.7,1L669.8,324.3z M689.9,322
			c-2.2-0.7-4.5-1-6.8-1c-0.1,0-0.2,0-0.3,0v-0.6c0.1,0,0.3,0,0.4,0c2.3,0,4.6,0.3,6.9,1L689.9,322z M618.5,318.1l-0.4-0.4
			c1.7-1.7,3.7-3.2,5.8-4.5l0.3,0.5C622.1,314.9,620.2,316.4,618.5,318.1z M664.2,317.6c-1.8-1.7-3.7-3.3-5.6-4.5l0.3-0.5
			c2,1.3,3.9,2.8,5.7,4.6L664.2,317.6z M630.8,310.7l-0.2-0.6c0.8-0.3,1.6-0.5,2.5-0.8c1.6-0.4,3.1-0.8,4.6-1l0.1,0.6
			c-1.5,0.2-3,0.6-4.6,1C632.4,310.2,631.6,310.4,630.8,310.7z M652.1,310c-2.3-0.8-4.6-1.2-7.1-1.4V308c2.5,0.2,4.9,0.6,7.2,1.4
			L652.1,310z"/>
	</g>
</g>
</svg>
