<?xml version="1.0" encoding="utf-8"?>
<!-- Generator: Adobe Illustrator 19.0.0, SVG Export Plug-In . SVG Version: 6.00 Build 0)  -->
<svg version="1.1" id="Warstwa_1" xmlns="http://www.w3.org/2000/svg" xmlns:xlink="http://www.w3.org/1999/xlink" x="0px" y="0px"
	 viewBox="0 0 1000 500" style="enable-background:new 0 0 1000 500;" xml:space="preserve">
<style type="text/css">
	.st0{display:none;}
	.st1{display:inline;fill-rule:evenodd;clip-rule:evenodd;fill:#403461;}
	.st2{display:inline;fill-rule:evenodd;clip-rule:evenodd;fill:#6C6C6C;}
	.st3{display:inline;fill:#1C103B;}
	.st4{display:inline;}
	.st5{fill:#EEEEEE;}
	.st6{display:inline;opacity:0.3;}
	.st7{fill:#1C103B;}
	.st8{display:inline;fill:#D42D30;}
	.st9{fill:#FFF1B6;}
	.st10{fill:#22B573;}
	.st11{fill:#F15A24;}
	.st12{fill:#8CC63F;}
	.st13{fill:#29ABE2;}
	.st14{fill:#403461;}
	.st15{fill:#EC1C24;}
	.st16{fill:#8BC53F;}
	.st17{opacity:0.4;}
	.st18{fill:#6C6C6C;}
	.st19{fill:#FFAD04;}
	.st20{fill:#FF0000;}
	.st21{fill:#0000FF;}
	.st22{fill:#F98BFC;}
	.st23{fill-rule:evenodd;clip-rule:evenodd;fill:#29ABE2;}
</style>
<image style="display:none;overflow:visible;" width="1000" height="500" xlink:href="img_0.png" >
</image>
<g id="XMLID_2_">
	<g id="XMLID_253_" class="st0">
		<path id="XMLID_254_" class="st1" d="M-76.2-33.7c16.1,0,32.2,0,48.2,0c0.2,0.4,0.4,0.9,0.5,1.3c2.4,12,4.7,24,7,36
			c0.3,1.8,1.1,2.7,2.9,3.4c5.4,2,10.7,4.1,15.9,6.5c2,0.9,3.3,1,5.2-0.3C13.6,6.3,23.9-0.5,33.9-7.2C45.4,4.4,56.8,15.8,68.3,27.3
			c-0.4,0.7-1,1.6-1.6,2.4c-6.3,9.5-12.6,19-19,28.4c-1.1,1.7-1.1,2.9-0.2,4.6c2.2,4.7,4.4,9.6,6.1,14.5c1,2.8,2.1,4.6,5.4,4.8
			c2.6,0.1,5.3,1,7.9,1.5c9.3,1.9,18.7,3.8,28,5.7c0,16.1,0,32.2,0,48.2c-0.4,0.2-0.9,0.4-1.3,0.5c-12,2.4-24,4.7-36,7
			c-1.8,0.3-2.7,1.1-3.4,2.9c-2,5.3-4,10.5-6.4,15.6c-1,2.2-1,3.6,0.3,5.7c6.9,10.1,13.6,20.3,20.1,30.1
			c-11.6,11.6-22.9,23-34.5,34.5c-10.1-6.7-20.5-13.6-30.8-20.6c-1.6-1.1-2.7-1.1-4.4-0.3c-5.4,2.4-10.9,4.7-16.4,6.8
			c-1.6,0.6-2.4,1.4-2.7,3.1c-1.1,6.2-2.3,12.4-3.6,18.6c-1.2,6.3-2.5,12.5-3.8,18.8c-16.3,0-32.3,0-48.4,0
			c-0.2-0.6-0.4-1.1-0.5-1.7c-2.3-11.8-4.7-23.6-6.9-35.4c-0.4-1.9-1.2-2.8-3.1-3.5c-5.5-2.1-11-4.4-16.4-6.8
			c-1.5-0.7-2.5-0.6-3.9,0.3c-8.1,5.5-16.4,10.9-24.6,16.4c-2.3,1.5-4.6,3-6.6,4.4c-11.6-11.6-22.9-22.9-34.4-34.4
			c0.4-0.7,1-1.6,1.6-2.5c6.4-9.5,12.7-19.1,19.1-28.6c1-1.5,1-2.6,0.3-4.1c-2.2-4.9-4.5-9.7-6.2-14.8c-1-3-2.4-4.6-5.6-4.8
			c-2.5-0.2-4.9-0.9-7.3-1.4c-9.4-1.9-18.9-3.8-28.3-5.7c0-16.1,0-32.2,0-48.2c0.4-0.2,0.9-0.4,1.3-0.5c12-2.4,24-4.7,36-7
			c1.8-0.3,2.7-1.1,3.4-2.9c2-5.4,4.1-10.7,6.5-15.9c0.9-2,1-3.3-0.3-5.2c-6.9-10.2-13.7-20.5-20.4-30.5
			c11.5-11.5,22.9-22.9,34.4-34.4c0.7,0.4,1.6,1,2.4,1.6c9.5,6.3,19,12.6,28.4,19c1.7,1.1,2.9,1.1,4.6,0.2c4.7-2.2,9.6-4.4,14.5-6.1
			c2.8-1,4.6-2.1,4.8-5.4c0.1-2.6,1-5.3,1.5-7.9C-80-15-78.1-24.4-76.2-33.7z M8.2,113.2C8.2,80.1-19,52.9-52.1,53
			c-33.2,0-60.3,27.2-60.2,60.3c0,33.2,27.2,60.3,60.3,60.2C-18.9,173.5,8.2,146.3,8.2,113.2z"/>
	</g>
	<g id="XMLID_249_" class="st0">
		<path id="XMLID_250_" class="st2" d="M-139.4,246.2c9.2,0,18.5,0,27.7,0c0.1,0.3,0.2,0.5,0.3,0.8c1.4,6.9,2.7,13.8,4,20.7
			c0.2,1,0.6,1.6,1.6,1.9c3.1,1.2,6.1,2.4,9.1,3.7c1.1,0.5,1.9,0.6,3-0.2c5.8-4,11.7-7.9,17.5-11.7c6.6,6.6,13.2,13.2,19.8,19.8
			c-0.2,0.4-0.6,0.9-0.9,1.4c-3.6,5.4-7.2,10.9-10.9,16.3c-0.7,1-0.6,1.6-0.1,2.7c1.3,2.7,2.5,5.5,3.5,8.3c0.6,1.6,1.2,2.6,3.1,2.7
			c1.5,0.1,3,0.5,4.5,0.9c5.4,1.1,10.7,2.2,16.1,3.3c0,9.2,0,18.5,0,27.7c-0.3,0.1-0.5,0.2-0.8,0.3c-6.9,1.3-13.8,2.7-20.7,4
			c-1,0.2-1.6,0.6-1.9,1.7c-1.1,3-2.3,6-3.7,9c-0.6,1.2-0.6,2.1,0.2,3.2c4,5.8,7.8,11.7,11.6,17.3c-6.6,6.7-13.2,13.2-19.8,19.8
			c-5.8-3.9-11.8-7.8-17.7-11.8c-0.9-0.6-1.5-0.6-2.5-0.2c-3.1,1.4-6.2,2.7-9.4,3.9c-0.9,0.4-1.4,0.8-1.6,1.8
			c-0.6,3.6-1.3,7.1-2,10.7c-0.7,3.6-1.4,7.2-2.2,10.8c-9.3,0-18.5,0-27.8,0c-0.1-0.4-0.2-0.7-0.3-1c-1.3-6.8-2.7-13.6-4-20.3
			c-0.2-1.1-0.7-1.6-1.8-2c-3.2-1.2-6.3-2.5-9.4-3.9c-0.9-0.4-1.4-0.4-2.2,0.2c-4.7,3.2-9.4,6.3-14.1,9.4c-1.3,0.9-2.6,1.7-3.8,2.5
			c-6.7-6.7-13.2-13.2-19.7-19.7c0.3-0.4,0.6-0.9,0.9-1.4c3.6-5.5,7.3-11,11-16.4c0.6-0.8,0.6-1.5,0.2-2.4c-1.3-2.8-2.6-5.6-3.6-8.5
			c-0.6-1.7-1.4-2.6-3.2-2.8c-1.4-0.1-2.8-0.5-4.2-0.8c-5.4-1.1-10.8-2.2-16.3-3.3c0-9.2,0-18.5,0-27.7c0.3-0.1,0.5-0.2,0.8-0.3
			c6.9-1.4,13.8-2.7,20.7-4c1-0.2,1.6-0.6,1.9-1.6c1.2-3.1,2.4-6.1,3.7-9.1c0.5-1.1,0.6-1.9-0.2-3c-4-5.8-7.9-11.7-11.7-17.5
			c6.6-6.6,13.2-13.2,19.8-19.8c0.4,0.2,0.9,0.6,1.4,0.9c5.4,3.6,10.9,7.2,16.3,10.9c1,0.6,1.6,0.6,2.7,0.1c2.7-1.3,5.5-2.5,8.3-3.5
			c1.6-0.6,2.6-1.2,2.7-3.1c0.1-1.5,0.5-3,0.9-4.5C-141.6,257-140.5,251.6-139.4,246.2z M-91,330.6c0-19-15.6-34.6-34.6-34.6
			c-19,0-34.6,15.6-34.6,34.6c0,19,15.6,34.6,34.6,34.6C-106.5,365.2-90.9,349.6-91,330.6z"/>
	</g>
	<g id="XMLID_245_" class="st0">
		<path id="XMLID_246_" class="st2" d="M178.5,9.2c9.2,0,18.5,0,27.7,0c0.1,0.3,0.2,0.5,0.3,0.8c1.4,6.9,2.7,13.8,4,20.7
			c0.2,1,0.6,1.6,1.6,1.9c3.1,1.2,6.1,2.4,9.1,3.7c1.1,0.5,1.9,0.6,3-0.2c5.8-4,11.7-7.9,17.5-11.7c6.6,6.6,13.2,13.2,19.8,19.8
			c-0.2,0.4-0.6,0.9-0.9,1.4c-3.6,5.4-7.2,10.9-10.9,16.3c-0.7,1-0.6,1.6-0.1,2.7c1.3,2.7,2.5,5.5,3.5,8.3c0.6,1.6,1.2,2.6,3.1,2.7
			c1.5,0.1,3,0.5,4.5,0.9c5.4,1.1,10.7,2.2,16.1,3.3c0,9.2,0,18.5,0,27.7c-0.3,0.1-0.5,0.2-0.8,0.3c-6.9,1.4-13.8,2.7-20.7,4
			c-1,0.2-1.6,0.6-1.9,1.7c-1.1,3-2.3,6-3.7,9c-0.6,1.2-0.6,2.1,0.2,3.2c4,5.8,7.8,11.7,11.6,17.3c-6.6,6.7-13.2,13.2-19.8,19.8
			c-5.8-3.9-11.8-7.8-17.7-11.8c-0.9-0.6-1.5-0.6-2.5-0.2c-3.1,1.4-6.2,2.7-9.4,3.9c-0.9,0.4-1.4,0.8-1.6,1.8
			c-0.6,3.6-1.3,7.1-2,10.7c-0.7,3.6-1.4,7.2-2.2,10.8c-9.3,0-18.5,0-27.8,0c-0.1-0.4-0.2-0.7-0.3-1c-1.3-6.8-2.7-13.6-4-20.3
			c-0.2-1.1-0.7-1.6-1.8-2c-3.2-1.2-6.3-2.5-9.4-3.9c-0.9-0.4-1.4-0.4-2.2,0.2c-4.7,3.2-9.4,6.3-14.1,9.4c-1.3,0.9-2.6,1.7-3.8,2.5
			c-6.7-6.7-13.2-13.2-19.7-19.7c0.3-0.4,0.6-0.9,0.9-1.4c3.6-5.5,7.3-11,11-16.4c0.6-0.8,0.6-1.5,0.2-2.4c-1.3-2.8-2.6-5.6-3.6-8.5
			c-0.6-1.7-1.4-2.6-3.2-2.8c-1.4-0.1-2.8-0.5-4.2-0.8c-5.4-1.1-10.8-2.2-16.3-3.3c0-9.2,0-18.5,0-27.7c0.3-0.1,0.5-0.2,0.8-0.3
			c6.9-1.4,13.8-2.7,20.7-4c1-0.2,1.6-0.6,1.9-1.6c1.2-3.1,2.4-6.1,3.7-9.1c0.5-1.1,0.6-1.9-0.2-3c-4-5.8-7.9-11.7-11.7-17.5
			c6.6-6.6,13.2-13.2,19.8-19.8c0.4,0.2,0.9,0.6,1.4,0.9c5.4,3.6,10.9,7.2,16.3,10.9c1,0.7,1.6,0.6,2.7,0.1c2.7-1.3,5.5-2.5,8.3-3.5
			c1.6-0.6,2.6-1.2,2.7-3.1c0.1-1.5,0.5-3,0.9-4.5C176.3,19.9,177.4,14.5,178.5,9.2z M226.9,93.5c0-19-15.6-34.6-34.6-34.6
			c-19,0-34.6,15.6-34.6,34.6c0,19,15.6,34.6,34.6,34.6C211.4,128.1,227,112.5,226.9,93.5z"/>
	</g>
	<g id="XMLID_241_" class="st0">
		<path id="XMLID_242_" class="st1" d="M816.7,14.3c2.8,7.3,5.6,14.5,8.4,21.8c-0.2,0.1-0.3,0.3-0.5,0.4c-5,3.1-10,6.3-15,9.4
			c-0.7,0.5-1,1-1,1.9c0,2.8,0,5.5-0.2,8.3c-0.1,1.1,0.1,1.7,1,2.3c4.9,3.4,9.7,6.8,14.5,10.2c-3.2,7.2-6.4,14.3-9.5,21.5
			c-0.4-0.1-0.9-0.2-1.4-0.3c-5.4-1.2-10.7-2.4-16.1-3.6c-0.9-0.2-1.5,0-2.1,0.7c-1.8,1.8-3.6,3.6-5.5,5.3c-1.1,0.9-1.7,1.7-1.2,3.2
			c0.4,1.2,0.5,2.5,0.7,3.8c0.8,4.5,1.5,9.1,2.3,13.6c-7.3,2.8-14.5,5.6-21.8,8.4c-0.2-0.2-0.3-0.3-0.4-0.5c-3.1-5-6.3-10-9.4-15
			c-0.5-0.7-1-1-1.9-1c-2.7,0-5.4,0-8.2-0.2c-1.2-0.1-1.8,0.2-2.5,1.1c-3.4,4.9-6.8,9.7-10.1,14.3c-7.2-3.2-14.4-6.3-21.6-9.5
			c1.3-5.7,2.6-11.6,3.9-17.5c0.2-0.9,0-1.4-0.6-2c-2-2-4-4.1-5.9-6.2c-0.6-0.6-1.1-0.9-1.9-0.7c-3,0.6-6,1.1-9,1.6
			c-3,0.5-6.1,1.1-9.2,1.6c-2.8-7.3-5.6-14.6-8.4-21.8c0.2-0.2,0.4-0.4,0.7-0.5c4.9-3.1,9.8-6.2,14.8-9.3c0.8-0.5,1.1-1,1.1-2
			c0-2.9,0.1-5.7,0.2-8.6c0-0.8-0.1-1.2-0.8-1.7c-3.9-2.7-7.8-5.5-11.7-8.2c-1.1-0.8-2.2-1.5-3.1-2.2c3.2-7.2,6.4-14.3,9.5-21.5
			c0.4,0.1,0.9,0.2,1.4,0.3c5.4,1.2,10.8,2.4,16.2,3.6c0.8,0.2,1.3,0,1.9-0.6c1.8-1.8,3.6-3.7,5.6-5.4c1.2-1,1.7-1.9,1.2-3.4
			c-0.3-1.1-0.4-2.4-0.6-3.5c-0.8-4.6-1.6-9.2-2.3-13.8c7.3-2.8,14.5-5.6,21.8-8.4c0.1,0.2,0.3,0.3,0.4,0.5c3.2,5,6.3,10,9.4,15
			c0.5,0.7,1,1,1.9,1c2.8,0,5.5,0,8.3,0.2c1.1,0.1,1.7-0.1,2.3-1c3.4-4.9,6.8-9.7,10.2-14.5c7.2,3.2,14.3,6.4,21.5,9.5
			c-0.1,0.4-0.2,0.9-0.3,1.4c-1.2,5.4-2.4,10.7-3.6,16.1c-0.2,0.9,0,1.5,0.7,2.1c1.8,1.8,3.6,3.6,5.3,5.5c0.9,1.1,1.7,1.7,3.2,1.2
			c1.2-0.4,2.5-0.5,3.8-0.7C807.6,15.9,812.2,15.1,816.7,14.3z M765.1,78c14.9-5.8,22.4-22.8,16.7-37.7
			C776,25.3,759,17.8,744.1,23.6c-14.9,5.8-22.4,22.8-16.7,37.7C733.2,76.3,750.2,83.8,765.1,78z"/>
	</g>
	<g id="XMLID_237_" class="st0">
		<path id="XMLID_238_" class="st2" d="M679.4,34.6c1.6,4.2,3.2,8.3,4.8,12.5c-0.1,0.1-0.2,0.2-0.3,0.3c-2.9,1.8-5.7,3.6-8.6,5.4
			c-0.4,0.3-0.6,0.6-0.6,1.1c0,1.6,0,3.2-0.1,4.8c0,0.6,0.1,1,0.6,1.3c2.8,1.9,5.6,3.9,8.3,5.9c-1.8,4.1-3.6,8.2-5.5,12.4
			c-0.2,0-0.5-0.1-0.8-0.2c-3.1-0.7-6.2-1.4-9.2-2.1c-0.5-0.1-0.9,0-1.2,0.4c-1,1-2,2.1-3.1,3c-0.6,0.5-1,1-0.7,1.9
			c0.2,0.7,0.3,1.5,0.4,2.2c0.4,2.6,0.9,5.2,1.3,7.8c-4.2,1.6-8.3,3.2-12.5,4.8c-0.1-0.1-0.2-0.2-0.3-0.3c-1.8-2.9-3.6-5.7-5.4-8.6
			c-0.3-0.4-0.6-0.6-1.1-0.6c-1.6,0-3.1,0-4.7-0.1c-0.7,0-1,0.1-1.4,0.7c-1.9,2.8-3.9,5.6-5.8,8.2c-4.2-1.8-8.2-3.6-12.4-5.5
			c0.7-3.3,1.5-6.7,2.2-10c0.1-0.5,0-0.8-0.4-1.2c-1.2-1.2-2.3-2.3-3.4-3.6c-0.3-0.4-0.6-0.5-1.1-0.4c-1.7,0.3-3.4,0.6-5.2,0.9
			c-1.7,0.3-3.5,0.6-5.3,0.9c-1.6-4.2-3.2-8.4-4.8-12.5c0.1-0.1,0.3-0.2,0.4-0.3c2.8-1.8,5.6-3.6,8.5-5.3c0.5-0.3,0.6-0.6,0.6-1.1
			c0-1.6,0-3.3,0.1-4.9c0-0.5-0.1-0.7-0.5-1c-2.2-1.6-4.5-3.1-6.7-4.7c-0.6-0.4-1.2-0.9-1.8-1.3c1.8-4.2,3.6-8.2,5.5-12.3
			c0.2,0,0.5,0.1,0.8,0.2c3.1,0.7,6.2,1.4,9.3,2.1c0.5,0.1,0.8,0,1.1-0.3c1-1.1,2.1-2.1,3.2-3.1c0.7-0.6,0.9-1.1,0.7-1.9
			c-0.2-0.7-0.3-1.4-0.4-2c-0.5-2.6-0.9-5.3-1.3-7.9c4.2-1.6,8.3-3.2,12.5-4.8c0.1,0.1,0.2,0.2,0.3,0.3c1.8,2.9,3.6,5.7,5.4,8.6
			c0.3,0.4,0.6,0.6,1.1,0.6c1.6,0,3.2,0,4.8,0.1c0.6,0,1-0.1,1.3-0.6c1.9-2.8,3.9-5.6,5.9-8.3c4.1,1.8,8.2,3.6,12.4,5.5
			c0,0.2-0.1,0.5-0.2,0.8c-0.7,3.1-1.4,6.2-2.1,9.2c-0.1,0.5,0,0.9,0.4,1.2c1,1,2.1,2,3,3.1c0.5,0.6,1,1,1.9,0.7
			c0.7-0.2,1.5-0.3,2.2-0.4C674.2,35.4,676.8,35,679.4,34.6z M649.8,71.1c8.6-3.3,12.9-13.1,9.6-21.6c-3.3-8.6-13.1-12.9-21.6-9.6
			c-8.6,3.3-12.9,13.1-9.6,21.6C631.5,70.1,641.3,74.4,649.8,71.1z"/>
	</g>
	<g id="XMLID_233_" class="st0">
		<path id="XMLID_234_" class="st2" d="M841.7,136.7c1.6,4.2,3.2,8.3,4.8,12.5c-0.1,0.1-0.2,0.2-0.3,0.3c-2.9,1.8-5.7,3.6-8.6,5.4
			c-0.4,0.3-0.6,0.6-0.6,1.1c0,1.6,0,3.2-0.1,4.8c0,0.6,0.1,1,0.6,1.3c2.8,1.9,5.6,3.9,8.3,5.9c-1.8,4.1-3.6,8.2-5.5,12.4
			c-0.2,0-0.5-0.1-0.8-0.2c-3.1-0.7-6.2-1.4-9.2-2.1c-0.5-0.1-0.8,0-1.2,0.4c-1,1-2,2.1-3.1,3c-0.6,0.5-1,1-0.7,1.9
			c0.2,0.7,0.3,1.5,0.4,2.2c0.4,2.6,0.9,5.2,1.3,7.8c-4.2,1.6-8.3,3.2-12.5,4.8c-0.1-0.1-0.2-0.2-0.3-0.3c-1.8-2.9-3.6-5.7-5.4-8.6
			c-0.3-0.4-0.6-0.6-1.1-0.6c-1.6,0-3.1,0-4.7-0.1c-0.7,0-1,0.1-1.4,0.7c-1.9,2.8-3.9,5.6-5.8,8.2c-4.2-1.8-8.2-3.6-12.4-5.5
			c0.7-3.3,1.5-6.7,2.2-10c0.1-0.5,0-0.8-0.4-1.2c-1.2-1.2-2.3-2.3-3.4-3.6c-0.3-0.4-0.6-0.5-1.1-0.4c-1.7,0.3-3.4,0.6-5.2,0.9
			c-1.7,0.3-3.5,0.6-5.3,0.9c-1.6-4.2-3.2-8.4-4.8-12.5c0.1-0.1,0.3-0.2,0.4-0.3c2.8-1.8,5.6-3.6,8.5-5.3c0.5-0.3,0.6-0.6,0.6-1.1
			c0-1.6,0-3.3,0.1-4.9c0-0.5-0.1-0.7-0.5-1c-2.2-1.6-4.5-3.1-6.7-4.7c-0.6-0.4-1.2-0.9-1.8-1.3c1.8-4.2,3.6-8.2,5.5-12.3
			c0.2,0,0.5,0.1,0.8,0.2c3.1,0.7,6.2,1.4,9.3,2.1c0.5,0.1,0.8,0,1.1-0.3c1-1.1,2.1-2.1,3.2-3.1c0.7-0.6,0.9-1.1,0.7-1.9
			c-0.2-0.7-0.3-1.4-0.4-2c-0.4-2.6-0.9-5.3-1.3-7.9c4.2-1.6,8.3-3.2,12.5-4.8c0.1,0.1,0.2,0.2,0.3,0.3c1.8,2.9,3.6,5.7,5.4,8.6
			c0.3,0.4,0.6,0.6,1.1,0.6c1.6,0,3.2,0,4.8,0.1c0.6,0,1-0.1,1.3-0.6c1.9-2.8,3.9-5.6,5.9-8.3c4.1,1.8,8.2,3.6,12.4,5.5
			c0,0.2-0.1,0.5-0.2,0.8c-0.7,3.1-1.4,6.2-2.1,9.2c-0.1,0.5,0,0.9,0.4,1.2c1,1,2.1,2,3,3.1c0.5,0.6,1,1,1.9,0.7
			c0.7-0.2,1.5-0.3,2.2-0.4C836.5,137.6,839.1,137.1,841.7,136.7z M812.1,173.2c8.6-3.3,12.9-13.1,9.6-21.6
			c-3.3-8.6-13.1-12.9-21.6-9.6c-8.6,3.3-12.9,13.1-9.6,21.6C793.8,172.2,803.5,176.5,812.1,173.2z"/>
	</g>
	<g id="XMLID_229_" class="st0">
		<rect id="XMLID_232_" x="-58.7" y="102" class="st3" width="785.4" height="438.5"/>
		<g id="XMLID_230_" class="st4">
			<rect id="XMLID_231_" x="-38.4" y="119.9" class="st5" width="744.6" height="402.8"/>
		</g>
	</g>
	<g id="XMLID_222_" class="st0">
		<g id="XMLID_227_" class="st6">
			<ellipse id="XMLID_228_" class="st7" cx="341.3" cy="636.5" rx="516.5" ry="22.6"/>
		</g>
		<g id="XMLID_225_" class="st4">
			<rect id="XMLID_226_" x="276.7" y="528.8" class="st7" width="114.5" height="86"/>
		</g>
		<g id="XMLID_223_" class="st4">
			<rect id="XMLID_224_" x="203.1" y="600.3" class="st7" width="260.8" height="26.8"/>
		</g>
	</g>
	<g id="XMLID_220_" class="st0">
		<polygon id="XMLID_221_" class="st8" points="101.1,469.5 -39.3,449.4 -37.8,438.6 96.4,457.8 213.4,305.9 361.3,360.1 
			440.3,250.5 547,305.7 625.4,183.2 634.6,189 550.8,320 443.6,264.5 365.3,373.2 217.1,318.9 		"/>
	</g>
	<g id="XMLID_216_" class="st0">
		<path id="XMLID_217_" class="st3" d="M216,339c-12.8,0-23.2-10.4-23.2-23.2c0-12.8,10.4-23.2,23.2-23.2
			c12.8,0,23.2,10.4,23.2,23.2C239.2,328.6,228.8,339,216,339z M216,293.9c-12.1,0-21.9,9.8-21.9,21.9c0,12.1,9.8,21.9,21.9,21.9
			c12.1,0,21.9-9.8,21.9-21.9C238,303.7,228.1,293.9,216,293.9z"/>
	</g>
	<g id="XMLID_212_" class="st0">
		<path id="XMLID_213_" class="st3" d="M440.5,286.7c-12.8,0-23.2-10.4-23.2-23.2c0-12.8,10.4-23.2,23.2-23.2
			c12.8,0,23.2,10.4,23.2,23.2C463.7,276.4,453.3,286.7,440.5,286.7z M440.5,241.6c-12.1,0-21.9,9.8-21.9,21.9
			c0,12.1,9.8,21.9,21.9,21.9c12.1,0,21.9-9.8,21.9-21.9C462.5,251.5,452.6,241.6,440.5,241.6z"/>
	</g>
	<g id="XMLID_208_" class="st0">
		<path id="XMLID_209_" class="st3" d="M363.4,387.3c-12.8,0-23.2-10.4-23.2-23.2c0-12.8,10.4-23.2,23.2-23.2
			c12.8,0,23.2,10.4,23.2,23.2C386.5,376.9,376.1,387.3,363.4,387.3z M363.4,342.2c-12.1,0-21.9,9.8-21.9,21.9
			c0,12.1,9.8,21.9,21.9,21.9c12.1,0,21.9-9.8,21.9-21.9C385.3,352,375.5,342.2,363.4,342.2z"/>
	</g>
	<g id="XMLID_204_" class="st0">
		<path id="XMLID_205_" class="st3" d="M95.2,483.2c-12.8,0-23.2-10.4-23.2-23.2c0-12.8,10.4-23.2,23.2-23.2
			c12.8,0,23.2,10.4,23.2,23.2C118.4,472.8,108,483.2,95.2,483.2z M95.2,438.1c-12.1,0-21.9,9.8-21.9,21.9
			c0,12.1,9.8,21.9,21.9,21.9s21.9-9.8,21.9-21.9C117.2,447.9,107.3,438.1,95.2,438.1z"/>
	</g>
	<g id="XMLID_200_" class="st0">
		<path id="XMLID_201_" class="st3" d="M546.5,331.2c-12.8,0-23.2-10.4-23.2-23.2c0-12.8,10.4-23.2,23.2-23.2
			c12.8,0,23.2,10.4,23.2,23.2C569.7,320.8,559.3,331.2,546.5,331.2z M546.5,286.1c-12.1,0-21.9,9.8-21.9,21.9
			c0,12.1,9.8,21.9,21.9,21.9s21.9-9.8,21.9-21.9C568.5,295.9,558.6,286.1,546.5,286.1z"/>
	</g>
	<g id="XMLID_126_" class="st0">
		<path id="XMLID_188_" class="st3" d="M364.2,347.4h-1.8v-7.3h1.8V347.4z M364.2,332.8h-1.8v-7.3h1.8V332.8z M364.2,318.2h-1.8
			v-7.3h1.8V318.2z M364.2,303.6h-1.8v-7.3h1.8V303.6z M364.2,289h-1.8v-7.3h1.8V289z M364.2,274.4h-1.8v-7.3h1.8V274.4z
			 M364.2,259.8h-1.8v-7.3h1.8V259.8z M364.2,245.2h-1.8v-7.3h1.8V245.2z M364.2,230.6h-1.8v-7.3h1.8V230.6z M364.2,216h-1.8v-7.3
			h1.8V216z M364.2,201.4h-1.8v-7.3h1.8V201.4z"/>
		<g id="XMLID_186_" class="st4">
			<polygon id="XMLID_187_" class="st7" points="364.2,186.8 362.4,186.8 362.4,183.8 360,183.8 360,182 364.2,182 			"/>
		</g>
		<g id="XMLID_166_" class="st4">
			<path id="XMLID_167_" class="st7" d="M351.5,183.8h-7.3V182h7.3V183.8z M336.9,183.8h-7.3V182h7.3V183.8z M322.3,183.8H315V182
				h7.3V183.8z M307.7,183.8h-7.3V182h7.3V183.8z M293.1,183.8h-7.3V182h7.3V183.8z M278.5,183.8h-7.3V182h7.3V183.8z M263.9,183.8
				h-7.3V182h7.3V183.8z M249.3,183.8H242V182h7.3V183.8z M234.7,183.8h-7.3V182h7.3V183.8z M220.2,183.8h-7.3V182h7.3V183.8z
				 M205.6,183.8h-7.3V182h7.3V183.8z M191,183.8h-7.3V182h7.3V183.8z M176.4,183.8h-7.3V182h7.3V183.8z M161.8,183.8h-7.3V182h7.3
				V183.8z M147.2,183.8h-7.3V182h7.3V183.8z M132.6,183.8h-7.3V182h7.3V183.8z M118,183.8h-7.3V182h7.3V183.8z M103.4,183.8h-7.3
				V182h7.3V183.8z"/>
		</g>
		<g id="XMLID_164_" class="st4">
			<polygon id="XMLID_165_" class="st7" points="85.8,186.8 84,186.8 84,182 88.8,182 88.8,183.8 85.8,183.8 			"/>
		</g>
		<g id="XMLID_151_" class="st4">
			<path id="XMLID_152_" class="st7" d="M85.8,346.1H84v-7.3h1.8V346.1z M85.8,331.5H84v-7.3h1.8V331.5z M85.8,317H84v-7.3h1.8V317z
				 M85.8,302.4H84v-7.3h1.8V302.4z M85.8,287.8H84v-7.3h1.8V287.8z M85.8,273.2H84v-7.3h1.8V273.2z M85.8,258.6H84v-7.3h1.8V258.6z
				 M85.8,244H84v-7.3h1.8V244z M85.8,229.4H84v-7.3h1.8V229.4z M85.8,214.8H84v-7.3h1.8V214.8z M85.8,200.2H84v-7.3h1.8V200.2z"/>
		</g>
		<g id="XMLID_149_" class="st4">
			<polygon id="XMLID_150_" class="st7" points="88.8,357.7 84,357.7 84,353.4 85.8,353.4 85.8,355.9 88.8,355.9 			"/>
		</g>
		<g id="XMLID_129_" class="st4">
			<path id="XMLID_130_" class="st7" d="M352.1,357.7h-7.3v-1.8h7.3V357.7z M337.5,357.7h-7.3v-1.8h7.3V357.7z M322.9,357.7h-7.3
				v-1.8h7.3V357.7z M308.3,357.7H301v-1.8h7.3V357.7z M293.7,357.7h-7.3v-1.8h7.3V357.7z M279.1,357.7h-7.3v-1.8h7.3V357.7z
				 M264.5,357.7h-7.3v-1.8h7.3V357.7z M249.9,357.7h-7.3v-1.8h7.3V357.7z M235.4,357.7h-7.3v-1.8h7.3V357.7z M220.8,357.7h-7.3
				v-1.8h7.3V357.7z M206.2,357.7h-7.3v-1.8h7.3V357.7z M191.6,357.7h-7.3v-1.8h7.3V357.7z M177,357.7h-7.3v-1.8h7.3V357.7z
				 M162.4,357.7h-7.3v-1.8h7.3V357.7z M147.8,357.7h-7.3v-1.8h7.3V357.7z M133.2,357.7h-7.3v-1.8h7.3V357.7z M118.6,357.7h-7.3
				v-1.8h7.3V357.7z M104,357.7h-7.3v-1.8h7.3V357.7z"/>
		</g>
		<g id="XMLID_127_" class="st4">
			<polygon id="XMLID_128_" class="st7" points="364.2,357.7 360,357.7 360,355.9 362.4,355.9 362.4,353.4 364.2,353.4 			"/>
		</g>
	</g>
	<g id="XMLID_89_">
		<g id="XMLID_124_">
			<path id="XMLID_125_" class="st9" d="M924.2,351.4c0,15.5-12.4,28.2-27.4,28.2H570.2c-15.1,0-27.2-12.7-27.2-28.2V170.6
				c0-15.5,12.1-28.7,27.2-28.7h326.6c15.1,0,27.4,13.2,27.4,28.7V351.4z"/>
		</g>
		<g id="XMLID_122_">
			<rect id="XMLID_123_" x="588" y="189.3" class="st10" width="139.8" height="99.1"/>
		</g>
		<g id="XMLID_120_">
			<rect id="XMLID_121_" x="588" y="301.1" class="st11" width="63.2" height="43.8"/>
		</g>
		<g id="XMLID_118_">
			<rect id="XMLID_119_" x="667" y="301.1" class="st12" width="63.2" height="43.8"/>
		</g>
		<g id="XMLID_116_">
			<rect id="XMLID_117_" x="747.3" y="301.1" class="st13" width="63.8" height="43.8"/>
		</g>
		<g id="XMLID_114_">
			<rect id="XMLID_115_" x="826.9" y="301.1" class="st11" width="63.8" height="43.8"/>
		</g>
		<g id="XMLID_112_">
			<rect id="XMLID_113_" x="741.2" y="196.6" class="st14" width="150.2" height="10.3"/>
		</g>
		<g id="XMLID_110_">
			<rect id="XMLID_111_" x="741.2" y="213.6" class="st14" width="150.2" height="5.5"/>
		</g>
		<g id="XMLID_108_">
			<rect id="XMLID_109_" x="741.2" y="223.3" class="st14" width="150.2" height="6.1"/>
		</g>
		<g id="XMLID_106_">
			<rect id="XMLID_107_" x="741.2" y="232.4" class="st14" width="150.2" height="5.5"/>
		</g>
		<g id="XMLID_104_">
			<rect id="XMLID_105_" x="741.2" y="242.2" class="st14" width="150.2" height="4.9"/>
		</g>
		<g id="XMLID_102_">
			<rect id="XMLID_103_" x="741.2" y="251.3" class="st14" width="150.2" height="5.5"/>
		</g>
		<g id="XMLID_100_">
			<rect id="XMLID_101_" x="741.2" y="260.4" class="st14" width="150.2" height="5.5"/>
		</g>
		<g id="XMLID_98_">
			<rect id="XMLID_99_" x="741.2" y="270.1" class="st14" width="150.2" height="5.5"/>
		</g>
		<g id="XMLID_96_">
			<rect id="XMLID_97_" x="741.2" y="279.3" class="st14" width="150.2" height="5.5"/>
		</g>
		<g id="XMLID_94_">
			<ellipse id="XMLID_95_" class="st15" cx="893.2" cy="166.5" rx="5.9" ry="5.8"/>
		</g>
		<g id="XMLID_92_">
			<ellipse id="XMLID_93_" class="st16" cx="878" cy="166.5" rx="5.9" ry="5.8"/>
		</g>
		<g id="XMLID_90_" class="st17">
			<ellipse id="XMLID_91_" class="st7" cx="863.8" cy="166.5" rx="5.9" ry="5.8"/>
		</g>
	</g>
	<g id="XMLID_57_">
		<rect id="XMLID_88_" x="892" y="462.3" class="st12" width="32.2" height="22.5"/>
		<g id="XMLID_70_">
			<rect id="XMLID_87_" x="851.3" y="412.4" class="st18" width="73" height="4.9"/>
			<g id="XMLID_71_">
				<rect id="XMLID_86_" x="851.3" y="420.9" class="st18" width="73" height="1.8"/>
				<g id="XMLID_72_">
					<rect id="XMLID_85_" x="851.3" y="425.8" class="st18" width="73" height="1.8"/>
					<g id="XMLID_73_">
						<rect id="XMLID_84_" x="851.3" y="430" class="st18" width="73" height="2.4"/>
						<g id="XMLID_74_">
							<rect id="XMLID_83_" x="851.3" y="433.7" class="st18" width="73" height="3"/>
							<g id="XMLID_75_">
								<rect id="XMLID_82_" x="851.3" y="438.6" class="st18" width="73" height="3"/>
								<g id="XMLID_76_">
									<rect id="XMLID_81_" x="851.3" y="442.8" class="st18" width="73" height="3"/>
									<g id="XMLID_77_">
										<rect id="XMLID_80_" x="851.3" y="447.7" class="st18" width="73" height="2.4"/>
										<g id="XMLID_78_">
											<rect id="XMLID_79_" x="851.3" y="452.5" class="st18" width="73" height="2.4"/>
										</g>
									</g>
								</g>
							</g>
						</g>
					</g>
				</g>
			</g>
		</g>
		<g id="XMLID_68_">
			<rect id="XMLID_69_" x="853.7" y="462.3" class="st11" width="31.6" height="22.5"/>
		</g>
		<g id="XMLID_66_">
			<rect id="XMLID_67_" x="814.2" y="462.3" class="st13" width="32.2" height="22.5"/>
		</g>
		<g id="XMLID_64_">
			<rect id="XMLID_65_" x="775.3" y="462.3" class="st19" width="31" height="22.5"/>
		</g>
		<g id="XMLID_62_">
			<rect id="XMLID_63_" x="775.3" y="408.2" class="st13" width="68.7" height="48"/>
		</g>
		<g id="XMLID_60_" class="st17">
			<ellipse id="XMLID_61_" class="st7" cx="910.7" cy="397.3" rx="2.9" ry="2.8"/>
		</g>
		<g id="XMLID_58_">
			<ellipse id="XMLID_59_" class="st16" cx="917.7" cy="397.3" rx="2.9" ry="2.8"/>
		</g>
	</g>
	<g id="XMLID_44_" class="st0">
		<g id="XMLID_55_" class="st4">
			<rect id="XMLID_56_" x="296.8" y="44" class="st18" width="12.8" height="47.4"/>
		</g>
		<g id="XMLID_53_" class="st4">
			<rect id="XMLID_54_" x="314.4" y="26.3" class="st14" width="13.4" height="65.1"/>
		</g>
		<g id="XMLID_51_" class="st4">
			<rect id="XMLID_52_" x="333.2" y="33.6" class="st18" width="13.4" height="57.8"/>
		</g>
		<g id="XMLID_49_" class="st4">
			<rect id="XMLID_50_" x="350.3" y="10.5" class="st20" width="13.4" height="80.9"/>
		</g>
		<g id="XMLID_47_" class="st4">
			<rect id="XMLID_48_" x="369.1" y="21.5" class="st21" width="13.4" height="69.9"/>
		</g>
		<g id="XMLID_45_" class="st4">
			<rect id="XMLID_46_" x="387.4" y="39.7" class="st18" width="12.8" height="51.7"/>
		</g>
	</g>
	<g id="XMLID_32_">
		<rect id="XMLID_43_" x="300.4" y="430" class="st22" width="15.8" height="60.8"/>
		<g id="XMLID_41_">
			<rect id="XMLID_42_" x="279.7" y="408.8" class="st22" width="15.2" height="82.1"/>
		</g>
		<g id="XMLID_39_">
			<rect id="XMLID_40_" x="256.6" y="396.6" class="st22" width="16.4" height="94.2"/>
		</g>
		<g id="XMLID_37_">
			<rect id="XMLID_38_" x="237.2" y="422.7" class="st22" width="16.4" height="68.1"/>
		</g>
		<g id="XMLID_35_">
			<rect id="XMLID_36_" x="215.3" y="414.2" class="st22" width="15.2" height="76.6"/>
		</g>
		<g id="XMLID_33_">
			<rect id="XMLID_34_" x="194" y="435.5" class="st22" width="15.2" height="55.3"/>
		</g>
	</g>
	<g id="XMLID_3_">
		<path id="XMLID_31_" class="st23" d="M366.1,452.1c0.3-1.3,0.5-2.7,0.8-3.9c3.4-12.2,11.3-19.7,23.5-22.8c0.4-0.1,0.9-0.2,1.2-0.3
			c1.4-20,10.8-34.1,30.2-39.5c19.1-5.3,34.3,1.9,45.4,17.7c3.5-1.2,6.9-2.7,10.5-3.4c16-3.3,32.1,7.5,35.4,23.5
			c0.2,1.2,0.6,1.8,1.9,2c14.7,2.9,25.1,16.2,24.5,31.2c-0.5,14.5-12.2,27-26.9,28.8c-1.5,0.2-3,0.3-4.6,0.3
			c-36.8,0-73.6-0.1-110.5,0.1c-16.7,0.1-29.6-12.4-31.3-26.5c0-0.3-0.2-0.6-0.3-1C366.1,456.1,366.1,454.1,366.1,452.1z"/>
		<path id="XMLID_4_" class="st7" d="M433,459.1l0-0.6c2.4,0,4.9,0,7.3,0l0,0.6C437.9,459.1,435.4,459.1,433,459.1z M447.6,459.1
			l0-0.6l7.3,0l0,0.6L447.6,459.1z M512.3,459.1l-6.3,0v-0.6l6.3,0l1,0v0.6L512.3,459.1z M520.5,459.1l0-0.6c1.2,0,2.4-0.1,3.6-0.2
			c1.2-0.1,2.4-0.4,3.6-0.7l0.2,0.6c-1.2,0.3-2.4,0.6-3.7,0.7C522.9,459,521.7,459.1,520.5,459.1z M498.7,459.1l-7.3,0v-0.6l7.3,0
			V459.1z M484.1,459.1l-7.3,0v-0.6l7.3,0V459.1z M462.2,459.1l0-0.6l7.3,0v0.6L462.2,459.1z M425.7,458.6c-2.4-0.5-4.8-1.3-6.9-2.4
			l0.3-0.5c2.1,1.1,4.4,1.9,6.8,2.4L425.7,458.6z M534.6,455.1l-0.3-0.5c2-1.3,3.9-2.9,5.5-4.7l0.5,0.4
			C538.5,452.2,536.6,453.8,534.6,455.1z M412.8,451.9c-1.8-1.7-3.3-3.7-4.5-5.8l0.5-0.3c1.2,2.1,2.7,4,4.4,5.7L412.8,451.9z
			 M544.1,444.1l-0.6-0.3c1-2.2,1.7-4.5,1.9-6.9l0.6,0.1C545.8,439.5,545.2,441.9,544.1,444.1z M405.7,439.2
			c-0.1-0.6-0.2-1.2-0.3-1.8c0-0.1-0.1-0.3-0.1-0.5c0-0.1-0.1-0.2-0.1-0.3l0-0.1v-4.7h0.6v4.7c0,0.1,0,0.1,0.1,0.2
			c0.1,0.2,0.1,0.4,0.2,0.6c0.1,0.6,0.2,1.2,0.3,1.7L405.7,439.2z M405.7,431.7l-0.6-0.1c0.1-0.3,0.1-0.7,0.2-1
			c0.1-0.7,0.3-1.5,0.5-2.2c0.4-1.3,0.8-2.6,1.3-3.8l0.6,0.2c-0.5,1.2-0.9,2.4-1.3,3.8c-0.2,0.7-0.3,1.4-0.5,2.2
			C405.9,431,405.8,431.3,405.7,431.7z M545.2,429.8c-0.4-2.4-1.2-4.6-2.3-6.8l0.5-0.3c1.1,2.2,1.9,4.5,2.4,7L545.2,429.8z
			 M411.4,418.6l-0.5-0.4c1.6-1.9,3.4-3.5,5.5-4.9l0.3,0.5C414.7,415.1,412.9,416.7,411.4,418.6z M538.7,417.2
			c-1.7-1.7-3.6-3.2-5.7-4.4l0.3-0.5c2.2,1.2,4.1,2.7,5.8,4.5L538.7,417.2z M423.3,410.8l-0.2-0.6c0.6-0.2,1.3-0.4,2-0.6
			c0.3-0.1,0.5-0.1,0.7-0.2c0.1-1.4,0.3-2.8,0.5-4.1l0.6,0.1c-0.2,1.4-0.4,2.8-0.5,4.2l0,0.2l-0.2,0.1c-0.3,0.1-0.6,0.1-0.9,0.2
			C424.6,410.4,423.9,410.6,423.3,410.8z M526.3,410.3l-0.3-0.1c-1.2-0.2-1.6-0.9-1.8-1.9c-0.3-1.5-0.7-2.9-1.3-4.3l0.6-0.2
			c0.6,1.4,1,2.9,1.4,4.4c0.2,0.8,0.4,1.2,1.3,1.4l0.3,0.1L526.3,410.3z M428.5,398.5l-0.6-0.2c0.8-2.4,1.8-4.7,3-6.7l0.5,0.3
			C430.3,393.9,429.3,396.1,428.5,398.5z M519.2,397.9c-1.5-1.8-3.3-3.5-5.4-4.8l0.3-0.5c2.1,1.4,3.9,3,5.5,4.9L519.2,397.9z
			 M487.2,392.4l-0.1-0.2c-0.2-0.3-0.5-0.7-0.7-1l0.5-0.4c0.2,0.3,0.4,0.6,0.6,0.8c0.8-0.3,1.7-0.6,2.5-0.9c1-0.4,2-0.7,3-1.1
			l0.2,0.6c-1,0.3-2,0.7-3,1.1c-0.9,0.3-1.8,0.7-2.7,1L487.2,392.4z M507.3,390.1c-2.2-0.7-4.5-1-6.8-1c-0.1,0-0.2,0-0.3,0l0-0.6
			c0.1,0,0.3,0,0.4,0c2.3,0,4.6,0.3,6.9,1L507.3,390.1z M435.9,386.2l-0.4-0.4c1.7-1.7,3.7-3.2,5.8-4.5l0.3,0.5
			C439.5,383.1,437.6,384.6,435.9,386.2z M481.6,385.7c-1.8-1.7-3.7-3.3-5.6-4.5l0.3-0.5c2,1.3,3.9,2.8,5.7,4.6L481.6,385.7z
			 M448.2,378.8l-0.2-0.6c0.8-0.3,1.6-0.5,2.5-0.8c1.6-0.4,3.1-0.8,4.6-1l0.1,0.6c-1.5,0.2-3,0.6-4.6,1
			C449.8,378.3,449,378.5,448.2,378.8z M469.5,378.1c-2.3-0.8-4.6-1.2-7.1-1.4l0-0.6c2.5,0.2,4.9,0.6,7.2,1.4L469.5,378.1z"/>
	</g>
</g>
</svg>
