<?xml version="1.0" encoding="utf-8"?>
<!-- Generator: Adobe Illustrator 19.0.0, SVG Export Plug-In . SVG Version: 6.00 Build 0)  -->
<svg version="1.1" id="Warstwa_1" xmlns="http://www.w3.org/2000/svg" xmlns:xlink="http://www.w3.org/1999/xlink" x="0px" y="0px"
	 viewBox="0 0 497 569" style="enable-background:new 0 0 497 569;" xml:space="preserve">
<style type="text/css">
	.st0{fill:#E6E7E8;}
	.st1{fill:#00002A;}
	.st2{fill:#0078A2;}
	.st3{fill:#00B2F0;}
	.st4{fill:#008DBE;}
	.st5{fill:#00244A;}
	.st6{fill:#00315B;}
	.st7{fill:#001D43;}
	.st8{fill:#FAB89B;}
	.st9{fill:#004B7F;}
	.st10{fill:#FBC4A7;}
	.st11{fill:#A0D5EC;}
	.st12{fill:#00538B;}
	.st13{fill:#003A67;}
	.st14{fill:#8B0417;}
	.st15{fill:#DE3A25;}
	.st16{fill:#E4F5FD;}
	.st17{fill:#A0A1A3;}
	.st18{fill:#001237;}
	.st19{fill:#D09A83;}
	.st20{fill:#ADAFB2;}
	.st21{fill:#888A8C;}
	.st22{fill:#7D7E81;}
	.st23{fill:#4A4B4C;}
	.st24{fill:#BCBEC0;}
	.st25{fill:#A5A7AA;}
	.st26{fill:#0D2B58;}
	.st27{fill:#193C6F;}
	.st28{fill:#011E48;}
	.st29{fill:#1A2D57;}
	.st30{fill:#67686B;}
</style>
<g id="g3_5_" transform="matrix(0.9486962,0,0,0.9486962,2.4834364,1.8361818)">
	<path id="path5_4_" class="st0" d="M378.6,342.4c30.6-5.6,58.2,5.5,61.7,24.8c3.5,19.2-18.4,39.4-49,45c-9.6,1.7-18.9,1.9-27.3,0.6
		c-14.5,8.1-33.9,22-33.9,22s12.6-9.6,16.7-19.2c1-2.5,1.5-5,1.5-7.2c-10.2-4.5-17.2-11.8-18.8-20.9
		C326.1,368.1,348,348,378.6,342.4"/>
</g>
<g id="XMLID_9_">
	<g id="XMLID_83_">
		<polygon id="XMLID_63_" class="st1" points="438.4,203 453.1,249.4 444.1,201.6 		"/>
		<polygon id="XMLID_62_" class="st1" points="418.9,195 433.7,241.4 424.7,193.5 		"/>
		<polygon id="XMLID_61_" class="st1" points="402.4,201.6 393.4,249.4 408,203 		"/>
		<polygon id="XMLID_60_" class="st1" points="396.4,187 387.4,234.9 402,188.5 		"/>
		<polygon id="XMLID_59_" class="st2" points="461.4,118.9 451,118.9 417.1,113.7 432.4,114.4 		"/>
		<polygon id="XMLID_58_" class="st3" points="451,118.9 461.4,118.9 453.1,196.8 442.6,196.8 		"/>
		<polygon id="XMLID_57_" class="st4" points="451,118.9 418.6,113.7 417.9,196.8 442.6,196.8 		"/>
		<path id="XMLID_56_" class="st3" d="M402.1,204h43.7c4,0,7.3-3.2,7.3-7.3l0,0c0-4-3.2-7.3-7.3-7.3h-43.7c-4,0-7.3,3.2-7.3,7.3l0,0
			C394.8,200.8,398.1,204,402.1,204z"/>
		<g id="XMLID_84_">
			<path id="XMLID_55_" class="st5" d="M419.8,166.8c-25.3,5-52.7,11.4-58.4,15c-5.3,3.2,3.1,12.1,3.1,12.1s49.1-1.9,57.3-2
				C426.3,191.8,424.7,165.8,419.8,166.8z"/>
			<path id="XMLID_54_" class="st5" d="M373.8,236.4c0.1-11.1-3-56.3-3-56.3s-11.3-1.4-12.7,6.4c-0.8,4,6.2,38.6,9.1,50.3
				L373.8,236.4z"/>
			<path id="XMLID_53_" class="st1" d="M350.8,241.9l16.3-5l6.8-0.3l0.4,7.3l-11.5,0.7C349.2,245.1,350.8,241.9,350.8,241.9z"/>
			<path id="XMLID_52_" class="st6" d="M434.3,168.4c-24.4,8.3-48.2,19.9-53.4,24.2c-4.8,3.9,4.7,11.5,4.7,11.5s42.1-8.8,49.5-12.1
				C448.4,186.1,439,166.8,434.3,168.4z"/>
			<path id="XMLID_51_" class="st6" d="M395.9,245.2c-0.3-11-4.7-55.7-4.7-55.7s-11.2-0.2-12.4,7.5c-0.6,4.1,7.4,37.9,10.6,49.1
				L395.9,245.2z"/>
			<path id="XMLID_50_" class="st1" d="M373.1,252.8l16.2-6.6l6.8-1l0.7,7.2l-11.6,1.7C371.6,256.1,373.1,252.8,373.1,252.8z"/>
			<g id="XMLID_125_">
				<path id="XMLID_49_" class="st7" d="M380.6,143.3c0,0-0.8,4.8,3.6,9.6C384.2,152.7,387.4,146.3,380.6,143.3z"/>
				<g id="XMLID_126_">
					<path id="XMLID_48_" class="st8" d="M380.6,147.4c0,0-4.6,1-7.8,3.4c-1.8,1.3-2.7,4-1.3,6c1,1.5,3.1,2.1,4.7,1.4
						c0.6-0.3,1.2-0.7,1.2-1.4c0-0.3-0.1-0.5-0.1-0.7c-0.1-1,0.7-1.9,1.5-2.3c0.9-0.5,2.2-0.6,3.1-1.3c0.4-0.3,1.5-1.7,1.3-2.3
						C383.1,149.9,380.6,147.4,380.6,147.4z"/>
					<g id="XMLID_129_">
						<g id="XMLID_314_">
							<path id="XMLID_315_" class="st8" d="M417.9,139c0.6-1.9,1.5-1.2-0.8-2.9c-2-1.5-6-3.8-6-3.8c-10.8,5.9-18.7,8-26.3,12.1
								c-11.9,6.5-2.8,6.9-2.8,6.9C395.4,144.7,404.8,145.8,417.9,139z"/>
						</g>
					</g>
					<g id="XMLID_127_">
						<path id="XMLID_46_" class="st9" d="M380.6,143.3c3.7,1.5,4.6,7.8,3.6,9.6c12.1-5.1,26.3-9,38.2-14.1c0.8-1.8-0.4-1.4-2.6-3.3
							c-1.9-1.6-6.5-4.2-6.5-4.2C403.1,135.7,389.6,140.5,380.6,143.3z"/>
					</g>
				</g>
			</g>
			<polygon id="XMLID_45_" class="st10" points="405.7,85.3 417.9,82.5 422,95.9 409.5,98.1 			"/>
			<path id="XMLID_44_" class="st10" d="M402.1,152.7l32.1-2.9c-0.9-14.6-0.6-50.5-4.2-53c-9.3-6.5-18.8-5.6-25.8,0.1
				C401.4,99.1,401.3,137.5,402.1,152.7z"/>
			<path id="XMLID_43_" class="st8" d="M404.9,138.4"/>
			<path id="XMLID_42_" class="st11" d="M403,167.2c-1.9-19.4-7.7-55.8-3.5-64.6c1.5-3.1,4.5-7.8,9.1-9c-0.2,0.1-0.3,0.2-0.4,0.2
				c-0.8,2,0.5,4.8,4.5,4.4c1.8-0.2,4.2-1,6.7-3.2c1.1-1,1.3-2.5,1.5-2.8c3.8,0.5,12,2.1,14.5,4.7c2.9,2.8,4.4,53.1,5.3,70.6
				l-22.7,2.6C406.3,170.2,405.2,168.7,403,167.2z"/>
			<path id="XMLID_41_" class="st12" d="M404.9,138.4c0.8,9.8,2.1,22.1,3.2,31.2c-4.3,0.6-3.5,0.9-6.4,1.7c-0.5,0.2-0.9-0.7-1-1.2
				c-2.5-21.9-6.1-56.6-2.1-67.3c1.5-3.9,4.3-6.2,7.6-8.1C406.3,94.7,403.6,122.4,404.9,138.4z"/>
			<path id="XMLID_40_" class="st13" d="M405.4,145c-1.9-3.1-6.2-13.3-6.2-13.3l3.5-13.5l-1.5-19.6l4-3.2c0,0,0.7-0.4,1-0.6
				c0,0-2.7,27.7-1.5,43.7C405,140.5,405.3,142.7,405.4,145z"/>
			<path id="XMLID_39_" class="st12" d="M421.9,96.7c0.3-1.3,0.4-2.7-0.3-3.8l-0.1-0.5c4,0.7,12.7,0.7,14,5.2
				c1.3,4.1,7.7,63.9,8.8,83.4l-25.1,2.1l-3.7-41.9l-0.3-24.4L421.9,96.7z"/>
			<path id="XMLID_38_" class="st14" d="M434.3,166.8"/>
			<path id="XMLID_37_" class="st15" d="M410.6,99.6L410.6,99.6c-1.1-0.1-2.1,0.3-2.7,1.3l-0.8,1.2c0,0,0.5,3.4,1.5,3.8
				c0.4,0.1,0.9,0.2,1.2,0.1c0.7-0.1,1.3-0.4,1.7-0.9l2-2.7l-0.8-1.3C412.2,100.2,411.4,99.7,410.6,99.6z"/>
			<path id="XMLID_36_" class="st15" d="M407.6,154.1l0.7-49.2l2.7-0.3l3.6,48.9l-1.8,9.1c-0.3,1.8-2.1,1.8-2.6,0L407.6,154.1z"/>
			<g id="XMLID_112_">
				<path id="XMLID_35_" class="st16" d="M407.7,92l1.8,4.6L407,102c0,0-2.5-5.1-2-6.6C405,95.5,406,93.1,407.7,92z"/>
				<polygon id="XMLID_34_" class="st17" points="409.5,96.7 410.2,98 407,102.1 				"/>
			</g>
			<path id="XMLID_33_" class="st13" d="M422.5,91.2l6.7,2.3L417.9,115l1.5,18.1l-3.4,13.3c0,0-3.4-15.6-1.8-28.3
				C415.8,105.5,417,98,422.5,91.2z"/>
			<path id="XMLID_32_" class="st16" d="M420.6,89l3.3,3.8c0,0-5.8,7.4-10.3,10.7l-3.3-6.6C410.2,96.9,414.9,93.7,420.6,89z"/>
			<g id="XMLID_31_">
				<path id="XMLID_169_" class="st10" d="M403,58.2c3.8-0.6,7.7,0,9.9,1.7c5.4,4.2,3.9,10.9,4.7,17.2c0.1,1.1,0.3,4,0.9,7.7
					c0.1,0.7-0.9-0.7-1.5-0.5c-4.9,1.9-7.8,4.7-12.7,6.6c-1.3,0.5-3.4,1.8-4.4,0.9c-0.6-0.5-0.9-1.6-1.2-2.3c-1.2-4.1-3.2-9-4-12.7
					c-0.6-2.6-1.2-5-1.4-7.7c-0.2-2.1,0-4.4,1-6.2C395.9,60.3,399.4,58.8,403,58.2z"/>
			</g>
			<g id="XMLID_30_">
				<path id="XMLID_168_" class="st18" d="M418.6,80.2c-0.3,0.2-0.8,0.1-1.4-0.3c-0.8-0.5-1.8-1.5-2.1-2.4c-0.3-1.2,0.5-2.7,0.5-3.9
					c0-0.9-0.2-1.8-0.8-2.5c-0.6-0.6-1.8-0.8-2.3-0.1c-0.4,0.4-0.4,1.2-0.9,1.5c-0.4,0.3-1.1,0.2-1.5-0.1s-0.8-0.8-1.2-1.2
					c-0.9-1.1-2.3-1.9-3.7-2c-0.8-0.1-1.6,0.1-2.4,0.2c-2.3,0.3-4.7-0.3-6.8-1.3c-2.7-1.5-5.6-3.8-5.8-7.1c1.7,0.8,3.7-0.3,5.2-1.2
					c2.2-1.3,4.4-2.5,6.9-3s6.2-0.8,8.2,0.7c0.4,0.3,0.9,0.7,1.4,0.9c1.1,0.5,1.5,0.7,2.7,1c1.7,0.5,2.7,2.3,3.3,4
					c1.2,3.2,1.8,6.6,2,10C419.8,74.7,420.1,79.5,418.6,80.2z"/>
			</g>
			<path id="XMLID_29_" class="st10" d="M394.6,74.6c-0.3,3.6-0.4,4.9-0.9,7.2c-0.1,0.5,0.3,1,0.9,1.1c1,0,2.1-0.1,3-0.2"/>
			<path id="XMLID_28_" class="st19" d="M411.8,78.6c0,0,0.9,6.2,0.3,7.1c-0.6,0.9-6.1,4.3-6.1,4.3s4.7-1.8,6.8-4.1
				C414.1,84.4,411.8,78.6,411.8,78.6z"/>
			<g id="XMLID_85_">
				<g id="XMLID_86_">
					<path id="XMLID_27_" class="st7" d="M404.2,139.4c0,0-2.5,4.1-0.3,10.2C403.8,149.6,409.3,144.9,404.2,139.4z"/>
					<path id="XMLID_26_" class="st8" d="M402.7,143.3c0,0-4.6-0.8-8.5,0.2c-2.1,0.5-3.9,2.7-3.4,5c0.3,1.7,2.1,3.1,3.8,3.1
						c0.6,0,1.4-0.3,1.6-0.8c0.1-0.3,0.1-0.5,0.2-0.7c0.3-0.9,1.4-1.5,2.3-1.5c1-0.1,2.3,0.3,3.3,0c0.5-0.1,2.1-1,2.1-1.6
						C404,146.5,402.7,143.3,402.7,143.3z"/>
					<g id="XMLID_95_">
						<g id="XMLID_317_">
							<path id="XMLID_318_" class="st8" d="M440.3,149.7c1.3-1.5,1.9-0.5,0.4-3c-1.3-2.1-4.1-5.8-4.1-5.8
								c-12.1,1.4-20.4,0.3-29,1.2c-13.5,1.5-5.2,5.3-5.2,5.3C417.4,146.4,425.6,151,440.3,149.7z"/>
						</g>
					</g>
					<g id="XMLID_93_">
						<path id="XMLID_22_" class="st8" d="M438.6,147.2c-0.7,0.6-0.8,0.9-3.1,0.8c-1.8-0.2-2.1-1.7-2.7-3.1
							c-7.2-21.3-5.2-43.1-3.6-42.7c5.9,1.3,8.4,9.5,8.4,9.5s2.8,10.1,4.2,22c0.3,2.2,1.2,14.7-0.3,16
							C441.6,149.5,438.6,147.2,438.6,147.2z"/>
					</g>
					<g id="XMLID_91_">
						<path id="XMLID_20_" class="st9" d="M404.2,139.4c2.9,2.7,1.4,9-0.3,10.2c13.2-0.1,27.7,1.8,40.7,1.5c1.4-1.5,0.2-1.5-1.1-4
							c-1.1-2.2-4.8-8.5-4.8-8.5C427.5,138.9,413.6,140.3,404.2,139.4z"/>
					</g>
					<g id="XMLID_87_">
						<path id="XMLID_19_" class="st9" d="M438.6,147.2c-0.7,0.6-0.8,0.9-3.1,0.8c-1.8-0.2-2.3,0.5-2.8-0.9
							c-9.7-20.2-6.6-54.7,1.6-52.1c5.7,1.9,8.2,22.1,9.6,34c0.3,2.2,2.3,21.2,0.9,22.5C444.7,151.4,438.6,147.2,438.6,147.2z"/>
					</g>
				</g>
			</g>
		</g>
	</g>
	<g id="XMLID_21_">
		<g id="XMLID_75_">
			<rect id="XMLID_16_" x="467" y="166.3" class="st20" width="4.3" height="92"/>
			<polygon id="XMLID_15_" class="st21" points="467,258.2 464.9,254.3 464.9,166.3 467,166.3 			"/>
		</g>
		<g id="XMLID_66_">
			<rect id="XMLID_13_" x="340.9" y="166.3" class="st20" width="4.3" height="92"/>
			<polygon id="XMLID_11_" class="st21" points="340.9,258.2 338.8,254.3 338.8,166.3 340.9,166.3 			"/>
		</g>
		<rect id="XMLID_7_" x="313.2" y="161" class="st20" width="184" height="7"/>
		<polygon id="XMLID_6_" class="st22" points="304.1,157 487.6,157.1 497.2,161 313.2,161 		"/>
		<polygon id="XMLID_5_" class="st23" points="313.2,161 313.2,168 304.1,162.7 304.1,157 		"/>
	</g>
	<g id="XMLID_10_">
		<polygon id="XMLID_4_" class="st10" points="368.3,158.7 376.6,161.6 404.9,161.6 404.9,157.4 369.3,157.4 		"/>
		<polygon id="XMLID_3_" class="st24" points="362.3,132.4 376.6,161.6 376.5,161.6 354.2,159.1 339,127.9 		"/>
		<polygon id="XMLID_2_" class="st25" points="364.7,132.4 341.8,127.3 339,127.9 362.3,132.9 		"/>
		<polygon id="XMLID_1_" class="st10" points="376.6,161.6 362.3,132.9 364.7,132.4 379.1,161.6 		"/>
	</g>
</g>
<g id="XMLID_12_">
	<g id="XMLID_170_">
		<path id="XMLID_100_" class="st26" d="M141.5,319.2c-5.6-7.7-14.8-11.8-24.1-13.8c-9.2-2-18.8-2.1-28.1-3.4
			c-2.6-0.3-5.2-0.9-7.4-2.2c-2.8-1.8-4.6-4.9-5.7-8c-2.5-6.9-1.8-14.4-2.4-21.6c-0.4-5.5-1.6-11.1-4.9-15.6
			c-10.7-14.7-41-15-54.1-3.8c-4,3.5-6.7,8.3-8.6,13.3c-8.2,20.5-4.5,44.1,5.6,63.2c11.3,21.1,32.3,35,54.8,41.6
			c21.6,6.4,50.3,9.2,68.2-7.4c1.7-1.6,3.2-3.3,4.7-5.2C147.7,345.8,149.4,330,141.5,319.2z"/>
	</g>
	<g id="XMLID_167_">
		<path id="XMLID_115_" class="st27" d="M71.6,259.6c-0.7-1.8-1.5-3.4-2.7-5c-3.8-5.2-10-8.6-17.1-10.3c-4.9-0.9-10-1.3-15-1.3
			c-0.6,0-1.2,0.1-1.8,0.2c-4.6,2.5-9.8,3.9-14,7.1c-2.8,2.1-5.8,7-1.7,9.4c3.2,1.8,7.7,1.5,11.2,1.2c3.6-0.3,7.1-0.9,10.7-1.5
			c6.8-1,14.3-1.8,20.8,1c2.2,0.9,3.9,2.7,5.9,4.1c0.6,0.4,2.1,1,2.6,1.6c0-0.1,0.1-0.1,0.1-0.2c0.1-1,0.7-2.3,0.9-3.2
			C71.5,261.8,71.6,260.6,71.6,259.6z"/>
	</g>
	<g id="XMLID_164_">
		<path id="XMLID_116_" class="st28" d="M141.5,319.2c-5.6-7.7-14.8-11.8-24.1-13.8c-9.2-2-18.8-2.1-28.1-3.4
			c-2.6-0.3-5.1-0.9-7.4-2.2c-8,2.7-17.3,2.9-23,9.6c-3.5,4-4.9,8.1-1.8,12.8c0.3,0.5,0.7,1,1.1,1.5c4,5.1,10.1,8.2,16.5,9
			c0.9,0.1,1.8,0.2,2.7,0.3c8.1,0.9,18.1,2.1,23.6,9.1c6.3,8,2.6,19.8-1.5,27.9c-0.7,1.4-1.5,2.7-2.2,4.1c13.9,0.2,27.4-3,37.6-12.4
			c1.7-1.6,3.2-3.3,4.7-5.2C147.7,345.8,149.4,330,141.5,319.2z"/>
	</g>
	<g id="XMLID_14_">
		<path id="XMLID_163_" class="st5" d="M90.5,303.8c23.4,1.7,47.8,2.2,53.4,4.8c5.1,2.4-1.5,11.2-1.5,11.2s-44.6,3.8-52.1,4.6
			C86.3,324.9,86,303.5,90.5,303.8z"/>
		<path id="XMLID_162_" class="st5" d="M134.9,362c-0.3-10.8,1.3-54.4,1.3-54.4s10.3-1.5,11.7,6c0.8,3.8-4.7,37.4-6.9,48.6
			L134.9,362z"/>
		<path id="XMLID_161_" class="st1" d="M156,367l-15-4.7l-6.2-0.3l-0.3,7l10.6,0.4C157.7,370.1,156,367,156,367z"/>
		<path id="XMLID_160_" class="st6" d="M78.1,303.1c22.2,7.5,45.7,14.1,50.5,18c4.4,3.6-4.3,10.5-4.3,10.5s-40.6-5-47.5-8
			C64.7,318.4,73.9,301.7,78.1,303.1z"/>
		<path id="XMLID_159_" class="st6" d="M108.4,367.7c2-9.9,12.9-49.3,12.9-49.3s10.3,1.5,10.1,8.7c-0.1,3.8-12.6,32.9-17.2,42.5
			L108.4,367.7z"/>
		<path id="XMLID_158_" class="st1" d="M127.7,378l-13.6-8.5l-5.9-2l-1.7,6.3l10.2,3.3C128.7,381.3,127.7,378,127.7,378z"/>
		<g id="XMLID_147_">
			<path id="XMLID_157_" class="st7" d="M129.8,289.4c0,0,0.7,4.4-3.2,8.7C126.5,298.1,123.5,292.3,129.8,289.4z"/>
			<g id="XMLID_148_">
				<path id="XMLID_156_" class="st8" d="M129.7,293.2c0,0,4.2,0.9,7.1,3.1c1.6,1.2,2.4,3.7,1.2,5.5c-0.9,1.3-2.7,1.9-4.3,1.3
					c-0.5-0.3-1.1-0.7-1.1-1.2c0-0.3,0.1-0.4,0.1-0.7c0.1-0.9-0.6-1.7-1.5-2.1s-2.1-0.6-2.8-1.1c-0.3-0.3-1.4-1.5-1.2-2.1
					C127.5,295.5,129.7,293.2,129.7,293.2z"/>
				<g id="XMLID_151_">
					<g id="XMLID_299_">
						<path id="XMLID_305_" class="st8" d="M95.7,285.5c-0.5-1.7-1.5-1.1,0.7-2.7c1.8-1.4,5.5-3.5,5.5-3.5c9.8,5.4,17.1,7.4,24,11.1
							c10.9,5.9,2.6,6.3,2.6,6.3C116.2,290.8,107.6,291.8,95.7,285.5z"/>
					</g>
				</g>
				<g id="XMLID_149_">
					<path id="XMLID_150_" class="st9" d="M129.8,289.4c-3.3,1.3-4.3,7.1-3.2,8.7c-11-4.6-24-8.1-34.9-12.9c-0.7-1.7,0.3-1.3,2.4-3
						c1.7-1.5,5.9-3.8,5.9-3.8C109.2,282.6,121.6,287,129.8,289.4z"/>
				</g>
			</g>
		</g>
		<polygon id="XMLID_146_" class="st10" points="104.1,230.5 92.9,228 89.1,240.2 100.5,242.3 		"/>
		<path id="XMLID_145_" class="st10" d="M107.3,292.1l-29.2-2.7c0.8-13.3,0.6-46.1,3.8-48.4c8.5-6,17.2-5,23.6,0.1
			C107.9,243.2,108,278.2,107.3,292.1z"/>
		<path id="XMLID_144_" class="st8" d="M104.7,278.9"/>
		<path id="XMLID_143_" class="st11" d="M106.4,305.3c1.7-17.7,7-51,3.2-58.9c-1.4-2.8-4.1-7.1-8.4-8.2c0.1,0.1,0.3,0.1,0.3,0.2
			c0.7,1.8-0.5,4.4-4.1,4.1c-1.6-0.2-3.8-0.9-6.1-3c-1-0.9-1.2-2.2-1.3-2.6c-3.4,0.4-10.9,2-13.3,4.3c-2.7,2.6-3.9,48.5-4.9,64.5
			l20.8,2.3C103.5,308,104.5,306.6,106.4,305.3z"/>
		<path id="XMLID_142_" class="st12" d="M104.7,278.9c-0.7,9-2,20.1-3,28.5c3.9-0.9,5-2.5,7.1-4.4c2.3-19.9,5.2-46.7,1.5-56.6
			c-1.4-3.6-3.9-5.6-6.9-7.4C103.5,239.1,105.8,264.4,104.7,278.9z"/>
		<path id="XMLID_141_" class="st13" d="M104.2,285c1.7-2.7,5.6-12.2,5.6-12.2l-3.2-12.3l1.5-17.9l-3.7-3c0,0-0.6-0.4-0.9-0.6
			c0,0,2.5,25.3,1.3,39.8C104.6,280.9,104.4,283,104.2,285z"/>
		<path id="XMLID_140_" class="st12" d="M89.3,241c-0.3-1.2-0.4-2.5,0.3-3.4V237c-3.7,0.6-11.5,0.6-12.8,4.8c-1.2,3.8-7,58.3-8,76.2
			l23,1.9l3.2-38.2l0.2-22.2L89.3,241z"/>
		<path id="XMLID_139_" class="st14" d="M77.9,304.9"/>
		<path id="XMLID_138_" class="st15" d="M99.6,243.6L99.6,243.6c1-0.1,2,0.3,2.5,1.2l0.8,1.1c0,0-0.4,3.2-1.5,3.4
			c-0.3,0.1-0.8,0.1-1.1,0.1c-0.6-0.1-1.2-0.4-1.5-0.9L97,246l0.7-1.2C98.1,244.2,98.8,243.7,99.6,243.6z"/>
		<path id="XMLID_137_" class="st15" d="M102.3,293.4l-0.6-45l-2.4-0.2L96,292.9l1.6,8.4c0.3,1.6,1.9,1.6,2.3,0L102.3,293.4z"/>
		<g id="XMLID_134_">
			<path id="XMLID_136_" class="st16" d="M102.1,236.7l-1.6,4.3l2.4,5c0,0,2.3-4.6,1.8-6C104.6,239.9,103.8,237.7,102.1,236.7z"/>
			<polygon id="XMLID_135_" class="st17" points="100.5,240.9 99.9,242.2 102.9,245.9 			"/>
		</g>
		<path id="XMLID_133_" class="st13" d="M88.7,235.9l-6.1,2.1l10.3,19.7l-1.4,16.5l3.2,12.2c0,0,3.1-14.2,1.6-25.8
			C94.8,248.9,93.7,242.2,88.7,235.9z"/>
		<path id="XMLID_132_" class="st16" d="M90.4,234l-3,3.4c0,0,5.3,6.7,9.5,9.7l3.1-6.1C99.9,241.1,95.6,238.2,90.4,234z"/>
		<g id="XMLID_128_">
			<path id="XMLID_152_" class="st10" d="M106.4,205.8c-3.4-0.5-7,0-9.1,1.5c-5,3.8-3.6,10-4.3,15.6c-0.1,1-0.3,3.7-0.9,7
				c-0.1,0.6,0.9-0.7,1.4-0.4c4.4,1.7,7.1,4.3,11.5,6c1.2,0.4,3.1,1.6,4,0.8c0.5-0.4,0.9-1.5,1-2.1c1.1-3.8,2.8-8.2,3.7-11.6
				c0.5-2.3,1.1-4.6,1.3-7c0.2-1.9,0-3.9-0.9-5.6C112.9,207.7,109.8,206.4,106.4,205.8z"/>
		</g>
		<g id="XMLID_122_">
			<path id="XMLID_166_" class="st18" d="M92.2,225.8c0.3,0.2,0.7,0.1,1.2-0.3c0.7-0.4,1.6-1.4,1.9-2.1c0.3-1.1-0.4-2.4-0.4-3.6
				c0-0.8,0.2-1.6,0.8-2.2c0.6-0.6,1.6-0.7,2.1-0.1c0.3,0.4,0.4,1.1,0.9,1.5c0.4,0.3,1,0.2,1.5-0.1c0.4-0.3,0.7-0.7,1-1.1
				c0.9-0.9,2.1-1.7,3.4-1.8c0.8-0.1,1.5,0.1,2.2,0.2c2.1,0.3,4.3-0.2,6.2-1.2c2.5-1.3,5-3.5,5.3-6.5c-1.5,0.7-3.3-0.3-4.8-1.1
				c-2-1.2-4.1-2.3-6.3-2.7c-2.3-0.4-5.6-0.7-7.4,0.7c-0.4,0.3-0.8,0.6-1.2,0.9c-1,0.4-1.4,0.6-2.4,0.9c-1.5,0.4-2.5,2.1-3,3.7
				c-1.1,2.9-1.6,6-1.8,9.1C91.1,220.9,90.9,225.2,92.2,225.8z"/>
		</g>
		<path id="XMLID_121_" class="st10" d="M114.1,220.8c0.2,3.2,0.4,4.4,0.9,6.6c0.1,0.5-0.3,0.9-0.8,1c-0.9,0-2-0.1-2.7-0.2"/>
		<path id="XMLID_120_" class="st19" d="M98.5,224.4c0,0-0.9,5.6-0.3,6.5c0.6,0.9,5.5,3.9,5.5,3.9s-4.3-1.6-6.2-3.8
			C96.4,229.8,98.5,224.4,98.5,224.4z"/>
		<g id="XMLID_98_">
			<g id="XMLID_101_">
				<path id="XMLID_119_" class="st7" d="M106.4,297.6c0,0,0.4,4.4-3.7,8.5C102.7,306.1,99.9,300.1,106.4,297.6z"/>
				<path id="XMLID_118_" class="st8" d="M106,301.4c0,0,4.1,1.1,6.9,3.5c1.5,1.3,2.2,3.8,0.9,5.5c-0.9,1.3-2.8,1.7-4.3,1
					c-0.5-0.3-1-0.7-1-1.3c0-0.3,0.1-0.4,0.2-0.7c0.2-0.9-0.5-1.7-1.3-2.2c-0.9-0.5-2-0.7-2.7-1.3c-0.3-0.3-1.3-1.6-1.1-2.1
					C103.7,303.6,106,301.4,106,301.4z"/>
				<g id="XMLID_113_">
					<g id="XMLID_310_">
						<path id="XMLID_313_" class="st8" d="M72.5,291.9c-0.4-1.7-1.4-1.1,0.9-2.7c1.9-1.3,5.6-3.2,5.6-3.2
							c9.5,5.9,16.7,8.2,23.4,12.3c10.5,6.4,2.2,6.4,2.2,6.4C92.7,298.3,84.1,298.9,72.5,291.9z"/>
					</g>
				</g>
				<g id="XMLID_110_">
					<path id="XMLID_111_" class="st8" d="M74,287c0.6,0.6,0.7,0.9,2.8,0.7c1.7-0.2,2-1.5,2.4-2.8c6.5-19.4,4.8-39.2,3.2-39
						c-5.4,1.2-7.7,8.6-7.7,8.6s-2.6,9.1-3.8,20c-0.3,2-1.1,13.4,0.3,14.6C71.3,289.1,74,287,74,287z"/>
				</g>
				<g id="XMLID_108_">
					<path id="XMLID_109_" class="st9" d="M106.4,297.6c-3.4,1.1-4.6,6.8-3.7,8.5c-10.8-5.2-23.5-9.4-34.2-14.7
						c-0.6-1.7,0.4-1.2,2.6-2.9c1.8-1.4,7.3-5.1,7.3-5.1C87.3,288.1,98.2,294.7,106.4,297.6z"/>
				</g>
				<g id="XMLID_104_">
					<path id="XMLID_105_" class="st9" d="M74,287c0.6,0.6,0.7,0.9,2.8,0.7c1.7-0.2,2.1,0.4,2.7-0.9c8.8-18.4,6-49.9-1.5-47.5
						c-5.2,1.7-7.5,20.2-8.8,31c-0.3,2-2.1,19.3-0.8,20.5L74,287z"/>
				</g>
			</g>
		</g>
		<polygon id="XMLID_25_" class="st10" points="130.4,312.9 122.9,315.4 97,315.4 97,311.7 129.5,311.7 		"/>
		<polygon id="XMLID_24_" class="st24" points="135.9,288.8 122.9,315.4 122.9,315.4 144.8,309.9 157.2,284.7 		"/>
		<polygon id="XMLID_18_" class="st25" points="133.7,288.8 154.6,284.2 157.2,284.7 135.9,289.3 		"/>
		<polygon id="XMLID_17_" class="st10" points="122.9,315.4 135.9,289.3 133.7,288.8 120.6,315.4 		"/>
	</g>
</g>
<g id="XMLID_96_">
	<ellipse id="XMLID_271_" class="st29" cx="347.3" cy="546.2" rx="106.3" ry="22"/>
	<g id="XMLID_353_">
		<g id="XMLID_354_">
			<g id="XMLID_370_">
				<polygon id="XMLID_270_" class="st1" points="291.1,507 279.8,542.7 286.7,505.9 				"/>
				<polygon id="XMLID_269_" class="st1" points="306.1,500.8 294.8,536.6 301.6,499.7 				"/>
				<polygon id="XMLID_268_" class="st1" points="318.9,505.9 325.8,542.7 314.5,507 				"/>
				<polygon id="XMLID_267_" class="st1" points="323.5,494.7 330.4,531.5 319.1,495.8 				"/>
				<polygon id="XMLID_266_" class="st2" points="273.3,442.2 281.4,442.2 307.5,438.2 295.7,438.7 				"/>
				<polygon id="XMLID_265_" class="st3" points="281.4,442.2 273.3,442.2 279.8,502.2 287.9,502.2 				"/>
				<polygon id="XMLID_264_" class="st4" points="281.4,442.2 306.3,438.2 306.9,502.2 287.9,502.2 				"/>
				<path id="XMLID_263_" class="st3" d="M319.1,507.8h-33.7c-3.1,0-5.6-2.5-5.6-5.6l0,0c0-3.1,2.5-5.6,5.6-5.6h33.7
					c3.1,0,5.6,2.5,5.6,5.6l0,0C324.6,505.3,322.2,507.8,319.1,507.8z"/>
				<g id="XMLID_371_">
					<path id="XMLID_262_" class="st5" d="M305.4,479.1c19.5,3.8,40.5,8.8,45,11.5c4,2.6-2.4,9.2-2.4,9.2s-37.8-1.5-44.1-1.5
						C300.4,498.3,301.7,478.3,305.4,479.1z"/>
					<path id="XMLID_261_" class="st5" d="M340.9,532.7c0-8.6,2.3-43.3,2.3-43.3s8.6-1,9.7,5c0.6,3.1-4.8,29.8-6.9,38.6L340.9,532.7
						z"/>
					<path id="XMLID_260_" class="st1" d="M358.6,536.9L346,533l-5.2-0.3l-0.3,5.6l8.9,0.5C359.9,539.4,358.6,536.9,358.6,536.9z"/>
					<path id="XMLID_259_" class="st6" d="M294.3,480.3c18.8,6.4,37.1,15.3,41.1,18.6c3.7,3.1-3.6,8.9-3.6,8.9s-32.4-6.8-38.1-9.3
						C283.3,494,290.7,479.1,294.3,480.3z"/>
					<path id="XMLID_258_" class="st6" d="M323.8,539.5c0.3-8.6,3.6-42.8,3.6-42.8s8.7-0.2,9.7,5.8c0.5,3.2-5.7,29.2-8.1,37.8
						L323.8,539.5z"/>
					<path id="XMLID_257_" class="st1" d="M341.4,545.3l-12.5-5l-5.2-0.8l-0.5,5.6l8.9,1.3C342.6,547.8,341.4,545.3,341.4,545.3z"/>
					<g id="XMLID_412_">
						<path id="XMLID_256_" class="st7" d="M335.7,461c0,0,0.6,3.7-2.7,7.4C332.9,468.2,330.4,463.4,335.7,461z"/>
						<g id="XMLID_413_">
							<path id="XMLID_255_" class="st8" d="M335.6,464.1c0,0,3.5,0.8,6,2.7c1.4,1,2.1,3.1,1,4.6c-0.8,1.1-2.3,1.5-3.6,1.1
								c-0.4-0.2-0.9-0.5-0.9-1c0-0.2,0.1-0.3,0.1-0.6c0.1-0.8-0.5-1.5-1.2-1.8s-1.7-0.5-2.3-0.9c-0.3-0.3-1.1-1.3-1-1.7
								C333.7,466.1,335.6,464.1,335.6,464.1z"/>
							<g id="XMLID_416_">
								<g id="XMLID_312_">
									<path id="XMLID_319_" class="st8" d="M306.9,457.6c-0.4-1.5-1.2-0.9,0.6-2.2c1.5-1.1,4.6-2.9,4.6-2.9
										c8.3,4.5,14.4,6.2,20.3,9.3c9.1,5,2.1,5.3,2.1,5.3C324.2,462.1,316.9,462.9,306.9,457.6z"/>
								</g>
							</g>
							<g id="XMLID_414_">
								<path id="XMLID_253_" class="st9" d="M335.7,461c-2.8,1.1-3.6,6-2.7,7.4c-9.3-3.9-20.3-6.8-29.4-10.9c-0.6-1.5,0.3-1,2-2.6
									c1.5-1.3,5-3.2,5-3.2C318.2,455.2,328.7,458.8,335.7,461z"/>
							</g>
						</g>
					</g>
					<polygon id="XMLID_252_" class="st10" points="316.3,416.3 306.9,414.2 303.7,424.5 313.3,426.3 					"/>
					<path id="XMLID_251_" class="st10" d="M319,468.2l-24.7-2.2c0.7-11.3,0.5-38.9,3.2-40.8c7.2-5,14.4-4.3,19.9,0.1
						C319.6,427,319.7,456.5,319,468.2z"/>
					<path id="XMLID_250_" class="st8" d="M316.9,457.2"/>
					<path id="XMLID_249_" class="st11" d="M318.3,479.4c1.5-15,5.9-43,2.7-49.7c-1.1-2.3-3.4-6-7-6.9c0.1,0.1,0.2,0.1,0.3,0.2
						c0.6,1.5-0.4,3.7-3.5,3.4c-1.4-0.1-3.2-0.8-5.1-2.5c-0.9-0.8-1-1.9-1.1-2.1c-2.9,0.3-9.2,1.6-11.2,3.6
						c-2.2,2.2-3.3,40.9-4.1,54.4l17.5,2C315.8,481.7,316.7,480.5,318.3,479.4z"/>
					<path id="XMLID_248_" class="st12" d="M316.9,457.2c-0.6,7.6-1.6,16.9-2.5,24c3.3,0.4,2.7,0.7,4.9,1.3c0.4,0.1,0.7-0.5,0.8-0.9
						c2-16.8,4.7-43.6,1.5-51.8c-1.1-3.1-3.3-4.8-5.8-6.2C315.8,423.6,317.9,444.9,316.9,457.2z"/>
					<path id="XMLID_247_" class="st13" d="M316.4,462.3c1.5-2.3,4.8-10.3,4.8-10.3l-2.7-10.3l1.2-15l-3.1-2.5c0,0-0.5-0.3-0.9-0.5
						c0,0,2.1,21.3,1.1,33.6C316.8,458.8,316.6,460.5,316.4,462.3z"/>
					<path id="XMLID_246_" class="st12" d="M303.9,425.1c-0.3-1-0.3-2.1,0.3-2.9v-0.4c-3.1,0.5-9.7,0.5-10.9,4
						c-0.9,3.2-5.9,49.2-6.8,64.3l19.4,1.6l2.8-32.2l0.2-18.8L303.9,425.1z"/>
					<path id="XMLID_245_" class="st14" d="M294.3,479.1"/>
					<path id="XMLID_244_" class="st15" d="M312.6,427.4L312.6,427.4c0.9-0.1,1.6,0.3,2.1,0.9l0.6,0.9c0,0-0.3,2.7-1.2,2.9
						c-0.3,0.1-0.7,0.1-0.9,0.1c-0.5-0.1-1-0.3-1.3-0.8l-1.5-2.1l0.6-1C311.2,427.9,311.9,427.5,312.6,427.4z"/>
					<path id="XMLID_243_" class="st15" d="M314.8,469.3l-0.5-37.9l-2.1-0.2l-2.7,37.6l1.4,7c0.3,1.4,1.5,1.4,2,0L314.8,469.3z"/>
					<g id="XMLID_399_">
						<path id="XMLID_242_" class="st16" d="M314.7,421.6l-1.4,3.6l2,4.2c0,0,2-3.9,1.5-5C316.8,424.2,316.1,422.4,314.7,421.6z"/>
						<polygon id="XMLID_241_" class="st17" points="313.3,425.1 312.8,426.2 315.3,429.2 						"/>
					</g>
					<path id="XMLID_240_" class="st13" d="M303.4,420.9l-5.1,1.8l8.6,16.6l-1.1,13.9l2.7,10.3c0,0,2.6-12,1.4-21.8
						C308.6,431.8,307.6,426.1,303.4,420.9z"/>
					<path id="XMLID_239_" class="st16" d="M304.8,419.2l-2.6,2.9c0,0,4.4,5.6,8,8.2l2.6-5C312.8,425.2,309.2,422.8,304.8,419.2z"/>
					<g id="XMLID_238_">
						<path id="XMLID_281_" class="st10" d="M318.4,395.5c-2.9-0.4-5.9,0-7.7,1.3c-4.2,3.2-3.1,8.5-3.6,13.3
							c-0.1,0.9-0.3,3.1-0.8,5.9c-0.1,0.5,0.7-0.5,1.2-0.3c3.8,1.5,6,3.6,9.7,5c1,0.4,2.7,1.4,3.4,0.6c0.4-0.4,0.7-1.3,0.9-1.8
							c0.9-3.2,2.4-6.9,3.1-9.8c0.4-2,0.9-3.9,1.1-5.9c0.1-1.6,0-3.3-0.9-4.7C323.8,397.1,321.1,395.9,318.4,395.5z"/>
					</g>
					<g id="XMLID_237_">
						<path id="XMLID_277_" class="st18" d="M306.3,412.3c0.3,0.1,0.6,0.1,1-0.3c0.6-0.4,1.4-1.1,1.6-1.8c0.3-0.9-0.3-2.1-0.3-3
							c0-0.7,0.2-1.4,0.6-1.9c0.5-0.5,1.4-0.6,1.8-0.1c0.3,0.3,0.3,0.9,0.8,1.2c0.3,0.3,0.9,0.2,1.2-0.1s0.6-0.6,0.9-0.9
							c0.8-0.9,1.8-1.5,2.8-1.5c0.6,0,1.2,0.1,1.9,0.2c1.8,0.2,3.6-0.2,5.2-1c2.1-1.1,4.3-2.9,4.4-5.5c-1.3,0.6-2.8-0.2-4-0.9
							c-1.7-1-3.4-2-5.4-2.3c-1.9-0.4-4.7-0.6-6.3,0.5c-0.3,0.3-0.7,0.5-1,0.7c-0.9,0.3-1.1,0.5-2.1,0.8c-1.4,0.3-2.1,1.8-2.6,3.1
							c-0.9,2.5-1.4,5-1.5,7.7C305.5,408.1,305.1,411.8,306.3,412.3z"/>
					</g>
					<path id="XMLID_236_" class="st10" d="M324.8,408c0.2,2.7,0.3,3.8,0.7,5.6c0.1,0.4-0.2,0.9-0.6,0.9c-0.8,0-1.7-0.1-2.3-0.1"/>
					<path id="XMLID_235_" class="st19" d="M311.6,411.1c0,0-0.7,4.8-0.3,5.5s4.6,3.3,4.6,3.3s-3.6-1.4-5.2-3.2
						C309.9,415.7,311.6,411.1,311.6,411.1z"/>
					<g id="XMLID_372_">
						<g id="XMLID_373_">
							<path id="XMLID_234_" class="st7" d="M317.5,458c0,0,2,3.2,0.3,7.9C317.7,465.8,313.5,462.2,317.5,458z"/>
							<path id="XMLID_233_" class="st8" d="M318.6,461c0,0,3.6-0.6,6.5,0.2c1.6,0.4,3.1,2.1,2.7,3.8c-0.3,1.3-1.5,2.4-2.9,2.4
								c-0.5,0-1-0.2-1.2-0.6c-0.1-0.2-0.1-0.3-0.2-0.5c-0.2-0.8-1-1.1-1.8-1.2c-0.8-0.1-1.8,0.2-2.6,0c-0.3-0.1-1.5-0.8-1.6-1.2
								C317.6,463.4,318.6,461,318.6,461z"/>
							<g id="XMLID_382_">
								<g id="XMLID_304_">
									<path id="XMLID_306_" class="st8" d="M289.6,465.8c-0.9-1.2-1.5-0.3-0.3-2.3c0.9-1.6,3.2-4.4,3.2-4.4
										c9.4,1,15.7,0.2,22.3,0.9c10.3,1.1,4,4.1,4,4.1C307.3,463.4,301,467,289.6,465.8z"/>
								</g>
							</g>
							<g id="XMLID_380_">
								<path id="XMLID_231_" class="st8" d="M291,464c0.5,0.5,0.6,0.8,2.4,0.6c1.5-0.1,1.6-1.3,2.1-2.4c5.6-16.4,4-33.2,2.7-32.8
									c-4.5,1-6.5,7.3-6.5,7.3s-2.1,7.8-3.2,16.9c-0.2,1.7-0.9,11.4,0.2,12.3C288.6,465.8,291,464,291,464z"/>
							</g>
							<g id="XMLID_378_">
								<path id="XMLID_230_" class="st9" d="M317.5,458c-2.2,2.1-1,6.8,0.3,7.9c-10.1-0.1-21.4,1.4-31.4,1.1
									c-1-1.1-0.1-1.1,0.9-3.1c0.9-1.7,3.7-6.5,3.7-6.5C299.5,457.6,310.3,458.7,317.5,458z"/>
							</g>
							<g id="XMLID_374_">
								<path id="XMLID_229_" class="st9" d="M291,464c0.5,0.5,0.6,0.8,2.4,0.6c1.5-0.1,1.8,0.3,2.2-0.7c7.4-15.5,5-42.2-1.3-40.1
									c-4.4,1.5-6.3,17-7.4,26.2c-0.2,1.7-1.8,16.3-0.6,17.3C286.3,467.2,291,464,291,464z"/>
							</g>
						</g>
					</g>
				</g>
			</g>
			<g id="XMLID_360_">
				<g id="XMLID_367_">
					<rect id="XMLID_228_" x="265.8" y="478.7" class="st20" width="3.2" height="70.8"/>
					<polygon id="XMLID_227_" class="st21" points="269.2,549.5 270.7,546.5 270.7,478.7 269.2,478.7 					"/>
				</g>
				<g id="XMLID_364_">
					<rect id="XMLID_226_" x="362.9" y="478.7" class="st20" width="3.2" height="70.8"/>
					<polygon id="XMLID_225_" class="st21" points="366.2,549.5 367.7,546.5 367.7,478.7 366.2,478.7 					"/>
				</g>
				<rect id="XMLID_224_" x="245.8" y="474.6" class="st20" width="141.7" height="5.4"/>
				<polygon id="XMLID_223_" class="st22" points="394.5,471.5 253.2,471.6 245.8,474.6 387.6,474.6 				"/>
				<polygon id="XMLID_222_" class="st23" points="387.6,474.6 387.6,480 394.5,475.9 394.5,471.5 				"/>
			</g>
			<g id="XMLID_355_">
				<polygon id="XMLID_221_" class="st30" points="345,472.9 338.7,475.1 316.9,475.1 316.9,471.9 344.3,471.9 				"/>
				<polygon id="XMLID_220_" class="st24" points="349.7,452.6 338.7,475.1 338.7,475.1 355.9,473.1 367.6,449.1 				"/>
				<polygon id="XMLID_219_" class="st25" points="347.8,452.6 365.4,448.7 367.6,449.1 349.7,452.9 				"/>
				<polygon id="XMLID_218_" class="st30" points="338.7,475.1 349.7,452.9 347.8,452.6 336.8,475.1 				"/>
			</g>
		</g>
	</g>
	<g id="XMLID_102_">
		<g id="XMLID_103_">
			<g id="XMLID_180_">
				<g id="XMLID_335_">
					<path id="XMLID_217_" class="st7" d="M385.7,423.3c0,0-4.5,3.7-3.5,8.3C382.2,431.5,385.7,428.9,385.7,423.3z"/>
					<g id="XMLID_336_">
						<path id="XMLID_216_" class="st8" d="M383.1,426.8c0,0-0.1-3.4-6.3-4.2c0,0-0.4,0.8,1.7,2c1.5,0.9,2.8,1.6,3.7,2
							C382.6,426.6,383,426.8,383.1,426.8z"/>
						<path id="XMLID_215_" class="st8" d="M381.8,429.4c0,0-3.4-0.1-6.1-1.5c-2.7-1.3-2.9-2.8-2.9-3.7c0-0.6,0.1-2.4,1-1.8
							s5.7,1.8,6.9,2.2c1.2,0.4,2.5,2,2.5,2.2C383.3,427.4,381.8,429.4,381.8,429.4z"/>
						<g id="XMLID_345_">
							<g id="XMLID_320_">
								<path id="XMLID_321_" class="st8" d="M408.4,435.8c1.1-0.9,1.5-0.1,0.7-2.1c-0.6-1.7-2.1-4.8-2.1-4.8
									c-9-0.8-17.9-0.9-23.9-3.1c-6.7-2.5-3.4,2.7-3.4,2.7C386.7,432.4,397.6,434.7,408.4,435.8z"/>
							</g>
						</g>
						<g id="XMLID_343_">
							<path id="XMLID_213_" class="st8" d="M408.3,432.1c-0.6,0.3-0.7,0.5-2.3-0.1c-1.3-0.5-1.1-1.6-1.2-2.7
								c-0.7-16.5,5.2-31.4,6.3-30.8c3.8,2.1,3.9,8.4,3.9,8.4s-0.1,7.7-1.6,16.3c-0.3,1.6-2.2,10.6-3.5,11.2L408.3,432.1z"/>
						</g>
						<g id="XMLID_341_">
							<path id="XMLID_212_" class="st9" d="M385.7,423.3c-0.4,1.5-2.1,7.5-3.5,8.3c6.9,3.1,19.9,4.5,29.4,5.6
								c1.1-0.9,0.3-1.7-0.3-3.8c-0.6-1.7-2.6-5-2.6-5C400.5,427.5,391.6,424.9,385.7,423.3z"/>
						</g>
						<g id="XMLID_337_">
							<path id="XMLID_211_" class="st9" d="M408.3,432.1c-0.6,0.3-0.7,0.5-2.3-0.1c-1.3-0.5-1.7-0.2-1.8-1.3
								c-1.3-13.3,5.8-38.8,11-35.3c3.7,2.5,0.7,12.3,0.7,12.3s0.3,6.8-1.2,15.5c-0.3,1.6-1.5,12.7-2.7,13.3
								C411.9,436.5,408.3,432.1,408.3,432.1z"/>
						</g>
					</g>
				</g>
				<rect id="XMLID_210_" x="419.7" y="382.9" class="st10" width="10.1" height="10.8"/>
				<path id="XMLID_209_" class="st5" d="M411.7,452.8c-3.8,20.9-4,42.7-3.1,48.1c0.9,5,6.6,0.7,6.6,0.7s8.7-36.6,11.1-42.8
					C427.8,455.3,412.5,448.8,411.7,452.8z"/>
				<path id="XMLID_208_" class="st6" d="M420.7,453.4c4.5,25.9,7,42.4,8,47.9c0.9,5,8.9,2.6,8.9,2.6s-1.3-43.7,1.2-49.9
					C440.2,450.5,420,449.4,420.7,453.4z"/>
				<path id="XMLID_207_" class="st10" d="M410.8,439.1l26.5-0.2c0.3-12.1,2.9-41.6,0.2-43.9c-7.2-6-15-5.8-21.2-1.7
					C413.9,395,411.2,426.5,410.8,439.1z"/>
				<path id="XMLID_206_" class="st8" d="M414.1,427.5"/>
				<path id="XMLID_205_" class="st11" d="M412.1,397.8c1.5-2.4,4.2-6.1,8.1-6.8c-0.1,0-0.3,0.1-0.3,0.2c-0.8,1.5,0.1,3.9,3.4,3.9
					c1.5,0,3.5-0.5,5.7-2.2c1-0.8,1.2-2,1.4-2.2c3.1,0.7,9.7,2.6,11.6,4.8c2.2,2.6-0.1,43.9-0.4,58.4h-31
					C410.7,438.9,407.8,405.1,412.1,397.8z"/>
				<path id="XMLID_204_" class="st12" d="M411.4,397.8c1.5-3.2,3.9-4.8,6.8-6.2c0,0-4.1,22.6-4.1,35.7c-0.1,15.2,1,37.1,1,37.1
					h-6.2C409,449.6,405.9,409.4,411.4,397.8z"/>
				<path id="XMLID_203_" class="st13" d="M414.1,432.9c-1.3-2.7-4.2-11.4-4.2-11.4l3.8-10.9v-16.2l3.5-2.4c0,0,0.6-0.3,0.9-0.4
					c0,0-4.1,22.6-4.1,35.7C414.1,429.2,414.1,431,414.1,432.9z"/>
				<path id="XMLID_202_" class="st12" d="M430.8,394.4c0.3-1,0.5-2.2,0-3.1v-0.4c3.2,0.9,10.3,1.5,11.2,5.3c0.8,3.5,2,53,1.5,69.2
					h-20.9l-0.2-34.6l1.5-20L430.8,394.4z"/>
				<path id="XMLID_201_" class="st14" d="M439.6,450.6"/>
				<path id="XMLID_200_" class="st6" d="M437.7,540c0.4-8.3-0.1-36.1-0.1-36.1s-8.6-7.5-9.1-3.4c-0.3,3.1,2.3,30.4,3.5,39.2
					L437.7,540z"/>
				<path id="XMLID_199_" class="st5" d="M419,538.9c0.6-8.3-2.7-42.8-2.7-42.8s-7.2,0.9-7.7,5c-0.3,3.1,3.2,29.1,4.9,37.8H419
					L419,538.9z"/>
				<path id="XMLID_198_" class="st1" d="M399.8,541.9l13.8-3.1h5.6v5.5h-9.6C398.3,544.2,399.8,541.9,399.8,541.9z"/>
				<path id="XMLID_197_" class="st1" d="M423.2,544.5l6.1-2.6c1.1-0.4,2.3-1,2.6-2.2c0-0.1,0-0.1,0-0.2h5.8v4.5
					c-4.9,2.1-10.3,2.7-15.6,1.8C421.9,545.3,422.6,544.8,423.2,544.5z"/>
				<path id="XMLID_196_" class="st15" d="M421.3,396L421.3,396c-0.9-0.2-1.8,0.2-2.3,0.9l-0.8,0.9c0,0,0.2,2.8,1,3.2
					c0.3,0.2,0.7,0.2,1,0.2c0.6,0,1.1-0.3,1.5-0.7l1.8-2.1l-0.5-1.1C422.7,396.6,422,396.2,421.3,396z"/>
				<path id="XMLID_195_" class="st15" d="M415.2,440.6l3.9-40.4h2.2l-0.4,40.4l-2.1,7.4c-0.4,1.5-1.8,1.4-2.1-0.2L415.2,440.6z"/>
				<g id="XMLID_316_">
					<path id="XMLID_194_" class="st16" d="M419.5,389.6l1.2,3.9l-2.5,4.3c0,0-1.7-4.4-1.2-5.5C417.1,392.3,418,390.3,419.5,389.6z"
						/>
					<polygon id="XMLID_193_" class="st17" points="420.7,393.5 421.2,394.6 418.3,397.8 					"/>
				</g>
				<path id="XMLID_192_" class="st13" d="M431.7,389.9l5.3,2.3l-10.7,16.9v15l-3.8,10.8c0,0-1.7-13,0.4-23.3
					C425.2,401.1,426.7,395.1,431.7,389.9z"/>
				<path id="XMLID_191_" class="st16" d="M430.3,388l2.5,3.2c0,0-5.3,5.6-9.2,8.1l-2.3-5.6C421.3,393.8,425.4,391.5,430.3,388z"/>
				<g id="XMLID_188_">
					<path id="XMLID_280_" class="st10" d="M427.7,359.3c3,0.9,5.7,2.8,6.7,5c2.4,5.1-0.5,9.7-2.3,14.6c-0.3,0.9-1.8,2.2-2.3,4.9
						c-0.1,0.5-0.9,0.1-1.4,0c-4.3-0.4-7.4,0.6-11.8,0.2c-1.1-0.1-3.2,0.1-3.6-1c-0.3-0.6-0.1-1.5,0-2.1c0.6-3.4,1-7.8,1.7-10.9
						c0.5-2.1,1-4.2,1.8-6.2c0.7-1.6,1.5-3.2,3.1-4.1C421.7,358.3,424.8,358.4,427.7,359.3z"/>
				</g>
				<g id="XMLID_187_">
					<path id="XMLID_275_" class="st18" d="M431.1,381.3c-0.3,0-0.6-0.3-0.9-0.8c-0.3-0.7-0.8-1.8-0.7-2.6c0.2-1,1.4-1.8,1.8-2.7
						c0.3-0.7,0.5-1.4,0.3-2.1c-0.3-0.7-1-1.2-1.7-0.9c-0.5,0.2-0.8,0.7-1.3,0.8c-0.4,0.1-0.9-0.3-1.1-0.7c-0.3-0.4-0.3-0.9-0.4-1.3
						c-0.3-1.1-1-2.2-2.1-2.8c-0.6-0.3-1.2-0.5-1.9-0.8c-1.8-0.7-3.3-1.9-4.4-3.4c-1.5-2.1-2.7-4.9-1.7-7.4c0.9,1.2,2.8,1.1,4.4,1
						c2.1-0.2,4.2-0.2,6.2,0.3c2.1,0.5,4.8,1.7,5.7,3.6c0.2,0.4,0.3,0.9,0.7,1.2c0.6,0.8,0.9,1,1.5,1.7c1.1,1,1.1,2.7,0.9,4.2
						c-0.3,2.8-1.1,5.6-2.3,8C433.9,377.7,432.5,381.4,431.1,381.3z"/>
				</g>
				<path id="XMLID_185_" class="st10" d="M415.4,368.3c-1.5,2.6-2.1,3.4-3.3,5c-0.3,0.3-0.2,0.9,0.2,1.1c0.7,0.4,1.6,0.8,2.2,0.9"
					/>
				<path id="XMLID_184_" class="st19" d="M426.6,377.6c0,0-1.6,4.9-2.4,5.4c-0.8,0.5-6.1,0.9-6.1,0.9s4.1,0.4,6.5-0.5
					C426.1,382.8,426.6,377.6,426.6,377.6z"/>
				<g id="XMLID_182_">
					<path id="XMLID_181_" class="st7" d="M414.3,432.3c0,0-4.1,5-2,9.9C412.3,442.2,415.6,438.6,414.3,432.3z"/>
					<g id="XMLID_183_">
						<path id="XMLID_178_" class="st8" d="M412.4,436.8c0,0-0.9-3.8-7.9-3.2c0,0-0.3,0.9,2.3,1.8c1.9,0.6,3.5,1.1,4.5,1.4
							C411.8,436.8,412.1,436.8,412.4,436.8z"/>
						<path id="XMLID_175_" class="st8" d="M411.5,440c0,0-3.8,0.7-7-0.2c-3.2-0.9-3.8-2.4-4-3.3c-0.1-0.6-0.4-2.7,0.8-2.2
							c1.2,0.4,6.8,0.6,8.1,0.9c1.4,0.3,3.2,1.6,3.2,1.9C412.6,437.4,411.5,440,411.5,440z"/>
						<g id="XMLID_298_">
							<g id="XMLID_289_">
								<path id="XMLID_290_" class="st8" d="M442.2,441c1-1.3,1.5-0.4,0.3-2.5c-1-1.7-3.4-4.8-3.4-4.8c-10,1.2-19.8,3.1-26.9,2.1
									c-7.9-1.2-3.2,3.7-3.2,3.7C417.5,442.2,430.1,442.2,442.2,441z"/>
							</g>
						</g>
						<g id="XMLID_296_">
							<path id="XMLID_88_" class="st8" d="M441.2,436.9c-0.6,0.5-0.7,0.8-2.6,0.4c-1.5-0.3-1.6-1.5-2-2.7
								c-4.4-18-1.4-35.7-0.1-35.3c4.7,1.5,6.2,8.4,6.2,8.4s1.6,8.5,2,18.3c0.1,1.8,0,12.1-1.3,13.2
								C443.4,439.1,441.2,436.9,441.2,436.9z"/>
						</g>
						<g id="XMLID_294_">
							<path id="XMLID_82_" class="st9" d="M414.3,432.3c-0.1,1.6-0.7,8.7-2,9.9c8.3,1.8,23,0.4,33.6-0.6c1-1.3,0-2-1.3-4
								c-1-1.7-4-5-4-5C431.5,433.7,421.2,432.8,414.3,432.3z"/>
						</g>
						<g id="XMLID_186_">
							<path id="XMLID_81_" class="st9" d="M441.2,436.9c-0.6,0.5-0.7,0.8-2.6,0.4c-1.5-0.3-2,0.3-2.3-0.9
								c-6.6-17.2-1.7-45.4,4.9-42.7c4.6,1.9,5.3,18.7,5.6,28.6c0.1,1.8,0.7,17.8-0.6,18.7C446.1,441,441.2,436.9,441.2,436.9z"/>
						</g>
					</g>
				</g>
			</g>
			<g id="XMLID_107_">
				<polygon id="XMLID_73_" class="st30" points="388.9,431.3 396.3,433.9 421.9,433.9 421.9,430.2 389.7,430.2 				"/>
				<polygon id="XMLID_70_" class="st24" points="383.4,407.4 396.3,433.9 396.3,433.9 374.6,428.4 362.3,403.4 				"/>
				<polygon id="XMLID_64_" class="st25" points="385.6,407.4 365,402.9 362.3,403.4 383.5,408 				"/>
				<polygon id="XMLID_8_" class="st30" points="396.3,433.9 383.5,408 385.6,407.4 398.6,433.9 				"/>
			</g>
		</g>
	</g>
</g>
<g id="g3_1_" transform="matrix(0.9486962,0,0,0.9486962,2.4834364,1.8361818)">
	<path id="path5_1_" class="st0" d="M331.5-1.1c38.9,0,70.5,18,70.5,40.1c0,10.4-7,19.9-18.5,27c0.6,2.6,1.7,5.2,3.6,7.7
		c7.3,9.9,24.9,18,24.9,18s-27-11.5-46.8-17.5c-10,3.1-21.5,4.9-33.7,4.9c-38.9,0-70.5-18-70.5-40.1S292.6-1.1,331.5-1.1"/>
</g>
<g id="g3_2_" transform="matrix(0.9486962,0,0,0.9486962,2.4834364,1.8361818)">
	<path id="path5_2_" class="st0" d="M198.2,148.5c36.6,0,66.3,18,66.3,40.1s-29.7,40.1-66.3,40.1c-11.5,0-22.2-1.8-31.7-4.9
		c-18.6,6.1-43.9,17.5-43.9,17.5s16.5-8.1,23.3-18c1.7-2.6,2.7-5.1,3.3-7.7c-10.8-7.1-17.4-16.6-17.4-27
		C131.9,166.5,161.6,148.5,198.2,148.5"/>
</g>
<g id="g3_3_" transform="matrix(0.9486962,0,0,0.9486962,2.4834364,1.8361818)">
</g>
</svg>
